<?xml version="1.0" encoding="UTF-8"?>
<svg id="Layer_1" xmlns="http://www.w3.org/2000/svg" viewBox="0 0 879.19 220.48">
  <defs>
    <style>
      .cls-1 {
        fill: #faf8f7;
      }
    </style>
  </defs>
  <path class="cls-1" d="M844.64,122.79c0,14.02-3.42,27.12-10.26,39.3-6.83,12.18-16.16,21.86-27.99,29.05-11.83,7.18-24.85,10.86-39.04,11.04l-.53-36.8c7.36-.18,14.15-2.2,20.38-6.05,5.75-3.57,10.41-8.25,13.99-14.06-6.29,1.01-14.39,1.71-15.7,1.71-12.62,0-24.23-3.11-34.83-9.34-10.61-6.21-19.02-14.63-25.24-25.23-6.22-10.6-9.33-22.22-9.33-34.83V17.64h37.06v59.94c0,5.78,1.45,11.17,4.34,16.16,2.89,5,6.84,8.94,11.83,11.83,8.46,4.9,29.08,7.84,38.11,3.88.05.11.1.23.14.34V17.64h36.8v51.26l.27,53.89Z"/>
  <g>
    <path class="cls-1" d="M96.07,18.24h43.64v184.01h-37.07v-16.3h-25.24l-5.52,16.3h-37.33L96.07,18.24ZM102.64,151.51v-49.95l-13.67,49.95h13.67Z"/>
    <path class="cls-1" d="M151.8,202.25V18.24h37.07v184.01h-37.07ZM223.56,202.25l-47.32-.26v-36.8l47.32.26v36.8Z"/>
    <path class="cls-1" d="M333.31,57.14c-6.92-2.98-14.15-4.47-21.69-4.47-10.51,0-20.16,2.59-28.92,7.75-8.77,5.17-15.73,12.18-20.9,21.03-5.17,8.85-7.75,18.53-7.75,29.05s2.58,19.89,7.75,28.65c5.17,8.76,12.13,15.73,20.9,20.9,8.76,5.17,18.4,7.75,28.92,7.75,7.53,0,14.81-1.49,21.82-4.47,7.01-2.98,13.14-7.1,18.4-12.36l26.29,26.29c-8.59,8.59-18.66,15.34-30.23,20.24-11.57,4.9-23.66,7.36-36.28,7.36-17.18,0-33.04-4.25-47.58-12.75-14.55-8.5-26.03-19.98-34.44-34.44-8.41-14.46-12.62-30.19-12.62-47.19s4.21-33.03,12.62-47.58c8.41-14.54,19.89-26.07,34.44-34.57,14.54-8.5,30.4-12.75,47.58-12.75,12.62,0,24.71,2.5,36.28,7.49,11.57,4.99,21.64,11.79,30.23,20.37l-26.29,26.29c-5.43-5.43-11.61-9.64-18.53-12.62Z"/>
    <path class="cls-1" d="M388.65,202.25V18.24h37.07v184.01h-37.07ZM467.77,129.17h-60.72v-37.06h60.72v37.06ZM449.37,202.25V18.24h37.07v184.01h-37.07Z"/>
    <path class="cls-1" d="M498.53,202.25V18.24h37.07v184.01h-37.07ZM567.66,55.3h-44.69V18.24h44.69v37.07ZM567.66,128.91h-44.69v-37.07h44.69v37.07ZM567.66,202.25h-44.69v-37.07h44.69v37.07Z"/>
    <path class="cls-1" d="M579.75,18.24h37.07l26.02,83.6V18.24h37.07l62.12,184.01h-36.1l-26.02-83.59v83.59h-36.28l-26.81-82.81v82.81h-37.07V18.24Z"/>
  </g>
</svg>