<?xml version="1.0" encoding="UTF-8"?><svg id="Layer_1" xmlns="http://www.w3.org/2000/svg" viewBox="0 0 695.58 290.44"><defs><style>.cls-1{fill:none;stroke-width:2.83px;}.cls-1,.cls-2{stroke:#000;stroke-miterlimit:10;}.cls-2{stroke-width:.17px;}</style></defs><g><g><path class="cls-1" d="m223.95,282.22H6.28V118.27c0-60.11,48.73-108.84,108.84-108.84h0c60.11,0,108.84,48.73,108.84,108.84v163.95Z"/><line class="cls-1" x1="151.63" y1="17.02" x2="151.63" y2="283.22"/><line class="cls-1" x1="188.95" y1="38.57" x2="188.95" y2="283.06"/><path d="m182.13,68.91c2.01,25.36,2.56,50.75-.24,76.12-2.07-25.36.37-50.73.24-76.12Z"/><path d="m218.5,278.32c1.08-2.17,2.14-4.4,2.64-6.78.06-.31-.39-.47-.52-.18-.97,2.2-1.77,4.44-2.85,6.6-.23.47.49.82.73.36h0Z"/><path d="m209.13,283.26c5.93-6.74,11.65-14.58,14-23.36.11-.41-.51-.6-.7-.23-4.02,8.17-8.65,15.63-13.93,23.05-.31.43.27.95.63.54h0Z"/><path d="m211.25,272.64c3.76-4.86,8.41-10.86,8.75-17.21.02-.33-.49-.39-.61-.12-1.27,2.71-2.21,5.53-3.59,8.19-1.53,2.96-3.48,5.69-5.48,8.34-.47.63.44,1.43.93.8h0Z"/></g><g><path d="m207.1,143.63c-4.1,0-7.19-3.11-7.23-7.29-.04-4.19,3.02-7.43,7.06-7.49,3.84-.05,6.96,3.9,6.94,8.79-.01,3.42-2.91,5.99-6.77,5.99Z"/><rect x="204.99" y="134.33" width="4.63" height="39.06"/><path d="m207.1,181.56c-4.1,0-7.19-3.11-7.23-7.29-.04-4.19,3.02-7.43,7.06-7.49,3.84-.05,6.96,3.9,6.94,8.79-.01,3.42-2.91,5.99-6.77,5.99Z"/></g><path d="m177.99,59.49h0s-.04,0-.04,0c-.25-.03-.5-.06-.77-.06h-.13l-24.89-1.54-.31,2.71c-.76.66-1.23,1.54-1.23,2.51h0c0,.97.47,1.85,1.23,2.51l.31,2.71,24.89-1.54h.13c.26,0,.52-.02.77-.06h.04s0,0,0,0c2.15-.31,3.78-1.81,3.78-3.63h0c0-1.82-1.63-3.32-3.78-3.63Z"/><path d="m178.28,240.27h0s-.04,0-.04,0c-.25-.03-.5-.06-.77-.06h-.13l-24.89-1.54-.31,2.71c-.76.66-1.23,1.54-1.23,2.51h0c0,.97.47,1.85,1.23,2.51l.31,2.71,24.89-1.54h.13c.26,0,.52-.02.77-.06h.04s0,0,0,0c2.15-.31,3.78-1.81,3.78-3.63h0c0-1.82-1.63-3.32-3.78-3.63Z"/><g><rect x="87.52" y="126.34" width="28.64" height="7.33" rx=".34" ry=".34"/><path d="m122.58,231.07c-.04-2.16-.23-4.26-.71-5.59-3.45-1.95-7.36-3.26-10.87-4.13l-7.81-8.77v-52.35c2.51-1.3,7.7-4.88,8.36-12.4.87-9.98,1.04-15.53,1.04-15.53l-1.73.06c-.26,3.95-1.15,16.58-1.83,18.86-.93,3.12-3.77,7.29-7.2,7.29-3.43,0-6.27-4.17-7.2-7.29-.68-2.28-1.57-14.91-1.83-18.86l-1.73-.06s.17,5.55,1.04,15.53c.65,7.53,5.84,11.1,8.36,12.4v52.35l-7.87,8.85c-3.38.79-7.24,2.05-10.8,4.06-.49,1.33-.67,3.43-.71,5.59,0,.01,0,.02,0,.03v.46c0,.28,0,.56,0,.83v49.07c0,.47.38.85.85.85h.84c.47,0,.85-.38.85-.85v-44.74c2.01-2.15,5.29-4.96,9.2-5.78.29-.06.57-.12.84-.17v50.69c0,.47.38.85.85.85h.84c.47,0,.85-.38.85-.85v-50.97c0-.06-.02-.12-.04-.18,4.06-.67,5.59-.5,5.59-.5v-.03c.98,0,2.88.09,5.73.54-.01.06-.03.11-.03.17v50.97c0,.47.38.85.85.85h.84c.47,0,.85-.38.85-.85v-50.69c.27.05.55.11.84.17,3.91.82,7.18,3.63,9.2,5.78v44.74c0,.47.38.85.85.85h.84c.47,0,.85-.38.85-.85v-49.08c0-.27,0-.54,0-.81v-.47s0-.02,0-.04Z"/></g><path d="m115.61,86.19c0,7.55-6.45,11.53-13.35,11.53-3.7,0-7.59-1.1-10.52-3.52-3.57-2.93-4.44-6.81-3.48-8.87.55-1.05,1.6-1.78,2.84-1.78.46,0,.91.09,1.42.32,1.01.5,2.38,1.69,2.2,4.85-.09,1.28.09,2.74.59,3.89.87,1.97,3.06,3.48,6.27,3.43,4.39,0,7.18-2.93,7.18-8.64,0-7.64-5.03-11.11-10.98-11.11-.59,0-.87-.37-.87-.87s.32-.87.87-.87c5.76-.32,8.69-3.38,8.69-9.1,0-4.34-1.65-7.45-5.72-7.55-3.11,0-4.48,1.83-5.03,3.06-.55,1.14-.64,2.42-.59,3.57.18,2.84-1.1,3.89-1.92,4.3-.46.23-.87.32-1.33.32-1.05,0-2.01-.69-2.47-1.56-.87-1.83-.09-5.35,2.56-7.96,2.29-2.2,5.58-3.43,9.56-3.38,6.72,0,11.8,3.61,11.8,9.15,0,4.12-2.74,8.19-8.28,9.56,6.63.96,10.56,5.31,10.56,11.25Z"/><g><path class="cls-2" d="m27.29,241.29c.06,0,.06-.09,0-.1s-.06.09,0,.1h0Z"/><path class="cls-2" d="m33.65,237.31c-.03,1.03.02,2.07.17,3.09.15,1.09.15,2.4.79,3.32.14.21.51.22.58-.07.21-.88-.07-1.71-.23-2.59-.23-1.24-.43-2.48-.47-3.74-.02-.54-.83-.55-.84-.01h0Z"/><path class="cls-2" d="m36.76,238.24c-.07,1.11.01,2.17.16,3.27.14,1.05.22,2.25.81,3.16.14.22.55.23.61-.07.17-.86-.06-1.64-.22-2.49-.25-1.27-.38-2.56-.47-3.85-.04-.56-.85-.58-.89-.01h0Z"/><path class="cls-2" d="m39.38,239.17c0,1.09.11,2.16.26,3.24.13.92.15,2.11.79,2.83.18.21.55.1.62-.15.23-.82-.16-1.72-.32-2.54-.21-1.11-.34-2.23-.36-3.36,0-.64-.99-.65-.99-.01h0Z"/><path class="cls-2" d="m42.6,239.77c.17,1.12.37,2.25.61,3.36.21,1,.44,2.34,1.29,3.02.21.17.53.08.54-.21.04-1.03-.5-2.09-.75-3.08-.28-1.1-.52-2.21-.86-3.3-.17-.53-.91-.32-.83.22h0Z"/><path class="cls-2" d="m47.46,242.4c.05.77.49,1.67,1.18,2.04.27.14.51-.13.4-.38-.23-.51-.66-1.07-.67-1.65-.02-.58-.94-.59-.9-.01h0Z"/><path class="cls-2" d="m50.14,243.75c.38-.02.8.05,1.09-.22.11-.1.11-.28,0-.38-.29-.28-.71-.22-1.09-.25-.55-.04-.56.88-.01.85h0Z"/><path class="cls-2" d="m53.84,243.79c.44-.06.59-.4.92-.63.13-.1.19-.34,0-.43-.18-.08-.34-.13-.53-.05-.16.06-.33.27-.5.27-.62.03-.52.92.1.84h0Z"/><path class="cls-2" d="m48.57,161.69c-1.2,12.44-.94,25.02-.9,37.51.04,12.46-1.07,25.47.22,37.85.13,1.27,1.82,1.29,1.99.03,1.59-12.31.41-25.44.33-37.85-.08-12.49.09-25.06-.8-37.53-.04-.54-.79-.55-.84-.01h0Z"/><path class="cls-2" d="m49.08,161.7c-1.69,12.35-1.11,25.21-1.41,37.66-.15,6.24-.28,12.48-.4,18.72-.1,5.48-.72,11.45.35,16.85.08.38.68.39.77.01,1.23-5.38.77-11.33.92-16.83.17-6.24.28-12.48.41-18.72.26-12.43,1.41-25.29.06-37.67-.05-.46-.66-.47-.72,0h0Z"/><path class="cls-2" d="m30.72,233.96c8.38,8.86,24.65,3.8,35.21,3.65.98-.01,1-1.5.02-1.51-12.11-.11-23.64,3.86-34.78-2.69-.36-.21-.73.26-.45.56h0Z"/><path class="cls-2" d="m32.24,234.45c5.99,1.55,11.97,2.34,18.15,2.62,6.48.29,13.86.58,20.2-.96.63-.15.49-1.08-.14-1.1-6.09-.27-12.32.66-18.45.64-6.53-.02-13.21-.37-19.6-1.76-.37-.08-.53.46-.16.56h0Z"/><path class="cls-2" d="m64.66,281.04c2.6-14.38,5.46-29.56,8.26-43.91.18-.91-1.2-1.32-1.4-.4-3.14,14.14-7.24,29.51-7.98,44.01-.02.47.99.56,1.07.09l.04.21Z"/><path class="cls-2" d="m31.65,233.27c-.13,7.24,1.56,14.75,2.41,21.94.83,7.03,1.98,19.34,3.88,26.18.22.78,1.23.64,1.12-.13-1.13-7.54-2.86-20.25-3.75-27.83-.78-6.61-.95-13.93-3.19-20.21-.09-.24-.45-.22-.46.06h0Z"/><path class="cls-2" d="m50.71,161.42c-16.95,4.46-35.71-9.11-31.1-27.39,3.96-15.72,25.54-27.93,38.9-15.43.05.05.12-.03.08-.07-13.94-13.77-34.99-.59-39.89,15.24-5.82,18.82,15.12,33.64,32.17,28.26.39-.12.24-.71-.16-.61h0Z"/><path class="cls-2" d="m58.44,120.69c-.32-2.22.63-4.3,2.29-5.76-.28-.08-.55-.15-.83-.23.15,1.02.2,2.02.15,3.05-.06,1.19-.6,2.33-.58,3.5,0,.31.41.52.64.27,1.51-1.61,1.33-5.1.76-7.07-.09-.33-.57-.52-.83-.23-1.68,1.95-2.78,4.03-2.36,6.66.08.5.83.29.76-.2h0Z"/><path class="cls-2" d="m61.22,123.35c.67-.94,1.23-1.91,2.41-2.25-.27-.11-.53-.22-.8-.34.37.59.55.99.08,1.54-.48.55-1.16,1.03-1,1.82.07.36.44.49.76.44.51-.07.79-.55,1.11-.9.29-.32.58-.64.77-1.02.51-.99.04-1.92-.59-2.72-.14-.18-.48-.28-.69-.19-1.48.59-2.2,1.75-3.04,3.03-.41.63.57,1.19.99.59h0Z"/><path class="cls-2" d="m23.08,121.97c-.49-1.98-1.46-3.79-3.3-4.81-.24-.13-.56-.07-.7.17-.53.9-.9,1.76-.6,2.81.3,1.05,1.3,1.91,2.12,2.57.25.2.55-.03.43-.32-.67-1.61-2.12-2.71-1.08-4.53-.23.06-.47.12-.7.17,1.63.89,2.42,2.46,2.86,4.19.16.63,1.13.37.98-.25h0Z"/><path class="cls-2" d="m19.86,125.36c.86.1,1.59.48,2.33.91-.11-.2-.23-.41-.34-.61-.01.15-.02.3-.03.45.18-.23.36-.46.55-.69-1.88.41-3.15,2.06-4.98,2.57-.54.15-.79.87-.36,1.28.76.72,1.69,1.21,2.62,1.67.69.35,1.38.77,2.14.41.16-.08.22-.27.19-.44-.13-.67-.65-.87-1.21-1.16-.9-.46-1.87-.86-2.62-1.56-.12.43-.24.85-.36,1.28,1.85-.53,3.16-2.02,4.96-2.65.3-.1.56-.35.55-.69,0-.15-.01-.3-.02-.45-.01-.22-.11-.51-.34-.61-1-.44-1.93-.87-3.03-.95-.81-.06-.8,1.15-.02,1.24h0Z"/><path class="cls-2" d="m20,135.86c-.89-.51-1.74-.98-2.77-1.14-.34-.05-.61.03-.82.32-1.39,1.98-1.68,4.96-.72,7.16,1.11,2.54,4.59,2.01,5.66-.27.15-.32-.08-.76-.48-.64-1.47.42-3.2,1.88-3.93-.25-.59-1.73-.13-3.7.7-5.26-.21.12-.42.23-.63.35.89.03,1.6.33,2.4.69.64.29,1.21-.58.57-.95h0Z"/><path class="cls-2" d="m58.25,146.96c-.27-1.27-.38-2.75.31-3.8.09-.14.16-.23.36-.4.02-.02.16-.12.03-.03.04-.03.08-.06.12-.08.1-.06.2-.11.3-.16-.16.07.11-.03.16-.05.09-.03.18-.04.28-.06.16-.03-.16.01,0,0,.05,0,.09,0,.14,0,.11,0,.22,0,.32.01.16.02-.16-.03,0,0,.05,0,.09.02.13.03.09.02.18.05.26.08.23.08-.04-.03.12.05.09.05.18.1.27.16.15.11-.09-.09.09.08.06.06.12.12.18.19.1.12-.1-.15-.01-.02.03.04.05.07.07.11.05.09.1.17.15.27-.11-.23,0,.04.03.11.01.04.02.09.03.13.03.17-.02-.19,0-.02,0,.1,0,.19,0,.29,0,.05-.03.22,0,0-.01.07-.03.14-.04.21-.03.11-.06.21-.11.32-.07.19.07-.15-.02.03-.03.06-.06.11-.09.17-.18.33-.27.43-.48.66-.31.34-.66.64-1.02.92-.46.35-1.14.73-1.32,1.3-.08.27.08.62.37.68.93.19,1.94-.71,2.58-1.28.5-.45.96-.98,1.27-1.58.47-.9.6-2.06-.01-2.93-1.11-1.58-3.62-1.72-4.89-.26-1.23,1.41-1.07,3.52-.67,5.21.16.7,1.22.42,1.08-.28h0Z"/><path class="cls-2" d="m62,148.5c.52-.31,1.07-.62,1.67-.75.43-.09.72-.08,1.07.03.21.07-.04-.03.07.03.08.04.15.09.22.13.19.12-.09-.1.07.05.06.05.11.11.16.17-.21-.25.17.39.04.06.03.07.05.14.06.21,0,.03.01.06.02.08.03.16-.02-.22,0-.06,0,.06,0,.11,0,.17,0,.25.02-.07,0,.02-.01.07-.03.13-.06.19-.03.09.11-.2,0,0-.04.06-.16.21.02-.02-.05.06-.24.21,0,.02-.05.04-.11.07-.18.1.27-.13.05-.03-.04,0-.15.03.24-.01,0,0-.07,0-.36-.04-.08,0-.1-.02-.2-.04-.29-.07-.04-.01-.08-.03-.12-.04-.22-.08.17.08-.05-.02-.55-.26-1.05-.86-1.63-.98-.55-.11-1.17.33-.98.94.25.8,1.24,1.34,1.97,1.66.52.23,1.08.3,1.64.2.95-.18,1.57-1.15,1.51-2.07-.06-.99-.71-1.91-1.7-2.18-1.36-.36-2.83.43-3.9,1.2-.54.39-.07,1.27.52.91h0Z"/><path class="cls-2" d="m61.78,156.14c.96.56,2.63,1.84,1.48,3.01-1.2,1.21-2.29-1.22-2.53-2-.31-.97-1.87-.87-1.84.22.05,1.71-.98,2.75-1.89,4.13.38.11.75.21,1.13.32-.17-1.63.97-2.98.76-4.56-.04-.3-.51-.42-.7-.19-1.14,1.34-1.7,3.2-1.25,4.9.14.51.83.6,1.11.16.97-1.55,2.48-2.84,2.72-4.73-.61.07-1.23.15-1.84.22.67,2.41,2.99,4.82,5.48,2.91.82-.63,1.03-1.75.82-2.7-.31-1.41-1.74-2.24-2.96-2.77-.63-.27-1.04.74-.47,1.07h0Z"/><path class="cls-2" d="m67.12,139.08c.32-.31.53-.66.75-1.04.27-.46.68-.44,1.18-.4-.21-.16-.42-.32-.63-.49.24.67.68,1.3-.02,1.72-.66.41-1.54.75-1.59,1.65-.01.22.19.4.4.41.8.02,1.95-.65,2.52-1.2.87-.84.42-2.17-.11-3.07-.11-.18-.34-.35-.56-.33-.64.07-1.3.16-1.74.67-.36.42-.48.98-.86,1.4-.4.44.22,1.09.65.66h0Z"/><path class="cls-2" d="m65.02,129.72c10.26,1.91,7.28,16.7,2.22,22.13-.31.33.06.8.47.62,8.75-3.99,7.54-22.17-2.58-23.5-.43-.06-.54.67-.11.75h0Z"/><path class="cls-2" d="m38.36,156.99c1.33,1.69-.02,4.41-.86,6.32.47,0,.93.01,1.4.02-.45-.96-.65-2.19-.85-3.31-.13-.71-.15-1.58-.85-1.99-.18-.1-.45-.09-.6.08-.59.67-.32,1.57-.18,2.36.22,1.28.51,2.54,1.07,3.71.25.52,1.15.56,1.4.02,1.11-2.36,2.23-5.73.23-7.92-.47-.51-1.16.2-.75.72h0Z"/><path class="cls-2" d="m33.54,160.87c-.17.44-.35.85-.6,1.25-.09.14-.19.26-.31.38-.06.06-.15.06-.04.05-.12,0,0,.02-.14-.07-.13-.08-.24-.23-.33-.35-.28-.32-.65-.63-1.08-.66-.13,0-.31.08-.37.2-.47,1.06.81,2.46,1.9,2.46,1.38,0,1.93-1.89,2.26-2.91.27-.84-.99-1.17-1.3-.38h0Z"/><path class="cls-2" d="m30.62,160.14s.04-.06,0-.06-.04.06,0,.06h0Z"/><path class="cls-2" d="m28.74,160.17c-.31-.35-.27-.82-.28-1.26,0-.23-.14-.44-.37-.5-.1-.03-.18-.03-.28,0-.23.05-.38.27-.39.49-.04.75.03,1.43.57,2,.47.5,1.2-.23.75-.73h0Z"/><path class="cls-2" d="m56.97,151.86c-1.49,2.81-3.44,5.08-5.41,7.55-.13.17.13.32.27.21,2.43-1.89,4.18-4.82,5.59-7.5.16-.3-.29-.57-.45-.27h0Z"/><path class="cls-2" d="m57.11,146.03c-3.72,4.45-7.35,9.35-10.53,14.19-.14.22.16.42.34.27,4.51-3.67,7.03-9.63,10.56-14.16.17-.21-.2-.5-.37-.29h0Z"/><path class="cls-2" d="m56.33,140.77c-3.89,6.54-8,12.6-12.86,18.46-.2.24.09.54.34.34,5.76-4.8,9.38-12.15,12.76-18.66.08-.15-.14-.29-.23-.14h0Z"/><path class="cls-2" d="m52.15,141.07c-3.6,6.72-7.88,12.66-12.73,18.54-.2.24.1.56.35.35,5.75-4.74,9.55-12.08,12.9-18.58.18-.34-.33-.65-.52-.31h0Z"/><path class="cls-2" d="m43.41,148.02c-1.24,2.07-2.67,3.98-4.27,5.79-1.5,1.7-3.35,3.09-4.75,4.86-.21.26.17.6.44.45,3.91-2.23,7.12-6.83,9.34-10.63.29-.49-.47-.94-.76-.46h0Z"/><path class="cls-2" d="m38.55,147.43c-1.12,1.29-2.19,2.62-3.28,3.94-1.12,1.36-2.67,2.61-3.49,4.17-.13.25.12.51.38.38,1.43-.72,2.43-2.21,3.43-3.42,1.21-1.47,2.36-2.99,3.58-4.45.35-.42-.24-1.05-.61-.62h0Z"/><path class="cls-2" d="m30.86,151.91c-.19.36-.39.7-.68.99-.3.31-.68.51-.99.8-.18.16,0,.41.21.38.96-.16,1.63-.98,2.07-1.79.22-.41-.41-.78-.62-.37h0Z"/><path class="cls-2" d="m26.67,150.25c-.03.51-.46.87-.25,1.41.09.22.36.29.51.07.28-.41.62-.83.7-1.34.11-.7-.92-.84-.96-.14h0Z"/><path class="cls-2" d="m68.59,133.07c.53-2.07,1.77-3.93,3.19-5.51-.28-.12-.55-.24-.83-.36-.1.92-.24,1.83-.5,2.72-.25.89-.72,1.69-.82,2.61-.03.35.42.49.65.28,1.37-1.26,1.71-3.84,1.64-5.6-.02-.49-.64-.67-.91-.26-1.27,1.92-2.64,3.61-3.17,5.9-.11.48.62.69.74.21h0Z"/><path class="cls-2" d="m70.38,135.17c1.71-1.28,4.22-2.27,5.13.34.19-.32.38-.64.56-.96-1.04.33-2.04-.04-2.83.83-.22.24-.18.72.2.79,1,.18,2.06.24,3.03-.11.37-.13.72-.53.56-.96-1.35-3.56-5.01-2.63-7.42-.72-.56.44.21,1.2.77.78h0Z"/><path class="cls-2" d="m40.29,113.72c-.29-1.29-.33-2.55-.3-3.87-.36.14-.72.28-1.08.43,1.26,1.15,1.83,2.6,2.24,4.21.33,1.29.22,2.9.96,4.03.15.23.5.2.59-.07.47-1.42-.14-3.35-.48-4.75-.4-1.62-1.14-3.17-2.41-4.28-.39-.35-1.07-.15-1.08.43,0,1.44.04,2.79.49,4.17.22.67,1.22.42,1.06-.28h0Z"/><path class="cls-2" d="m43.79,118.51c.92-2.79,2.19-5.34,4.55-7.19-.37-.1-.74-.2-1.11-.31,1.21,2.97-.58,5.46-1.49,8.22-.08.23.22.37.39.23,2.55-2.18,3.68-5.83,2.32-8.94-.18-.42-.75-.4-1.04-.15-2.43,2.05-3.74,4.87-4.63,7.85-.19.65.8.93,1.01.29h0Z"/><path class="cls-2" d="m48.01,120.47c1-.86,2.08-1.68,3.28-2.27-.36-.28-.71-.56-1.07-.84-.16.97-.56,1.89-.66,2.86-.04.4.47.53.73.31.82-.71,1.43-1.85,1.37-2.96-.04-.65-.74-.96-1.25-.53-1.06.9-1.99,1.86-2.93,2.89-.33.36.16.85.52.54h0Z"/><path class="cls-2" d="m62.4,127.07c-1.76,4.45-2.41,9.21-3.74,13.79-.01.05.06.07.07.02,1.42-4.55,2.04-9.31,3.81-13.76.04-.09-.11-.13-.14-.04h0Z"/><path class="cls-2" d="m60.94,131.5c-2.45,7.2-4.03,14.41-8.34,20.82-.08.11.1.25.19.15,4.83-5.84,6.04-13.91,8.39-20.9.05-.16-.19-.23-.25-.07h0Z"/><path class="cls-2" d="m57.84,126.54c-1.79,8.18-4.44,15.44-8.01,22.99-.11.24.2.55.4.31,5.05-6.18,6.58-15.61,7.9-23.22.03-.19-.25-.27-.29-.08h0Z"/><path class="cls-2" d="m52.26,131.79c-1.23,6.4-3.91,11.85-6.5,17.76-.13.29.31.43.48.21,3.73-4.95,5.53-11.81,6.56-17.81.06-.35-.47-.51-.53-.15h0Z"/><path class="cls-2" d="m45.9,133.56c-.63,4.51-1.98,8.28-4.05,12.33-.1.2.14.42.32.25,3.18-3.15,3.88-8.34,4.39-12.57.05-.42-.6-.42-.66,0h0Z"/><path class="cls-2" d="m39.43,137.81c-.25,1.09-.64,2.12-1.2,3.09-.56.97-1.37,1.46-2.19,2.16-.19.17-.02.42.18.45,1.07.15,1.9-.86,2.48-1.62.83-1.1,1.34-2.49,1.64-3.81.14-.59-.77-.85-.91-.26h0Z"/><path class="cls-2" d="m69.43,123.62c-.03.95-.06,1.9-.13,2.84-.07.83-.33,1.67-.3,2.5,0,.19.23.24.34.1.48-.63.49-1.48.55-2.24.09-1.06.08-2.13.08-3.19,0-.34-.52-.34-.53,0h0Z"/><path class="cls-2" d="m68.09,122.63c-.47,2.77-.86,5.37-1.76,8.04-.04.13.14.25.24.14,1.77-2.06,1.64-5.48,2.08-8.02.06-.36-.49-.52-.55-.16h0Z"/><path class="cls-2" d="m64.18,126.67c0,.98-.02,1.95-.16,2.92-.12.82-.46,1.59-.54,2.42-.02.24.29.34.45.19,1.37-1.32,1.28-3.77,1.32-5.52.02-.68-1.06-.7-1.07-.01h0Z"/><path class="cls-2" d="m60.65,130.07c-.39,1.16-.66,2.55-.38,3.77.07.31.55.31.62,0,.13-.5.12-1.02.17-1.53.07-.69.22-1.34.44-2,.18-.54-.67-.78-.85-.25h0Z"/><path class="cls-2" d="m39.99,271.83c.2,1.48.41,2.94.78,4.39.25.99.61,2.41,1.58,2.91.16.08.43,0,.41-.23-.11-1.01-.81-1.94-1.13-2.91-.46-1.41-.68-2.89-.93-4.35-.08-.47-.78-.27-.71.19h0Z"/><path class="cls-2" d="m43.21,265.98c.39,4.48.37,9.8,2.24,13.96.08.18.4.1.38-.1-.5-4.63-1.5-9.18-1.91-13.85-.04-.45-.75-.46-.71,0h0Z"/><path class="cls-2" d="m45.5,259.77c.74,7.15.39,16.22,4.23,22.55.23.38.85.15.73-.3-1.95-7.48-3.33-14.52-4.19-22.25-.05-.48-.82-.5-.77-.01h0Z"/><path class="cls-2" d="m50.71,271.43c.34,2.97.03,7,1.83,9.53.14.19.56.17.52-.13-.17-1.41-.65-2.75-.91-4.15-.32-1.76-.42-3.57-.65-5.35-.06-.45-.85-.35-.8.1h0Z"/><path class="cls-2" d="m54.64,279.03c.43.48.53,1.06,1.19,1.29.27.1.51-.18.45-.44-.13-.61-.39-1.19-.81-1.66-.5-.56-1.32.25-.83.8h0Z"/><path class="cls-2" d="m44.04,162.59c.09,0,.09-.13,0-.13s-.09.13,0,.13h0Z"/><path class="cls-2" d="m44.81,162.57c.95,6.98,1.66,13.71,1.65,20.78-.01,6.46-.38,12.93-.14,19.39.43,11.61,2.7,24.9-1.87,35.95-.17.4.51.69.7.3,5.03-10.25,2.53-24.31,1.97-35.25-.35-6.78.01-13.59.05-20.38.03-6.68.37-14.51-2.09-20.86-.06-.16-.29-.1-.26.07h0Z"/><path class="cls-2" d="m31.18,239.8c5.33,4.02,10.88,6.12,17.54,6.66,3.53.29,7.14.16,10.63-.39,5.29-.84,10.11-3.27,15.49-3.8.5-.05.51-.83.01-.78-7.54.73-14.23,4.14-21.92,4.25-8.08.12-14.95-1.53-21.4-6.52-.34-.27-.69.32-.35.58h0Z"/><path class="cls-2" d="m31.87,119.15c.5,2.59,1.01,5.2,1.79,7.73.04.12.21.07.19-.05-.44-2.61-1.11-5.18-1.6-7.78-.05-.25-.43-.15-.38.1h0Z"/><path class="cls-2" d="m33.04,116.88c1.22,2.65,1.55,5.49,2.36,8.26.05.19.37.17.36-.04-.26-2.89-.99-5.86-2.21-8.5-.15-.33-.65-.05-.5.28h0Z"/><path class="cls-2" d="m49.41,266.56c-1.68,2.22-3.65,5.05-4.16,7.84-.06.33.34.52.55.24.81-1.14,1.3-2.51,1.96-3.75.72-1.35,1.57-2.62,2.5-3.83.38-.5-.46-1-.84-.5h0Z"/><path class="cls-2" d="m51.74,270.75c-.7,1.34-1.38,2.67-2,4.05-.46,1.02-1.06,2.16-.99,3.3.02.33.42.45.61.17.7-1,.97-2.35,1.46-3.46.54-1.21,1.16-2.37,1.76-3.55.29-.56-.56-1.07-.85-.51h0Z"/><path class="cls-2" d="m54.17,274.85c-.72.72-1.23,1.55-1.61,2.49-.24.6-.73,1.81-.08,2.27.09.07.24.06.33,0,.49-.29.42-1.06.56-1.56.26-.95.78-1.82,1.46-2.52.43-.44-.23-1.13-.67-.69h0Z"/><path class="cls-2" d="m58.09,277.62c.03.51.23.99.64,1.31.38.29.94.52,1.33.13.09-.09.14-.26.05-.38-.26-.36-.85-.53-.88-1.04-.04-.73-1.18-.75-1.14-.02h0Z"/><path class="cls-2" d="m61.88,277.67c.05.5.45,1.06,1.03.88.28-.09.26-.43,0-.53.11.04-.06-.04-.08-.05-.15-.07-.22-.1-.22-.29,0-.48-.79-.47-.74,0h0Z"/></g></g><g><path d="m320.18,67.14c0,13.56-11.59,20.71-24,20.71-6.66,0-13.64-1.97-18.9-6.33-6.41-5.26-7.98-12.25-6.25-15.95.99-1.89,2.88-3.2,5.09-3.2.82,0,1.65.17,2.55.57,1.81.91,4.27,3.04,3.95,8.72-.17,2.3.17,4.93,1.07,6.98,1.56,3.54,5.51,6.25,11.26,6.17,7.89,0,12.9-5.26,12.9-15.54,0-13.73-9.04-19.97-19.73-19.97-1.07,0-1.56-.66-1.56-1.56s.57-1.56,1.56-1.56c10.35-.58,15.62-6.08,15.62-16.36,0-7.81-2.96-13.39-10.27-13.56-5.59,0-8.05,3.29-9.04,5.51-.99,2.06-1.15,4.35-1.07,6.41.33,5.1-1.97,6.99-3.45,7.73-.83.41-1.56.57-2.38.57-1.89,0-3.62-1.23-4.44-2.8-1.56-3.29-.17-9.61,4.6-14.3,4.11-3.95,10.03-6.17,17.18-6.08,12.08,0,21.21,6.49,21.21,16.44,0,7.4-4.93,14.71-14.87,17.18,11.92,1.73,18.99,9.54,18.99,20.22Z"/><path d="m353.48,83.17c-2.3,0-3.86,1.65-3.86,4.69h-1.07v-22.03h.91c1.48,10.19,9.86,18.9,22.93,18.9,11.1,0,15.53-6.49,15.53-12.66,0-15.37-38.3-19.31-38.3-40.44,0-10.27,9.12-17.83,24.25-17.83,5.92,0,11.1,1.15,15.45,3.29.74.33,1.4.49,2.06.49,1.56,0,2.72-.91,2.72-2.71h.98v18.9h-.9c-1.23-9.53-8.71-16.85-19.81-16.85-10.52,0-14.39,6.33-14.39,11.26,0,15.13,38.22,18.41,38.22,40.19,0,9.29-5.59,19.48-24.33,19.48-7.56,0-12.9-1.56-17.1-3.78-1.15-.58-2.3-.91-3.29-.91Z"/><path d="m460.6,85.72v1.07h-24.66v-1.07l.41-.08c3.53-1.15,5.75-4.28,5.75-7.98v-22.44c0-9.04-.91-17.67-9.29-17.67-7.72-.08-12.57,6.98-12.57,17.67v22.44c0,3.54,2.3,6.82,5.75,7.98l.41.08v1.07h-24.66v-1.07l.41-.08c3.53-1.15,5.75-4.44,5.75-7.98V21.77c0-3.7-2.22-6.9-5.75-8.06l-.41-.08v-1.07l17.51-2.88h.99v32.46c2.96-5.26,8.05-8.79,16.11-8.79,11.75,0,18.08,7.56,18.08,21.86v22.44c0,3.7,2.3,6.82,5.75,7.98l.41.08Z"/><path d="m508.87,74.63h1.07c-4.52,11.34-11.75,14.22-21.62,14.22-14.88,0-24.66-10.36-24.66-26.55,0-15.21,8.22-28.93,24.25-28.93,14.88,0,23.1,12,23.1,27.7h-33.86c.57,16.44,6.9,23.67,15.29,23.67,9.37,0,13.81-5.59,16.44-10.11Zm-31.81-16.6h22.6c-.57-12.74-3.62-21.62-11.75-21.62-7.4.17-10.77,7.56-10.85,21.62Z"/><path d="m568.97,83.17c-1.23,3.7-3.37,5.67-8.55,5.67s-7.89-1.97-8.96-5.59c-3.04,2.38-7.48,5.59-13.32,5.59-10.77,0-20.88-10.69-20.88-28.69s9.78-26.8,21.28-26.8c6.17,0,10.19,2.63,12.5,6.58v-18.16c0-3.7-2.22-6.9-5.75-8.06l-.41-.08v-1.07l17.51-2.88h.99v68.38c0,5.59.16,7.64,1.4,7.64.82,0,1.48-.99,2.06-2.55h2.14Zm-17.92-32.55c-.49-11.75-6.25-14.22-9.87-14.22-5.59,0-11.59,6-11.59,24.66,0,15.95,4.44,23.67,11.59,23.67,3.95,0,7.56-2.46,9.87-4.77v-29.34Z"/><path d="m612.22,75.03c0,7.73-5.67,13.81-18.41,13.81-7.24,0-12-1.97-14.88-3.2-.74-.33-1.48-.58-2.06-.58-.82,0-1.4.49-1.4,1.73h-1.07v-14.22h1.56c1.73,6.58,6.99,13.15,15.78,13.15,6.33,0,9.45-3.29,9.45-7.24,0-11.67-26.8-16.19-26.8-30.98,0-7.56,7.07-14.14,18-14.14,6.49,0,10.35,2.22,13.23,3.2.82.25,1.48.41,2.14.41.82,0,1.4-.41,1.4-1.56h.99v12.08h-1.56c-1.73-6.58-7.07-11.1-14.39-11.1-6.66,0-8.79,3.95-8.87,6.82,0,10.27,26.88,14.8,26.88,31.81Z"/><path d="m318.7,184.3c-2.46-.33-5.75,0-8.47.74-2.46.74-5.34,1.48-9.04,1.48-17.26,0-31.73-14.63-31.73-36.49s15.04-37.56,34.36-37.56c5.34,0,10.27,1.15,14.63,3.29.74.33,1.4.49,2.06.49,1.56,0,2.71-.91,2.71-2.71h.99v18.9h-.99c-1.23-9.7-8.63-16.85-19.56-16.85-14.63,0-21.86,13.24-21.86,33.7,0,23.59,9.45,34.11,21.7,34.11,3.86,0,7.48-1.07,10.44-3.2v-18.58c0-3.7-2.22-6.9-5.75-8.05l-.41-.08v-.98h24.65v.9l-.41.17c-3.45,1.15-5.75,4.35-5.75,8.05v23.84l-7.56-1.15Z"/><path d="m385.95,181.83c-1.23,3.7-3.37,5.67-7.98,5.67-5.01,0-8.05-2.3-9.29-7.48-2.55,3.78-7.4,7.48-16.19,7.48s-17.18-4.03-17.18-12.99c0-17.42,30.25-15.45,32.63-26.96-.41-6.08-2.14-13.15-8.14-13.15-2.46,0-3.86,1.07-4.27,1.4-2.71,2.38-3.12,5.75-3.04,8.55.33,5.01-1.97,6.98-3.53,7.72-.82.41-1.56.57-2.3.57-1.97,0-3.62-1.23-4.44-2.88-1.56-3.29-.25-9.53,4.6-13.48,3.2-2.63,8.06-4.27,14.05-4.27,12.9-.08,19.56,6.9,19.56,19.73v24.99c0,5.59.08,7.64,1.32,7.64.82,0,1.56-.99,2.06-2.55h2.14Zm-17.84-28.44c-6.41,6.74-20.47,9.78-20.47,21.54,0,4.77,2.38,9.45,8.06,9.45,6.41,0,12.41-6.16,12.41-11.26v-19.73Z"/><path d="m433.07,145.58c-1.73.41-4.69.33-7.56-3.78-1.64-2.3-4.27-4.52-7.32-4.52-5.26-.17-10.19,6.16-10.19,16.6v22.44c0,3.54,2.3,6.82,5.75,7.98l.41.08v1.07h-24.66v-1.07l.41-.08c3.53-1.15,5.75-4.44,5.75-7.98v-30.25c0-3.7-2.22-6.9-5.75-7.97l-.41-.17v-.98l17.51-2.88h.99v7.48c3.53-6.16,9.61-9.53,16.02-9.53,6.99,0,12,4.03,12.82,7.48.57,2.47-.66,5.35-3.78,6.08Z"/><path d="m491.76,181.83c-1.23,3.7-3.37,5.67-8.55,5.67s-7.89-1.97-8.96-5.59c-3.04,2.38-7.48,5.59-13.31,5.59-10.77,0-20.88-10.69-20.88-28.69s9.78-26.8,21.29-26.8c6.17,0,10.19,2.63,12.5,6.58v-18.16c0-3.7-2.22-6.9-5.75-8.06l-.41-.08v-1.07l17.5-2.88h.99v68.38c0,5.59.16,7.64,1.4,7.64.82,0,1.48-.99,2.06-2.55h2.14Zm-17.92-32.55c-.49-11.75-6.25-14.22-9.87-14.22-5.59,0-11.59,6-11.59,24.66,0,15.95,4.44,23.67,11.59,23.67,3.95,0,7.56-2.46,9.87-4.77v-29.34Z"/><path d="m540.77,173.29h1.07c-4.52,11.34-11.75,14.22-21.62,14.22-14.88,0-24.66-10.36-24.66-26.55,0-15.21,8.22-28.93,24.25-28.93,14.88,0,23.1,12,23.1,27.7h-33.86c.57,16.44,6.9,23.67,15.29,23.67,9.37,0,13.81-5.59,16.44-10.11Zm-31.81-16.6h22.6c-.57-12.74-3.62-21.62-11.75-21.62-7.4.17-10.77,7.56-10.85,21.62Z"/><path d="m605.06,184.38v1.07h-24.66v-1.07l.41-.08c3.53-1.15,5.75-4.28,5.75-7.98v-22.44c0-9.04-.91-17.67-9.29-17.67-7.72-.08-12.58,6.98-12.58,17.67v22.44c0,3.54,2.3,6.82,5.75,7.98l.41.08v1.07h-24.66v-1.07l.41-.08c3.53-1.15,5.75-4.44,5.75-7.98v-30.25c0-3.7-2.22-6.9-5.75-7.97l-.41-.17v-.98l17.51-2.88h.98v6.74c2.96-5.26,8.06-8.79,16.11-8.79,11.75,0,18.08,7.56,18.08,21.86v22.44c0,3.7,2.3,6.82,5.75,7.98l.41.08Z"/><path d="m320.34,281.4c-.57,0-1.23.16-1.81.41-4.77,2.3-9.86,3.37-15.2,3.37-20.96,0-33.95-16.27-33.95-36.49s13.15-37.56,34.11-37.56c5.35,0,10.36,1.15,14.88,3.29.74.33,1.4.49,2.06.49,1.56,0,2.71-.91,2.71-2.71h.99v18.9h-.99c-.9-8.71-8.47-16.85-19.97-16.85-17.67,0-21.45,19.48-21.45,33.7s4.03,34.11,21.29,34.11c10.85,0,19.07-8.05,20.14-17.59l.99.08v19.56h-.99c0-1.81-1.23-2.71-2.8-2.71Z"/><path d="m373.21,244.25c-1.73.41-4.69.33-7.56-3.78-1.64-2.3-4.27-4.52-7.32-4.52-5.26-.17-10.19,6.16-10.19,16.6v22.44c0,3.54,2.3,6.82,5.75,7.98l.41.08v1.07h-24.66v-1.07l.41-.08c3.53-1.15,5.75-4.44,5.75-7.98v-30.25c0-3.7-2.22-6.9-5.75-7.97l-.41-.17v-.98l17.51-2.88h.99v7.48c3.53-6.16,9.61-9.53,16.02-9.53,6.99,0,12,4.03,12.82,7.48.57,2.47-.66,5.35-3.78,6.08Z"/><path d="m424.6,271.95h1.07c-4.52,11.34-11.75,14.22-21.62,14.22-14.88,0-24.66-10.36-24.66-26.55,0-15.21,8.22-28.93,24.25-28.93,14.88,0,23.1,12,23.1,27.7h-33.86c.57,16.44,6.9,23.67,15.29,23.67,9.37,0,13.81-5.59,16.44-10.11Zm-31.81-16.6h22.6c-.57-12.74-3.62-21.62-11.75-21.62-7.4.17-10.77,7.56-10.85,21.62Z"/><path d="m482.48,280.5c-1.23,3.7-3.37,5.67-7.98,5.67-5.01,0-8.05-2.3-9.29-7.48-2.55,3.78-7.4,7.48-16.19,7.48s-17.18-4.03-17.18-12.99c0-17.42,30.25-15.45,32.63-26.96-.41-6.08-2.14-13.15-8.14-13.15-2.46,0-3.86,1.07-4.27,1.4-2.71,2.38-3.12,5.75-3.04,8.55.33,5.01-1.97,6.98-3.53,7.72-.82.41-1.56.57-2.3.57-1.97,0-3.62-1.23-4.44-2.88-1.56-3.29-.25-9.53,4.6-13.48,3.2-2.63,8.06-4.27,14.05-4.27,12.9-.08,19.56,6.9,19.56,19.73v24.99c0,5.59.08,7.64,1.32,7.64.82,0,1.56-.99,2.06-2.55h2.14Zm-17.84-28.44c-6.41,6.74-20.47,9.78-20.47,21.54,0,4.77,2.38,9.45,8.06,9.45,6.41,0,12.41-6.17,12.41-11.26v-19.73Z"/><path d="m516.27,271.95c-3.04,10.44-7.48,14.22-14.79,13.64-8.22-.66-12.66-6.25-12.66-21.29v-28.52h-7.07v-3.04h7.07c6.08,0,9.29-5.26,9.29-13.4h3.04v13.4h10.6v3.04h-10.6v28.52c0,11.59,1.81,18.66,6.82,17.1,1.56-.49,4.11-2.06,7.32-9.45h.98Z"/><path d="m543.74,283.04v1.07h-24.66v-1.07l.41-.08c3.53-1.15,5.75-4.44,5.75-7.98v-30.25c0-3.7-2.22-6.9-5.75-7.97l-.41-.17v-.98l17.51-2.88h.99v42.24c0,3.54,2.3,6.82,5.75,7.98l.41.08Zm-19.81-62.38c-.99-4.19,1.56-8.3,5.67-9.29,4.19-.98,8.3,1.56,9.29,5.67.99,4.19-1.56,8.3-5.67,9.29-4.19.99-8.3-1.56-9.29-5.67Z"/><path d="m602.26,232.74v.98h-.08c-3.62,0-6.91,2.3-8.22,5.67l-17.75,44.71h-6.49l-17.18-44.71c-1.23-3.37-4.52-5.67-8.22-5.67h-.08v-.98h25.48v.98h-.08c-3.62,0-5.18,2.39-3.95,5.75l12.24,31.89,12.66-31.97c1.32-3.37-.25-5.67-3.78-5.67h-.16v-.98h15.62Z"/><path d="m645.68,271.95h1.07c-4.52,11.34-11.75,14.22-21.62,14.22-14.88,0-24.66-10.36-24.66-26.55,0-15.21,8.22-28.93,24.25-28.93,14.88,0,23.1,12,23.1,27.7h-33.86c.57,16.44,6.9,23.67,15.29,23.67,9.37,0,13.81-5.59,16.44-10.11Zm-31.81-16.6h22.6c-.57-12.74-3.62-21.62-11.75-21.62-7.4.17-10.77,7.56-10.85,21.62Z"/><path d="m692.3,272.36c0,7.73-5.67,13.81-18.41,13.81-7.24,0-12-1.97-14.88-3.2-.74-.33-1.48-.58-2.06-.58-.82,0-1.4.49-1.4,1.73h-1.07v-14.22h1.56c1.73,6.58,6.99,13.15,15.78,13.15,6.33,0,9.45-3.29,9.45-7.24,0-11.67-26.8-16.19-26.8-30.98,0-7.56,7.07-14.14,18-14.14,6.49,0,10.36,2.22,13.24,3.2.82.25,1.48.41,2.14.41.82,0,1.4-.41,1.4-1.56h.99v12.08h-1.56c-1.72-6.58-7.07-11.1-14.39-11.1-6.66,0-8.79,3.95-8.87,6.82,0,10.27,26.88,14.8,26.88,31.81Z"/></g><path d="m71.73,60.27c-9.43,3.74-22.27-1.43-28.73-11.6-1.51-2.37-2.53-5.11-3.82-7.65-1-1.98-.27-2.86,1.37-3.45,5.98-2.14,11.79-1.56,17.3,2.57,6.68,5,10.8,12.12,13.87,20.13Z"/><path d="m38.24,78.89c-9.47-9.13-10.8-23.81-3.2-33.92,12.04,6.05,10.72,23.01,3.2,33.92Z"/><path d="m57.01,93.33c-10.47-6.45-13.88-20.81-7.93-32.84,10.77,2.23,14.65,17.96,7.93,32.84Z"/></svg>