<?xml version="1.0" encoding="UTF-8"?>
<svg id="Layer_1" data-name="Layer 1" xmlns="http://www.w3.org/2000/svg" xmlns:xlink="http://www.w3.org/1999/xlink" viewBox="0 0 1596 540">
  <defs>
    <style>
      .cls-1 {
        fill: url(#linear-gradient-3);
      }

      .cls-2 {
        fill: url(#linear-gradient-2);
      }

      .cls-3 {
        fill: #231f20;
      }

      .cls-4 {
        fill: url(#linear-gradient);
      }
    </style>
    <linearGradient id="linear-gradient" x1="580.91" y1="-1030.78" x2="742.11" y2="-788.17" gradientTransform="translate(-294.81 1183.87) rotate(1.09)" gradientUnits="userSpaceOnUse">
      <stop offset="0" stop-color="#fff" stop-opacity="0"/>
      <stop offset=".4" stop-color="#817f80" stop-opacity=".57"/>
      <stop offset=".79" stop-color="#231f20"/>
    </linearGradient>
    <linearGradient id="linear-gradient-2" x1="-1136.73" y1="3355.08" x2="-997.11" y2="3610.71" gradientTransform="translate(2670.53 3127.87) rotate(121.52)" xlink:href="#linear-gradient"/>
    <linearGradient id="linear-gradient-3" x1="3427.49" y1="2627.85" x2="3588.68" y2="2870.45" gradientTransform="translate(-534.17 4624.66) rotate(-118.17)" xlink:href="#linear-gradient"/>
  </defs>
  <g>
    <path id="Path_36394" data-name="Path 36394" class="cls-4" d="M441.92,438.72c-88.16-72.73-132.26-189.28-112.56-301.83,14.51,98.44,76.52,186.84,164.86,233.85l-52.3,67.98Z"/>
    <path id="Path_36394-2" data-name="Path 36394" class="cls-2" d="M103.01,363.38c107.36-39.19,230.19-18.18,317.26,55.81-92.23-37.34-199.86-28.64-285.14,23.72l-32.13-79.53Z"/>
    <path id="Path_36394-3" data-name="Path 36394" class="cls-1" d="M336.8,109.49c-20.35,112.46-100.46,207.91-208.28,245.74,78.78-60.78,125.58-158.09,123.41-258.14l84.87,12.4Z"/>
  </g>
  <g>
    <path class="cls-3" d="M587.59,260c0,18.86-16.71,30.66-46.3,30.66h-36.03v-111.6h36.94c25.6,0,38.63,9.96,38.63,26.06,0,14.87-13.03,23.76-26.98,26.52v.31c18.86,1.23,33.73,11.04,33.73,28.05ZM538.38,181.51h-17.48v50.44h19.78c15.02,0,23.61-11.04,23.61-25.14s-7.97-25.29-25.91-25.29ZM570.42,262.14c0-16.56-10.27-27.75-27.13-27.75h-22.38v52.73c3.22.77,11.8,1.07,15.79,1.07,23.45,0,33.73-9.66,33.73-26.06Z"/>
    <path class="cls-3" d="M612.27,244.21v2.76c0,25.45,12.42,38.94,28.97,38.94,9.2,0,20.08-4.6,27.13-14.72l1.84,1.07c-8.74,13.34-20.85,20.24-35.26,20.24-21.92,0-38.17-16.4-38.17-41.24,0-26.52,17.63-43.84,41.24-43.84,22.07,0,33.42,15.18,33.11,36.79h-58.87ZM612.42,241.76h44.76c.92-19.32-7.36-32.04-20.39-32.04s-22.84,13.34-24.37,32.04Z"/>
    <path class="cls-3" d="M800.52,260c0,18.86-16.71,30.66-46.3,30.66h-36.03v-111.6h36.94c25.6,0,38.63,9.96,38.63,26.06,0,14.87-13.03,23.76-26.98,26.52v.31c18.86,1.23,33.73,11.04,33.73,28.05ZM751.31,181.51h-17.48v50.44h19.78c15.02,0,23.61-11.04,23.61-25.14s-7.97-25.29-25.91-25.29ZM783.35,262.14c0-16.56-10.27-27.75-27.13-27.75h-22.38v52.73c3.22.77,11.8,1.07,15.79,1.07,23.45,0,33.73-9.66,33.73-26.06Z"/>
    <path class="cls-3" d="M886.68,287.74l-13.64,4.29-4.29-13.34v-.31c-7.51,8.13-17.63,14.1-29.43,14.1-17.02,0-26.21-9.2-26.21-28.82v-51.97l13.95-4.14h.61v56.41c0,6.29,0,23.15,17.94,23.15,7.67,0,16.4-4.75,23.15-12.26v-63.16l13.95-4.14h.61v69.14l3.37,11.04Z"/>
    <path class="cls-3" d="M895.87,285.14l2.3-7.82c6.29,7.36,16.1,13.03,28.21,13.03s19.93-6.44,19.93-15.64c0-9.81-9.35-13.8-19.01-17.78l-6.29-2.61c-9.96-4.29-23.61-9.96-23.61-24.53,0-12.88,11.04-22.38,28.51-22.38,10.88,0,21.15,3.37,26.52,6.44l-2.15,7.2c-5.37-5.21-14.87-11.5-25.75-11.5s-17.32,6.44-17.32,13.95c0,9.66,10.58,13.49,19.16,17.17l6.13,2.61c9.66,3.99,23.61,9.81,23.61,24.99,0,13.95-11.65,24.22-31.27,24.22-10.27,0-22.07-2.91-28.97-7.36Z"/>
    <path class="cls-3" d="M965.32,184.27l10.42-10.42,10.42,10.42-10.42,10.42-10.42-10.42ZM968.54,211.71l13.8-4.14h.61v83.09h-14.41v-78.95Z"/>
    <path class="cls-3" d="M1071.56,236.39v54.27h-14.56v-54.57c0-6.29,0-23.15-17.94-23.15-7.97,0-15.64,3.22-23.45,10.88v66.84h-14.56v-78.95l13.95-4.14h.61v13.18c8.58-8.28,17.48-13.34,29.74-13.34,17.02,0,26.21,9.2,26.21,28.97Z"/>
    <path class="cls-3" d="M1099.92,244.21v2.76c0,25.45,12.42,38.94,28.97,38.94,9.2,0,20.08-4.6,27.13-14.72l1.84,1.07c-8.74,13.34-20.85,20.24-35.26,20.24-21.92,0-38.17-16.4-38.17-41.24,0-26.52,17.63-43.84,41.24-43.84,22.07,0,33.42,15.18,33.11,36.79h-58.87ZM1100.07,241.76h44.76c.92-19.32-7.36-32.04-20.39-32.04s-22.84,13.34-24.37,32.04Z"/>
    <path class="cls-3" d="M1166.3,285.14l2.3-7.82c6.29,7.36,16.1,13.03,28.21,13.03s19.93-6.44,19.93-15.64c0-9.81-9.35-13.8-19.01-17.78l-6.29-2.61c-9.96-4.29-23.61-9.96-23.61-24.53,0-12.88,11.04-22.38,28.51-22.38,10.88,0,21.15,3.37,26.52,6.44l-2.15,7.2c-5.37-5.21-14.87-11.5-25.75-11.5s-17.32,6.44-17.32,13.95c0,9.66,10.58,13.49,19.16,17.17l6.13,2.61c9.66,3.99,23.61,9.81,23.61,24.99,0,13.95-11.65,24.22-31.27,24.22-10.27,0-22.07-2.91-28.97-7.36Z"/>
    <path class="cls-3" d="M1233.14,285.14l2.3-7.82c6.29,7.36,16.1,13.03,28.21,13.03s19.93-6.44,19.93-15.64c0-9.81-9.35-13.8-19.01-17.78l-6.29-2.61c-9.96-4.29-23.61-9.96-23.61-24.53,0-12.88,11.04-22.38,28.51-22.38,10.88,0,21.15,3.37,26.52,6.44l-2.15,7.2c-5.37-5.21-14.87-11.5-25.75-11.5s-17.32,6.44-17.32,13.95c0,9.66,10.58,13.49,19.16,17.17l6.13,2.61c9.66,3.99,23.61,9.81,23.61,24.99,0,13.95-11.65,24.22-31.27,24.22-10.27,0-22.07-2.91-28.97-7.36Z"/>
    <path class="cls-3" d="M1355.32,181.82v51.2h5.52c16.56,0,27.44-1.07,32.19-3.07h.31v9.5h-.31c-4.75-1.99-15.64-3.68-32.19-3.68h-5.52v54.88h-15.64v-111.6h61.63l1.99,9.66h-.31c-14.1-4.75-28.51-6.9-41.7-6.9h-5.98Z"/>
    <path class="cls-3" d="M1410.36,184.27l10.42-10.42,10.42,10.42-10.42,10.42-10.42-10.42ZM1413.58,211.71l13.8-4.14h.61v83.09h-14.41v-78.95Z"/>
    <path class="cls-3" d="M1492.99,285.29c-6.44,4.29-12.88,7.2-21.46,7.2-18.86,0-19.93-14.41-19.93-21v-58.87h-11.8v-2.61l11.19-.77,14.56-26.06h.61v26.06h26.21l-1.99,3.37h-24.22v58.56c0,4.45,0,16.1,12.42,16.1,3.53,0,8.13-.92,13.18-3.83l1.23,1.84Z"/>
  </g>
</svg>