<?xml version="1.0" encoding="UTF-8"?>
<svg id="Layer_1" data-name="Layer 1" xmlns="http://www.w3.org/2000/svg" viewBox="0 0 4052.47 961.1">
  <defs>
    <style>
      .cls-1 {
        fill: #233038;
      }

      .cls-2 {
        fill: #6e6333;
      }

      .cls-3 {
        fill: #fff;
      }

      .cls-4 {
        fill: #cb5e2d;
      }
    </style>
  </defs>
  <g>
    <path id="Path_36292" data-name="Path 36292" class="cls-1" d="M1249.1,254.19c0-135.99,92.28-233.13,202.17-233.13,42.5,0,74.67,14.55,87.42,14.55s12.73-16.37,25.5-16.37c9.7,0,15.18,7.9,24.89,30.96l18.83,47.96c11.53,27.93,17,35.82,17,46.14.19,7.85-6.03,14.36-13.88,14.55-.03,0-.06,0-.09,0-6.68,0-12.14-4.85-20.04-14.55-44.92-57.66-83.78-86.82-131.13-86.82-81.97,0-144.5,78.93-144.5,184.57,0,107.46,63.17,183.94,154.82,183.94,52.2,0,97.74-24.89,128.7-69.81,3.64-4.85,8.49-11.54,17.61-11.54,8.33.29,14.85,7.27,14.56,15.6,0,.06,0,.12,0,.19-.6,7.3-2.89,14.37-6.68,20.63-21.85,39.46-83.78,91.07-171.2,91.07-106.22,0-203.97-79.51-203.97-217.96"/>
    <path id="Path_36293" data-name="Path 36293" class="cls-1" d="M1980.65,450.9c0,7.89-7.29,11.53-16.39,11.53-16.39,0-28.53-1.82-52.81-1.82-25.49,0-35.81,1.82-52.2,1.82-10.93,0-17.61-5.46-17.61-12.75,0-21.86,40.68-7.29,40.68-44.32-.11-5.28-.51-10.55-1.21-15.78l-14.55-105.62c-4.85-30.96-16.39-81.97-63.75-81.97-36.42,0-75.89,29.15-75.89,91.07v102.61c0,49.17,38.85,31.57,38.85,54.63.14,6.58-5.09,12.03-11.67,12.17-.38,0-.76,0-1.13-.03-13.35,0-31.57-1.82-53.43-1.82s-38.26,1.82-51.6,1.82c-6.97.72-13.19-4.35-13.91-11.32-.03-.28-.05-.55-.06-.83,0-23.06,38.26-5.46,38.26-54.63V90.89c0-37.64-43.11-17-43.11-40.68,0-9.7,10.31-16.99,42.5-32.17,30.99-14.57,37.05-16.39,43.73-16.39,8.53,0,11.54,7.29,11.54,15.78v197.32c19.43-31.57,51-58.9,97.14-58.9,73.46,0,90.46,70.42,97.14,120.21l15.18,113.53c7.89,57.06,44.32,37.03,44.32,61.32"/>
    <path id="Path_36294" data-name="Path 36294" class="cls-1" d="M2235.64,183.16c0,9.11-3.64,24.28-10.93,51-3.03,10.32-7.89,16.39-16.39,16.39-7.89,0-11.53-6.68-15.18-16.39-7.89-18.82-15.79-27.92-28.56-27.92-29.13,0-79.53,46.74-79.53,131.73v57.66c0,49.17,47.36,29.75,47.36,54.64-.16,6.89-5.88,12.33-12.76,12.17-.2,0-.4-.01-.6-.03-15.18,0-36.42-1.82-61.32-1.82-21.25,0-38.26,1.82-51,1.82-10.32,0-14.55-6.68-14.55-12.14,0-23.07,38.26-5.46,38.26-54.64v-148.73c0-37.64-43.11-17-43.11-40.67,0-9.7,10.92-16.4,42.5-31.57,30.95-15.18,37.64-17,42.5-17,9.7,0,12.74,7.89,12.74,21.25v62.51c20.04-51.61,64.36-86.22,107.46-86.22,25.51,0,43.11,12.75,43.11,27.93"/>
    <path id="Path_36295" data-name="Path 36295" class="cls-1" d="M2252.64,450.28c0-23.06,38.26-5.46,38.26-54.63v-148.73c0-37.64-43.11-17-43.11-40.67,0-9.7,10.93-16.39,42.5-31.57,30.96-15.18,37.64-17,42.5-17,9.7,0,12.75,7.9,12.75,21.25v216.72c0,49.17,39.46,31.57,39.46,54.63-.16,6.88-5.87,12.33-12.75,12.17-.2,0-.4-.01-.6-.03-13.35,0-31.57-1.83-53.43-1.83s-38.26,1.83-50.99,1.83c-7.06.92-13.53-4.05-14.46-11.12-.04-.34-.08-.69-.09-1.03M2269.07,61.74c0-23.07,23.07-48.57,53.42-48.57,18.21,0,34,11.53,34,30.96,0,23.07-24.9,48.57-55.25,48.57-16.86.89-31.25-12.06-32.14-28.92-.04-.68-.05-1.36-.04-2.04"/>
    <path id="Path_36296" data-name="Path 36296" class="cls-1" d="M2423.83,449.71l-18.21-38.85c-10.93-22.46-16.39-30.96-16.39-38.85-.79-6.22,3.61-11.9,9.83-12.69.77-.1,1.54-.12,2.31-.06,6.07,0,12.75,5.46,18.82,11.53,38.85,38.85,81.37,65.57,126.28,65.57,40.07,0,64.96-22.46,64.96-50.39,0-34-33.41-41.28-88.64-54.03-58.9-14.55-125.06-33.41-125.06-93.49,0-46.14,40.68-82.56,101.99-82.56,34,0,60.1,10.93,69.82,10.93,10.32,0,10.32-12.14,21.85-12.14,10.33,0,15.79,9.11,22.46,20.64l20.04,32.79c6.68,10.92,13.36,23.67,13.36,30.35.26,6.44-4.76,11.88-11.2,12.13-.11,0-.22,0-.33,0-6.07,0-12.76-6.07-18.82-11.53-30.97-28.53-72.24-52.21-111.71-52.21-32.18,0-52.21,16.39-52.21,38.85,0,30.96,28.53,37.64,88.63,52.21,63.14,15.78,125.07,34,125.07,98.96,0,55.25-49.18,90.46-118.99,90.46-41.29,0-69.21-13.35-78.93-13.35-11.53,0-12.75,15.18-26.1,15.18-9.7,0-14.55-10.32-18.82-19.43"/>
    <path id="Path_36297" data-name="Path 36297" class="cls-1" d="M2884.63,409.61c0,7.29-4.26,15.19-12.14,23.68-21.86,23.08-51.61,34-84.39,34-46.75,0-79.53-26.1-79.53-57.07,0-12.75,1.21-59.49,1.21-101.39v-114.14h-39.46c-10.93,0-17.61-4.85-17.61-13.96,0-7.9,6.08-12.75,15.79-17,36.42-15.19,52.81-37.03,66.78-92.27,5.46-15.79,9.11-23.08,18.21-23.08,6.67,0,10.93,4.85,10.93,15.79v98.34h103.81c6.67,0,10.31,3.04,10.31,8.5-.27,4.69-.87,9.36-1.82,13.96-.26,5.62-5.02,9.97-10.64,9.72-.09,0-.19,0-.28-.02h-101.4v176.06c0,44.93,17.6,58.28,42.5,58.28s38.85-14.55,50.99-24.89c3.72-4.32,8.9-7.13,14.55-7.89,6.89.15,12.36,5.85,12.21,12.74,0,.21-.01.43-.03.64"/>
    <path id="Path_36298" data-name="Path 36298" class="cls-1" d="M2900.4,450.28c0-23.06,38.26-5.46,38.26-54.63v-148.73c0-37.64-43.11-17-43.11-40.67,0-9.7,10.93-16.39,42.5-31.57,30.95-15.18,37.64-17,42.5-17,9.7,0,12.74,7.9,12.74,21.25v216.72c0,49.17,39.46,31.57,39.46,54.63-.16,6.89-5.87,12.34-12.76,12.17-.2,0-.39-.01-.59-.03-13.36,0-31.57-1.83-53.43-1.83s-38.26,1.83-51,1.83c-7.06.92-13.53-4.05-14.46-11.12-.04-.34-.08-.69-.09-1.03M2916.83,61.74c0-23.07,23.08-48.57,53.43-48.57,18.21,0,34,11.53,34,30.96,0,23.07-24.89,48.57-55.25,48.57-16.86.89-31.25-12.07-32.14-28.93-.04-.68-.05-1.36-.04-2.03"/>
    <path id="Path_36299" data-name="Path 36299" class="cls-1" d="M3319.3,397.47c-.56,5.23-2.44,10.24-5.46,14.55-22.46,32.18-75.28,59.49-128.1,59.49-82.56,0-152.38-57.66-152.38-159.06,0-95.32,69.82-161.49,149.35-161.49,74.67,0,124.46,57.07,124.46,116.56,0,12.75-3.64,16.39-12.75,19.43l-194.88,58.31c16.39,49.78,55.85,84.99,106.25,84.99,32.59.23,63.73-13.46,85.59-37.64,6.07-6.07,10.93-9.11,15.78-9.11,7.19.48,12.63,6.71,12.15,13.9,0,.02,0,.04,0,.06M3090.42,290.01c-.02,8.13.59,16.25,1.82,24.28l140.24-43.71c10.93-3.03,13.97-6.07,13.97-16.4,0-30.35-28.56-67.99-71.65-67.99-47.96,0-84.39,41.28-84.39,103.81"/>
    <path id="Path_36300" data-name="Path 36300" class="cls-1" d="M1626.85,939.18c0,7.32-5.07,11.86-14.08,11.86-9.58,0-34.35-1.69-56.31-1.69-20.27,0-42.23,1.69-56.31,1.69-10.7,0-16.33-3.94-16.33-11.86,0-17.45,29.85-12.39,29.85-30.97,0-7.32-4.51-14.08-10.14-21.4l-55.76-73.21c-5-7.82-13.82-12.35-23.09-11.86-21,1.13-42.05,1.13-63.05,0-11.27-.54-14.08,3.38-14.08,12.39v79.97c0,37.72,38.3,23.65,38.3,45.62,0,6.19-3.94,11.26-14.08,11.26-12.39,0-31.55-1.69-52.94-1.69s-38.3,1.69-51.25,1.69c-9.61.02-14.1-5.05-14.1-11.21,0-21.97,37.72-7.88,37.72-45.62v-287.77c0-37.72-37.72-24.22-37.72-46.18,0-5.63,3.94-11.26,14.64-11.26,11.86,0,29.85,1.68,49.58,1.68,23.66,0,58.01-2.81,87.3-2.81,123.85-.03,186.37,53.47,186.37,130.06,0,59.13-37.72,101.94-95.18,117.14l69.27,91.79c29.85,39.43,61.39,31.54,61.39,52.37M1528.85,677.87c0-63.64-52.37-98.55-125.02-98.55-42.23,0-56.31,6.19-56.31,28.72v144.74c0,15.77,9.58,19.71,56.88,19.71,70.4,0,124.48-17.46,124.48-94.61"/>
    <path id="Path_36301" data-name="Path 36301" class="cls-1" d="M1882.49,890.75c-.52,4.86-2.26,9.52-5.07,13.52-20.83,29.83-69.83,55.16-118.83,55.16-76.59,0-141.36-53.51-141.36-147.55,0-88.42,64.76-149.81,138.54-149.81,69.27,0,115.45,52.94,115.45,108.13,0,11.86-3.38,15.21-11.82,18.03l-180.78,54.09c15.2,46.18,51.81,78.85,98.55,78.85,30.24.21,59.13-12.49,79.41-34.92,3.58-4.63,8.84-7.66,14.64-8.45,6.68.45,11.72,6.23,11.26,12.91v.03M1670.17,791.03c-.02,7.54.55,15.08,1.69,22.53l130.11-40.52c10.13-2.82,12.93-5.63,12.93-15.21,0-28.16-26.47-63.05-66.46-63.05-44.49,0-78.28,38.3-78.28,96.31"/>
    <path id="Path_36302" data-name="Path 36302" class="cls-1" d="M1945.53,939.18l-16.89-36.05c-10.14-20.83-15.21-28.72-15.21-36.05-.73-5.77,3.36-11.04,9.13-11.77.71-.09,1.43-.11,2.14-.05,5.63,0,11.86,5.07,17.45,10.7,36.05,36.05,75.45,60.82,117.14,60.82,37.18,0,60.26-20.84,60.26-46.74,0-31.54-30.98-38.3-82.22-50.12-54.63-13.51-116.01-30.98-116.01-86.72,0-42.8,37.72-76.6,94.61-76.6,31.54,0,55.75,10.14,64.76,10.14,9.57,0,9.57-11.26,20.27-11.26,9.58,0,14.64,8.44,20.83,19.15l18.59,30.41c6.2,10.14,12.39,21.96,12.39,28.16.24,5.97-4.42,11.01-10.39,11.24-.1,0-.2,0-.31,0-5.63,0-11.86-5.63-17.46-10.7-28.74-26.47-67-48.46-103.61-48.46-29.85,0-48.44,15.2-48.44,36.05,0,28.72,26.47,34.91,82.23,48.43,58.56,14.68,115.99,31.56,115.99,91.82,0,51.25-45.62,83.91-110.39,83.91-38.29,0-64.2-12.39-73.21-12.39-10.7,0-11.86,14.08-24.21,14.08-9.01,0-13.52-9.57-17.46-18.03"/>
    <path id="Path_36303" data-name="Path 36303" class="cls-1" d="M2187.12,939.75c0-21.4,35.48-5.08,35.48-50.69v-137.96c0-34.91-39.98-15.76-39.98-37.72,0-9,10.14-15.21,39.41-29.28,28.72-14.08,34.93-15.77,39.43-15.77,9.01,0,11.86,7.32,11.86,19.71v201.05c0,45.61,36.61,29.28,36.61,50.69-.15,6.39-5.45,11.44-11.84,11.28-.19,0-.37-.01-.56-.03-12.39,0-29.28-1.69-49.58-1.69s-35.48,1.69-47.31,1.69c-6.55.87-12.56-3.74-13.42-10.29-.04-.32-.07-.65-.09-.97M2202.32,579.35c0-21.4,21.4-45.06,49.58-45.06,16.9,0,31.55,10.7,31.55,28.73,0,21.4-23.1,45.05-51.25,45.05-15.65.82-28.99-11.2-29.81-26.84-.03-.63-.04-1.25-.04-1.88"/>
    <path id="Path_36304" data-name="Path 36304" class="cls-1" d="M2642.71,917.22c0,9.57-10.7,15.21-42.24,26.47-27.03,10.14-34.35,11.86-38.29,11.86-11.86,0-11.86-12.93-11.86-20.28v-30.97c-22.79,33.44-60.91,53.13-101.37,52.37-68.14,0-127.84-52.94-127.84-141.92s60.82-149.81,140.79-149.81c38.3,0,68.14,13.52,88.42,33.23v-92.38c0-34.91-45.62-15.21-45.62-38.29,0-9.01,10.14-14.65,41.68-28.73,27.6-12.39,38.3-15.2,42.24-15.2,9.57,0,12.39,9.01,12.39,19.71v330.57c0,34.35,41.68,21.97,41.68,43.36M2550.32,832.17v-35.48c0-64.2-49-102.5-90.67-102.5-54.06,0-85.04,45.62-85.04,104.19,0,75.45,47.87,119.39,94.05,119.39,38.86,0,81.66-27.6,81.66-85.6"/>
    <path id="Path_36305" data-name="Path 36305" class="cls-1" d="M2914.69,890.75c-.52,4.86-2.27,9.52-5.08,13.52-20.83,29.83-69.83,55.16-118.82,55.16-76.59,0-141.35-53.51-141.35-147.55,0-88.42,64.76-149.81,138.54-149.81,69.26,0,115.45,52.94,115.45,108.13,0,11.86-3.38,15.21-11.86,18.03l-180.77,54.06c15.2,46.18,51.81,78.85,98.55,78.85,30.24.22,59.13-12.49,79.41-34.92,3.59-4.63,8.85-7.66,14.65-8.45,6.68.45,11.72,6.24,11.27,12.91,0,0,0,.01,0,.02M2702.35,791c-.02,7.54.55,15.08,1.69,22.53l130.09-40.55c10.14-2.82,12.93-5.63,12.93-15.21,0-28.16-26.47-63.05-66.46-63.05-44.49,0-78.28,38.3-78.28,96.31"/>
    <path id="Path_36306" data-name="Path 36306" class="cls-1" d="M3261.01,939.75c0,7.88-6.76,11.26-15.77,11.26-14.64,0-26.47-1.69-48.99-1.69s-33.23,1.69-48.43,1.69c-10.14,0-15.77-5.07-15.77-11.86,0-20.27,37.72-6.75,37.72-41.67,0-4.51-1.13-11.26-1.69-16.89l-13.51-95.13c-4.51-28.72-14.64-76.03-59.13-76.03-33.79,0-70.39,27.04-70.39,84.48v95.18c0,45.61,36.6,29.28,36.6,50.69-.15,6.38-5.45,11.43-11.83,11.28-.19,0-.38-.01-.57-.03-12.39,0-29.28-1.69-49.58-1.69s-35.48,1.69-47.31,1.69c-6.55.87-12.56-3.73-13.43-10.28-.04-.33-.07-.65-.09-.98,0-21.4,35.48-5.08,35.48-50.69v-137.96c0-34.91-39.98-15.76-39.98-37.72,0-9,10.14-15.21,39.42-29.28,28.72-14.08,34.92-15.77,39.43-15.77,9.01,0,11.83,7.32,11.83,19.71v33.23c18.02-29.28,47.3-54.63,90.66-54.63,67.02,0,83.36,65.34,89.55,111.51l14.65,105.32c6.75,52.94,41.11,34.35,41.11,56.31"/>
    <path id="Path_36307" data-name="Path 36307" class="cls-1" d="M3450.21,902.02c0,6.76-3.94,14.08-11.26,21.97-20.53,21.01-48.92,32.45-78.29,31.54-43.36,0-73.77-24.22-73.77-52.94,0-11.86,1.13-55.19,1.13-94.05v-105.9h-36.61c-10.14,0-16.33-4.5-16.33-12.93,0-7.32,5.63-11.86,14.64-15.77,33.79-14.08,49-34.35,61.97-85.6,5.07-14.65,8.45-21.4,16.89-21.4,6.2,0,10.15,4.51,10.15,14.64v91.23h96.3c6.2,0,9.58,2.82,9.58,7.88-.25,4.35-.82,8.67-1.69,12.93-.24,5.22-4.67,9.26-9.9,9.02-.08,0-.16,0-.25-.01h-94.07v163.34c0,41.68,16.33,54.07,39.41,54.07s36.05-13.52,47.31-23.1c3.45-4.02,8.27-6.62,13.52-7.32,6.39.16,11.44,5.46,11.28,11.85,0,.18-.01.36-.03.55"/>
    <path id="Path_36308" data-name="Path 36308" class="cls-1" d="M3475.52,939.75c0-21.4,35.48-5.08,35.48-50.69v-137.96c0-34.91-39.98-15.76-39.98-37.72,0-9,10.14-15.21,39.42-29.28,28.72-14.08,34.93-15.77,39.43-15.77,9.02,0,11.86,7.32,11.86,19.71v201.05c0,45.61,36.61,29.28,36.61,50.69-.15,6.39-5.45,11.44-11.84,11.28-.19,0-.37-.01-.56-.03-12.39,0-29.28-1.69-49.58-1.69s-35.48,1.69-47.31,1.69c-6.55.87-12.56-3.74-13.43-10.28-.04-.32-.07-.65-.09-.98M3490.74,579.35c0-21.4,21.4-45.06,49.58-45.06,16.89,0,31.53,10.7,31.53,28.73,0,21.4-23.08,45.05-51.24,45.05-15.65.82-29-11.19-29.82-26.84-.03-.63-.05-1.26-.04-1.88"/>
    <path id="Path_36309" data-name="Path 36309" class="cls-1" d="M3916.48,926.23c0,10.7-21.4,27.6-47.86,27.6-23.1,0-43.36-13.52-51.81-42.8-21.97,25.91-58.57,44.49-103.06,44.49-58.01,0-95.74-34.35-95.74-83.91s42.8-88.42,114.32-88.42c22.74.22,45.33,3.82,67.01,10.7l-1.12-7.32c-8.45-62.51-30.42-81.66-67.58-81.66-25.33,0-48.43,13.52-68.71,32.1-3.82,3.74-8.77,6.11-14.08,6.76-6.22-.01-11.25-5.05-11.26-11.27,0-5.63,3.38-10.7,9.01-18.02,18.59-25.9,59.69-48.44,101.93-48.44,72.65,0,90.67,50.12,98.56,104.76l14.08,94.61c5.63,42.24,18.02,46.75,47.3,52.37,6.2,1.13,9.01,3.94,9.01,8.45M3811.17,878.92l-7.88-55.75c-19.06-7.31-39.28-11.12-59.7-11.26-47.3,0-72.08,21.4-72.08,55.18s24.22,54.63,59.13,54.63,64.2-20.27,80.53-42.8"/>
    <path id="Path_36310" data-name="Path 36310" class="cls-1" d="M3926.02,939.75c0-21.4,35.48-5.08,35.48-50.69v-282.71c0-34.91-39.99-15.77-39.99-37.72,0-9,9.58-15.77,39.43-29.85,28.72-13.52,34.35-15.2,39.42-15.2,9.02,0,11.86,7.32,11.86,19.71v345.79c0,45.61,36.04,29.28,36.04,50.69.13,6.1-4.7,11.15-10.8,11.28-.34,0-.68,0-1.02-.02-12.39,0-29.29-1.69-49.58-1.69s-35.48,1.69-47.88,1.69c-6.45.66-12.22-4.04-12.88-10.49-.03-.25-.04-.51-.05-.76"/>
  </g>
  <path id="Path_36467" data-name="Path 36467" class="cls-1" d="M1081.7,207.9v368.92c0,11.15-5.48,21.58-14.65,27.91l-251.31,173.31-.05-385.27-272.81-202.61L794.26,14.67c11.72-8.17,27.3-8.13,38.97.12l234.11,165.42c9,6.35,14.35,16.68,14.35,27.7"/>
  <path id="Path_36467-2" data-name="Path 36467" class="cls-4" d="M4.24,207.9v368.92c0,11.15,5.48,21.58,14.65,27.91l251.39,173.38-.04-385.26,272.81-202.7L291.68,14.67c-11.72-8.17-27.3-8.13-38.97.12L18.6,180.21c-9,6.35-14.35,16.68-14.35,27.7"/>
  <path id="Path_36470" data-name="Path 36470" class="cls-2" d="M815.71,778.04l-253.74,174.68c-10.14,6.92-23.53,6.95-33.7.07l-257.97-174.68,545.41-.07Z"/>
  <polygon class="cls-3" points="543.06 190.16 270.26 392.83 270.29 778.11 815.7 778.02 815.69 392.83 543.06 190.16"/>
</svg>