<?xml version="1.0" encoding="UTF-8"?>
<svg id="Layer_1" data-name="Layer 1" xmlns="http://www.w3.org/2000/svg" viewBox="0 0 1660 406">
  <defs>
    <style>
      .cls-1 {
        fill: #e2747c;
      }

      .cls-2 {
        fill: #2f3f24;
      }
    </style>
  </defs>
  <g>
    <path id="Path_35983" data-name="Path 35983" class="cls-2" d="M201.5,74.64v90.22h-106.13v-90.22h-35.37v214.2h35.37v-94.12h106.13v94.12h35.37V74.64h-35.37Z"/>
    <path id="Path_35984" data-name="Path 35984" class="cls-2" d="M329.37,293.06c-12.17.21-24.27-1.82-35.7-6-9.93-3.71-18.91-9.58-26.28-17.2-7.29-7.7-12.82-16.89-16.23-26.94-3.83-11.45-5.7-23.46-5.52-35.54-.12-12.39,1.74-24.71,5.52-36.51,3.38-10.58,8.71-20.44,15.74-29.05,6.85-8.25,15.51-14.8,25.31-19.15,21.14-8.74,44.82-9.09,66.21-.97,9.3,3.81,17.51,9.89,23.86,17.69,6.89,8.7,11.87,18.76,14.61,29.52,3.4,13.51,4.61,27.48,3.57,41.38l-132.09.97v-22.05l111.32-.97-12.33,13.63c1.54-10.81.43-21.84-3.23-32.13-2.87-7.69-8.09-14.28-14.93-18.82-6.71-4.17-14.49-6.31-22.39-6.17-8.83-.21-17.51,2.35-24.83,7.3-7.41,5.35-13.1,12.73-16.39,21.26-4.14,10.65-6.13,22.01-5.84,33.43,0,19.47,4.33,34.13,12.98,43.97,8.65,9.84,20.99,14.77,37,14.77,5.83.13,11.64-.69,17.2-2.43,4.37-1.41,8.44-3.61,12.01-6.49,3.25-2.71,5.95-6.01,7.95-9.74,2.05-3.78,3.74-7.74,5.03-11.84l30.83,7.14c-1.75,7.54-4.77,14.73-8.92,21.26-4.02,6.18-9.13,11.57-15.09,15.9-6.44,4.62-13.63,8.08-21.26,10.22-9.14,2.51-18.59,3.72-28.07,3.57"/>
    <path id="Path_35985" data-name="Path 35985" class="cls-2" d="M455.6,293.06c-8.63.15-17.18-1.68-24.99-5.35-7.27-3.49-13.32-9.09-17.36-16.07-4.47-8.14-6.65-17.33-6.33-26.61-.19-7.57,1.42-15.08,4.71-21.9,3.31-6.36,8.23-11.73,14.28-15.58,7.57-4.73,15.84-8.24,24.5-10.38,11.64-3.04,23.45-5.37,35.37-6.98,7.57-1.08,13.79-2.16,18.66-3.23,4-.64,7.72-2.45,10.71-5.19,2.49-2.99,3.71-6.83,3.41-10.71.11-7.1-2.64-13.95-7.63-19.01-5.09-5.3-13.25-7.95-24.5-7.95-6.36.01-12.67,1.11-18.66,3.23-6.1,2.12-11.57,5.75-15.9,10.55-4.77,5.57-7.86,12.38-8.92,19.63l-31.81-10.06c1.77-7.82,4.96-15.24,9.41-21.91,4.33-6.39,9.84-11.89,16.23-16.23,6.89-4.61,14.52-8.02,22.56-10.06,9.17-2.35,18.61-3.5,28.07-3.41,12.75-.46,25.43,2.11,37.01,7.48,9.68,4.92,17.41,12.99,21.91,22.88,5.29,12.45,7.79,25.91,7.3,39.43v34.4c0,7.14.16,14.66.49,22.56.33,7.9.76,15.79,1.3,23.69.54,7.9,1.24,15.42,2.11,22.56h-32.13c-.65-6.49-1.25-13.2-1.79-20.12-.54-6.92-1.03-13.95-1.46-21.1h-4.85c-3.02,8.21-7.35,15.88-12.82,22.72-5.53,6.94-12.51,12.59-20.45,16.55-8.85,4.27-18.58,6.39-28.4,6.17M467.96,265.79c4.69-.02,9.34-.79,13.79-2.27,4.95-1.66,9.65-4.01,13.95-6.98,4.91-3.38,9.29-7.49,12.98-12.17,4.29-5.46,7.83-11.46,10.55-17.85l-.32-30.51,8.44,1.62c-4.02,3.43-8.72,5.98-13.79,7.46-5.89,1.81-11.91,3.16-18.01,4.04-6.49.97-12.93,2.05-19.31,3.23-5.98,1.07-11.85,2.7-17.53,4.85-4.87,1.76-9.22,4.72-12.66,8.6-7.19,10.43-6.04,24.48,2.76,33.59,5.4,4.37,12.21,6.61,19.15,6.33"/>
    <rect id="Rectangle_23156" data-name="Rectangle 23156" class="cls-2" x="568.22" y="60.03" width="34.73" height="228.8"/>
    <path id="Path_35986" data-name="Path 35986" class="cls-2" d="M684.88,292.39c-16.66,0-29.05-4.54-37.16-13.63-8.11-9.09-12.17-23.04-12.17-41.86v-87.94h-24.99l.65-28.88h16.23c4.39.29,8.78-.66,12.66-2.76,3.11-2.37,5.01-5.99,5.19-9.9l3.23-24.99h21.1v37.65h46.41v29.52h-46.4v86.34c0,8.44,1.95,14.5,5.84,18.17,4.8,4,10.97,5.97,17.2,5.52,4.21-.01,8.4-.5,12.49-1.46,4.4-1.05,8.54-2.98,12.17-5.66v34.08c-5.82,1.99-11.79,3.51-17.85,4.54-4.83.81-9.71,1.25-14.61,1.3"/>
    <path id="Path_35987" data-name="Path 35987" class="cls-2" d="M726.42,288.84V60.03h35.71v52.57c0,4.55-.11,9.25-.32,14.12-.22,4.87-.65,9.79-1.3,14.77l-1.95,14.93c-.65,4.98-1.41,10.06-2.27,15.25h5.84c2.68-10.72,6.78-21.03,12.17-30.67,4.37-7.82,10.76-14.32,18.5-18.82,8.33-4.43,17.67-6.61,27.09-6.33,19.47,0,33.97,6.76,43.49,20.28,9.52,13.52,14.28,33.81,14.28,60.85v91.85h-35.71v-87.3c0-19.03-2.87-32.99-8.6-41.86-5.56-8.78-15.43-13.87-25.8-13.31-8.73-.28-17.25,2.73-23.86,8.44-6.8,6.24-11.97,14.03-15.09,22.72-3.88,10.43-6.29,21.36-7.14,32.45v78.85h-35.04Z"/>
    <path id="Path_35988" data-name="Path 35988" class="cls-2" d="M951.81,345.95c-8.78-.01-17.54-.94-26.13-2.76-8.4-1.72-16.53-4.55-24.18-8.44-7.12-3.6-13.42-8.62-18.5-14.77l14.28-27.9c5.89,7.55,13.75,13.34,22.72,16.71,9.61,3.79,19.85,5.72,30.18,5.66,10.53.41,20.96-2.24,30.02-7.63,8.38-5.7,14.69-13.95,18.01-23.53,4.49-12.82,6.68-26.33,6.49-39.92l2.92-32.45h-6.17c-1.61,12.88-5.4,25.39-11.2,37-4.18,8.34-10.66,15.32-18.66,20.12-7.98,4.26-16.92,6.39-25.96,6.17-11.06.39-21.95-2.86-30.99-9.25-8.95-7.05-15.52-16.68-18.82-27.59-4.56-14.53-6.7-29.72-6.33-44.95v-72.38h35.05v64.61c0,20.56,2.76,35.59,8.28,45.11,4.85,9.13,14.5,14.68,24.83,14.28,5.74.09,11.37-1.49,16.23-4.55,5.16-3.45,9.44-8.07,12.49-13.47,3.95-6.93,6.8-14.43,8.44-22.24,2.21-10.14,3.46-20.46,3.73-30.83v-52.89h35.37v124.95c.12,12.14-.96,24.26-3.23,36.19-1.86,9.85-5.2,19.37-9.9,28.23-4.16,7.77-9.71,14.7-16.39,20.45-6.69,5.62-14.48,9.77-22.88,12.17-9.66,2.72-19.66,4.03-29.7,3.89"/>
    <path id="Path_35989" data-name="Path 35989" class="cls-2" d="M1086.16,74.64h35.37v214.2h-35.37V74.64ZM1104.98,164.86h136.63v29.86h-136.63v-29.86ZM1227.66,74.64h35.37v214.2h-35.37V74.64Z"/>
    <path id="Path_35990" data-name="Path 35990" class="cls-2" d="M1277.8,288.84V74.64h78.54c10.23-.09,20.44.78,30.5,2.6,8.42,1.52,16.6,4.14,24.34,7.79,6.75,3.19,12.9,7.53,18.17,12.82,4.92,4.99,8.73,10.97,11.2,17.53,2.56,7.02,3.82,14.44,3.73,21.91.1,7.02-1.06,14-3.41,20.62-2.25,6.14-5.8,11.73-10.38,16.39-4.92,4.94-10.76,8.85-17.2,11.52-7.63,3.13-15.66,5.15-23.86,6v4.22c7.84.77,15.45,3.08,22.39,6.81,6.18,3.58,11.41,8.59,15.25,14.61,4.69,7.65,8.2,15.96,10.38,24.67l13.3,46.73h-38.62l-10.38-42.84c-1.67-7.61-5-14.75-9.74-20.93-4.26-5.25-9.87-9.23-16.23-11.52-7.41-2.53-15.22-3.74-23.05-3.57h-39.6v78.85h-35.35ZM1313.17,182.06h40.57c17.74,0,31.21-3.25,40.4-9.74,9.2-6.49,13.8-16.44,13.79-29.86,0-13.41-4.38-23.31-13.15-29.7-8.76-6.39-22.23-9.58-40.4-9.59h-41.22v78.88Z"/>
  </g>
  <g>
    <path id="Path_35975" data-name="Path 35975" class="cls-1" d="M1525.22,125.49l-3.61,2.51c-1.96,1.35-3.84,2.72-5.64,4.11-3.72.47-7.28.77-10.68.89,2.85-2.52,5.97-5.03,9.33-7.5-3.36-2.47-6.47-4.99-9.33-7.5-.78-.7-1.55-1.39-2.29-2.09-2.13-1.99-4.08-3.98-5.86-5.97-.58-.64-1.13-1.29-1.67-1.93-1.22-1.47-2.34-2.92-3.36-4.37-2.31-3.18-4.13-6.67-5.42-10.38-1.03-2.83-1.31-5.89-.81-8.86.7-3.94,3.79-7.03,7.73-7.73,2.97-.5,6.03-.22,8.86.81,3.71,1.29,7.2,3.11,10.38,5.42,1.44,1.01,2.9,2.13,4.37,3.36-.19,2.54-.26,5.2-.23,7.98-2.39-2.31-4.95-4.43-7.65-6.35-8.2-5.75-12.88-5.59-14.51-5.26-1.55.21-2.77,1.43-2.98,2.98-.34,1.62-.49,6.3,5.26,14.51,1.92,2.7,4.04,5.25,6.34,7.63.66.69,1.35,1.39,2.05,2.08,2.25,2.21,4.73,4.41,7.44,6.62.98.81,1.99,1.61,3.03,2.39,1.8,1.38,3.68,2.75,5.64,4.11l3.6,2.52Z"/>
    <path id="Path_35976" data-name="Path 35976" class="cls-1" d="M1542.22,154.91c-2.52-2.85-5.03-5.97-7.51-9.33-2.47,3.36-4.99,6.47-7.51,9.33-.7.78-1.39,1.55-2.08,2.29-1.99,2.13-3.98,4.08-5.97,5.86-.64.57-1.29,1.13-1.92,1.67-1.47,1.23-2.92,2.35-4.37,3.36-3.18,2.31-6.67,4.13-10.38,5.42-2.83,1.03-5.89,1.31-8.86.81-3.94-.7-7.03-3.79-7.73-7.73-.5-2.97-.22-6.03.81-8.86,1.29-3.71,3.11-7.2,5.42-10.38,1.01-1.45,2.13-2.9,3.36-4.37,2.12.16,4.33.24,6.62.24h1.36c-2.3,2.38-4.42,4.93-6.34,7.63-5.75,8.2-5.59,12.88-5.26,14.51.21,1.55,1.43,2.77,2.98,2.98,1.62.34,6.3.49,14.51-5.26,2.7-1.92,5.26-4.04,7.64-6.34.69-.66,1.39-1.34,2.08-2.05,2.21-2.25,4.41-4.73,6.62-7.44.81-.98,1.61-1.99,2.39-3.03,1.38-1.8,2.75-3.68,4.11-5.64l2.51-3.61,2.51,3.61c1.35,1.96,2.72,3.84,4.11,5.64.48,3.73.77,7.28.89,10.68"/>
    <path id="Path_35977" data-name="Path 35977" class="cls-1" d="M1583.53,166.58c-.7,3.94-3.79,7.03-7.73,7.73-.89.18-1.79.27-2.69.26-2.1-.03-4.18-.4-6.17-1.08-3.71-1.29-7.2-3.11-10.38-5.42-1.44-1.01-2.9-2.13-4.37-3.36.19-2.54.26-5.2.23-7.98,2.38,2.3,4.94,4.42,7.64,6.34,8.2,5.75,12.88,5.59,14.51,5.26,1.55-.21,2.77-1.43,2.98-2.98.34-1.62.49-6.3-5.26-14.51-1.92-2.7-4.03-5.25-6.33-7.63-.66-.69-1.35-1.39-2.06-2.09-2.25-2.2-4.74-4.42-7.44-6.62-.98-.81-1.99-1.61-3.03-2.39-1.8-1.38-3.68-2.75-5.64-4.11l-3.61-2.51,3.61-2.51c1.96-1.35,3.84-2.72,5.64-4.11,3.72-.47,7.28-.77,10.68-.89-2.85,2.52-5.97,5.03-9.33,7.5,3.36,2.47,6.47,4.99,9.33,7.5.78.7,1.55,1.39,2.29,2.09,2.13,1.99,4.08,3.98,5.86,5.97.58.64,1.13,1.29,1.67,1.93,1.22,1.47,2.34,2.92,3.36,4.37,2.31,3.18,4.13,6.67,5.42,10.38,1.03,2.83,1.31,5.89.81,8.86"/>
    <path id="Path_35978" data-name="Path 35978" class="cls-1" d="M1582.71,93.26c-1.29,3.71-3.11,7.2-5.42,10.38-1.01,1.44-2.13,2.9-3.36,4.37-2.12-.16-4.33-.24-6.62-.24h-1.36c2.3-2.38,4.42-4.93,6.33-7.63,5.75-8.2,5.59-12.88,5.26-14.51-.21-1.55-1.43-2.77-2.98-2.98-1.62-.34-6.3-.49-14.51,5.26-2.7,1.92-5.26,4.04-7.64,6.34-.69.66-1.39,1.34-2.08,2.05-2.21,2.25-4.41,4.73-6.62,7.44-.81.98-1.61,1.99-2.39,3.03-1.38,1.8-2.75,3.68-4.11,5.64l-2.51,3.61-2.51-3.61c-1.35-1.96-2.72-3.84-4.11-5.64-.48-3.73-.77-7.28-.89-10.68,2.52,2.85,5.03,5.97,7.51,9.33,2.47-3.36,4.99-6.47,7.51-9.33.7-.78,1.39-1.55,2.08-2.29,1.99-2.13,3.98-4.08,5.97-5.86.64-.58,1.29-1.13,1.92-1.67,1.47-1.23,2.92-2.35,4.37-3.36,3.18-2.31,6.67-4.13,10.38-5.42,2.83-1.03,5.89-1.31,8.86-.81,3.94.7,7.03,3.79,7.73,7.73.5,2.97.22,6.03-.81,8.86"/>
    <path id="Path_35979" data-name="Path 35979" class="cls-1" d="M1528,132.2l-.78,4.32c-.42,2.35-.78,4.64-1.08,6.89-2.3,2.97-4.61,5.71-6.92,8.18.23-3.8.66-7.78,1.29-11.91-4.12.63-8.09,1.06-11.91,1.29-1.05.06-2.08.11-3.09.15-2.92.1-5.71.07-8.37-.08-.86-.05-1.71-.11-2.54-.18-1.9-.17-3.72-.41-5.46-.72-3.87-.62-7.64-1.8-11.17-3.51-2.73-1.27-5.09-3.23-6.84-5.69-2.28-3.28-2.28-7.64,0-10.92,1.75-2.46,4.11-4.42,6.84-5.69,3.53-1.71,7.29-2.89,11.17-3.51,1.74-.31,3.56-.55,5.47-.72,1.66,1.92,3.48,3.86,5.48,5.8-3.31.05-6.62.36-9.89.91-9.86,1.74-13.06,5.16-13.97,6.55-.95,1.24-.95,2.97,0,4.21.91,1.39,4.11,4.81,13.97,6.55,3.27.55,6.57.86,9.89.92.95.02,1.93.02,2.92,0,3.15-.03,6.47-.22,9.94-.58,1.26-.13,2.54-.28,3.84-.45,2.25-.3,4.55-.66,6.89-1.08l4.32-.76Z"/>
    <path id="Path_35980" data-name="Path 35980" class="cls-1" d="M1550.34,154.69c.1,2.92.07,5.71-.08,8.37-.05.86-.11,1.71-.18,2.54-.17,1.9-.41,3.72-.72,5.46-.62,3.87-1.8,7.64-3.51,11.17-1.27,2.73-3.23,5.09-5.69,6.84-3.28,2.28-7.64,2.28-10.92,0-2.46-1.75-4.42-4.11-5.69-6.84-1.71-3.53-2.89-7.29-3.51-11.17-.3-1.74-.54-3.56-.72-5.46,1.92-1.66,3.86-3.49,5.8-5.48.06,3.31.37,6.62.92,9.89,1.74,9.86,5.16,13.06,6.55,13.97,1.24.95,2.97.95,4.21,0,1.39-.91,4.81-4.11,6.55-13.97.55-3.27.86-6.57.92-9.89.02-.95.02-1.93,0-2.92-.03-3.15-.22-6.47-.58-9.94-.13-1.26-.28-2.54-.45-3.84-.3-2.25-.66-4.55-1.08-6.89l-.78-4.32,4.32.78c2.35.42,4.64.78,6.89,1.08,2.97,2.3,5.71,4.61,8.18,6.92-3.8-.23-7.78-.66-11.91-1.29.63,4.12,1.06,8.09,1.29,11.91.06,1.05.11,2.08.15,3.09"/>
    <path id="Path_35981" data-name="Path 35981" class="cls-1" d="M1598.29,130.96c-1.75,2.46-4.11,4.42-6.84,5.69-3.53,1.71-7.29,2.89-11.17,3.51-1.74.3-3.56.54-5.46.72-1.66-1.92-3.49-3.86-5.48-5.8,3.31-.06,6.62-.37,9.89-.92,9.86-1.74,13.06-5.16,13.97-6.55.95-1.24.95-2.97,0-4.21-.91-1.39-4.11-4.81-13.97-6.55-3.27-.55-6.57-.86-9.89-.92-.95-.02-1.93-.02-2.92,0-3.15.03-6.47.22-9.94.58-1.26.13-2.54.28-3.84.45-2.25.3-4.55.66-6.89,1.08l-4.32.78.78-4.32c.42-2.35.78-4.64,1.08-6.89,2.3-2.97,4.61-5.71,6.92-8.18-.23,3.8-.66,7.78-1.29,11.91,4.12-.63,8.09-1.06,11.91-1.29,1.05-.06,2.08-.11,3.09-.15,2.92-.1,5.71-.07,8.37.08.86.05,1.71.11,2.54.18,1.9.17,3.72.41,5.46.72,3.87.62,7.64,1.8,11.17,3.51,2.73,1.27,5.09,3.23,6.84,5.69,2.28,3.28,2.28,7.64,0,10.92"/>
    <path id="Path_35982" data-name="Path 35982" class="cls-1" d="M1550.09,85.39c-1.92,1.66-3.86,3.49-5.8,5.48-.06-3.31-.37-6.62-.92-9.89-1.74-9.86-5.16-13.06-6.55-13.97-1.24-.95-2.97-.95-4.21,0-1.39.91-4.81,4.11-6.55,13.97-.55,3.27-.86,6.57-.92,9.89-.02.95-.02,1.93,0,2.92.03,3.15.22,6.47.58,9.94.13,1.26.28,2.54.45,3.83.3,2.25.66,4.55,1.08,6.89l.78,4.32-4.35-.77c-2.35-.42-4.64-.78-6.89-1.08-2.97-2.3-5.71-4.61-8.18-6.92,3.8.23,7.78.66,11.91,1.29-.63-4.12-1.06-8.09-1.29-11.91-.06-1.05-.11-2.08-.15-3.09-.1-2.92-.07-5.71.08-8.37.05-.86.11-1.71.18-2.54.17-1.9.41-3.73.72-5.47.62-3.87,1.8-7.64,3.51-11.17,1.27-2.74,3.24-5.1,5.7-6.85,3.28-2.28,7.64-2.28,10.92,0,2.46,1.75,4.42,4.11,5.69,6.84,1.71,3.53,2.89,7.29,3.51,11.17.3,1.74.54,3.56.72,5.46"/>
  </g>
</svg>