<?xml version="1.0" encoding="utf-8"?>
<!-- Generator: Adobe Illustrator 26.0.0, SVG Export Plug-In . SVG Version: 6.00 Build 0)  -->
<svg version="1.1" id="Layer_1" xmlns="http://www.w3.org/2000/svg" xmlns:xlink="http://www.w3.org/1999/xlink" x="0px" y="0px"
	 viewBox="130 535 825 170" style="enable-background:new 0 0 1080 1080;" xml:space="preserve">
<style type="text/css">
	.st0{fill:#F1F0ED;}
	.st1{fill:#232321;}
	.st2{fill:#B1ABBA;}
	.st3{fill:#D4D0D8;}
	.st4{fill:#9B94A8;}
	.st5{fill:#FFFFFF;}
</style>
<g>
	<g>
		<path class="st1" d="M152.3,550.49h7.4v51.32h30.98v2.62H152.3V550.49z"/>
		<path class="st1" d="M192.99,604.43l19.57-48.4l-2.24-5.55h7.48l21.81,53.94h-7.4l-6.24-15.26h-23.89l-6.24,15.26H192.99z
			 M203.09,586.55h21.89l-10.94-26.97L203.09,586.55z"/>
		<path class="st1" d="M240.08,550.49h7.32l18.19,44.93l18.19-44.93h2.85l-21.96,53.94h-2.85L240.08,550.49z"/>
		<path class="st1" d="M296.64,604.43v-53.94h38.46v2.7h-30.98v18.11h22.04v2.62h-22.04v27.9h30.98v2.62H296.64z"/>
		<path class="st1" d="M348.89,550.49l32.37,43.7v-43.7h2.62v53.94h-2.62v-0.15l-32.91-44.39v44.54h-2.62v-48.17l-4.24-5.78H348.89z
			"/>
		<path class="st1" d="M397.75,550.49h19.03c4.47,0,8.39,0.77,11.75,2.31c3.36,1.54,6.15,3.58,8.36,6.13
			c2.21,2.54,3.87,5.42,4.97,8.63c1.1,3.21,1.66,6.51,1.66,9.9c0,3.39-0.57,6.69-1.7,9.9c-1.13,3.21-2.81,6.09-5.05,8.63
			c-2.23,2.54-5.02,4.58-8.36,6.13c-3.34,1.54-7.22,2.31-11.64,2.31h-19.03V550.49z M405.22,553.19v48.63h11.33
			c3.18,0,5.98-0.69,8.4-2.08c2.41-1.39,4.42-3.22,6.01-5.51c1.59-2.29,2.79-4.88,3.58-7.78c0.8-2.9,1.19-5.88,1.19-8.94
			s-0.4-6.04-1.19-8.94c-0.8-2.9-1.99-5.5-3.58-7.78s-3.6-4.12-6.01-5.51c-2.42-1.39-5.22-2.08-8.4-2.08H405.22z"/>
		<path class="st1" d="M455.78,604.43v-53.94h38.46v2.7h-30.98v18.11h22.04v2.62h-22.04v27.9h30.98v2.62H455.78z"/>
		<path class="st1" d="M526.98,550.49c3.8,0,7.04,0.64,9.71,1.93c2.67,1.28,4.76,2.93,6.28,4.93s2.47,4.23,2.85,6.67
			c0.39,2.44,0.19,4.82-0.58,7.13c-0.77,2.31-2.11,4.39-4.01,6.24c-1.9,1.85-4.37,3.21-7.4,4.08l10.71,22.96h-2.85l-10.48-22.35
			c-0.67,0.1-1.36,0.18-2.08,0.23c-0.72,0.05-1.44,0.08-2.16,0.08H509.8v22.04h-7.48v-53.94H526.98z M526.68,579.77
			c2.67,0,4.89-0.66,6.67-1.97c1.77-1.31,3.09-2.95,3.97-4.93c0.87-1.98,1.31-4.11,1.31-6.4c0-2.29-0.44-4.42-1.31-6.4
			c-0.88-1.98-2.2-3.62-3.97-4.93c-1.77-1.31-4-1.96-6.67-1.96H509.8v26.59H526.68z"/>
		<path class="st1" d="M666.47,550.49h7.4v51.32h30.98v2.62h-38.38V550.49z"/>
		<path class="st1" d="M712.94,604.43v-53.94h38.46v2.7h-30.98v18.11h22.04v2.62h-22.04v27.9h30.98v2.62H712.94z"/>
		<path class="st1" d="M767.03,550.49l16.65,36.53l16.65-36.53h7.47v53.94h-7.4v-48.24l-19.11,41.85l-19.19-42.08v48.47h-2.62
			v-53.94H767.03z"/>
		<path class="st1" d="M849.49,549.18c4.88,0,9.14,0.81,12.79,2.43c3.65,1.62,6.68,3.75,9.09,6.4c2.41,2.65,4.24,5.66,5.47,9.05
			c1.23,3.39,1.85,6.86,1.85,10.4s-0.62,7.01-1.85,10.4c-1.23,3.39-3.06,6.41-5.47,9.05c-2.42,2.65-5.45,4.78-9.09,6.4
			c-3.65,1.62-7.91,2.43-12.79,2.43s-9.16-0.81-12.83-2.43c-3.67-1.62-6.73-3.75-9.17-6.4c-2.44-2.65-4.26-5.66-5.47-9.05
			c-1.21-3.39-1.81-6.86-1.81-10.4s0.6-7.01,1.81-10.4c1.21-3.39,3.03-6.41,5.47-9.05c2.44-2.65,5.5-4.78,9.17-6.4
			C840.33,549.99,844.61,549.18,849.49,549.18z M849.49,551.41c-3.6,0-6.74,0.75-9.44,2.23c-2.7,1.49-4.95,3.46-6.74,5.9
			c-1.8,2.44-3.15,5.23-4.05,8.36c-0.9,3.13-1.35,6.32-1.35,9.56c0,3.24,0.45,6.42,1.35,9.56c0.9,3.13,2.25,5.92,4.05,8.36
			c1.8,2.44,4.05,4.41,6.74,5.9s5.84,2.23,9.44,2.23c3.6,0,6.73-0.74,9.4-2.23c2.67-1.49,4.91-3.46,6.7-5.9
			c1.8-2.44,3.15-5.23,4.05-8.36c0.9-3.13,1.35-6.32,1.35-9.56c0-3.24-0.45-6.42-1.35-9.56c-0.9-3.13-2.25-5.92-4.05-8.36
			c-1.8-2.44-4.03-4.4-6.7-5.9C856.22,552.16,853.09,551.41,849.49,551.41z"/>
		<path class="st1" d="M896.96,550.49l32.37,43.7v-43.7h2.62v53.94h-2.62v-0.15l-32.91-44.39v44.54h-2.62v-48.17l-4.24-5.78H896.96z
			"/>
	</g>
	<g>
		<path class="st2" d="M597.89,576.1l0.19,0.38v0.38c-0.26-0.25-0.38-0.12-0.38,0.38c-0.26,0.38-0.45,0.51-0.57,0.38
			c-0.13-0.12-0.19-0.06-0.19,0.19c0.12,0,0.16,0.07,0.09,0.19c-0.07,0.13-0.22,0.25-0.48,0.38c-0.13,0.38-0.64,0.83-1.52,1.33
			c-0.38,0.64-0.76,0.95-1.14,0.95c-0.13,0-0.26,0.07-0.38,0.19c0,0.26-0.13,0.38-0.38,0.38c-0.13,0-0.26,0.07-0.38,0.19l-0.57,0.57
			c-0.38,0.38-0.7,0.57-0.95,0.57c-0.13-0.12-0.25-0.12-0.38,0c0.12,0.13,0.06,0.32-0.19,0.57c-0.26,0.26-0.51,0.26-0.76,0
			c-0.13-0.12-0.13-0.06,0,0.19c0,0.26-0.51,0.83-1.52,1.71c-0.89,0.64-1.55,1.14-2,1.52c-0.45,0.38-1.11,1.02-2,1.9
			c-0.38,0.26-0.73,0.51-1.05,0.76c-0.32,0.26-0.6,0.45-0.86,0.57c-0.26,0.25-0.48,0.47-0.67,0.67s-0.41,0.35-0.67,0.48
			c-0.64,0.64-1.24,1.17-1.81,1.62c-0.57,0.45-0.92,0.6-1.05,0.47c-0.13-0.12-0.19-0.06-0.19,0.19c0,0.13-0.7,0.76-2.09,1.9
			c-1.78,1.27-2.66,1.65-2.66,1.14c-0.13,0-0.25-0.06-0.38-0.19c-0.13-0.12-0.26-0.19-0.38-0.19c-0.13,0-0.32-0.06-0.57-0.19
			c-2.28-0.63-3.42-2.15-3.42-4.56c0-0.25-0.03-0.5-0.09-0.76c-0.07-0.25-0.09-0.44-0.09-0.57c-0.26-0.25-0.26-0.38,0-0.38
			c0.12,0,0.19-0.31,0.19-0.95c0-0.25,0.03-0.67,0.1-1.24c0.06-0.57,0.09-1.05,0.09-1.43c0.25-1.27,0.38-2.22,0.38-2.85
			c0.12-0.88,0.22-1.52,0.29-1.9c0.06-0.38,0.09-0.7,0.09-0.95c0.25,0,0.38-0.63,0.38-1.9l0.19-1.71l-0.57,0.95
			c-0.13,0.13-0.19,0.32-0.19,0.57c0,0.13-0.06,0.25-0.19,0.38c0,0.13-0.07,0.19-0.19,0.19c-0.13,0-0.19,0.13-0.19,0.38
			c0,0.25-0.19,0.67-0.57,1.24c-0.38,0.57-0.7,0.92-0.95,1.05l-0.19,0.38c0,0.26-0.16,0.73-0.47,1.43c-0.32,0.7-0.6,1.11-0.86,1.24
			c-0.13,0.25-0.51,0.86-1.14,1.81c-0.64,0.95-0.95,1.49-0.95,1.62c0,0.13-0.13,0.32-0.38,0.57c-0.25,0.13-0.41,0.25-0.48,0.38
			c-0.07,0.13-0.03,0.19,0.1,0.19c0,0.26-0.19,0.45-0.57,0.57c-0.51,0.26-0.76,0.51-0.76,0.76c0,0.13-0.26,0.16-0.76,0.09
			c-0.5-0.06-0.95-0.16-1.33-0.29c-0.12,0-0.19-0.25-0.19-0.76c0-0.5,0.07-1.01,0.19-1.52c0.26-1.01,0.38-1.58,0.38-1.71
			c0-0.38,0.13-0.7,0.38-0.95c0.13-0.12,0.51-0.95,1.14-2.47c0.38-0.89,0.86-1.87,1.43-2.95c0.57-1.08,1.14-2.09,1.71-3.04
			s1.11-1.71,1.62-2.28c0.5-0.57,0.88-0.86,1.14-0.86l0.19-0.38c0-0.25,0.06-0.38,0.19-0.38c0.25,0,0.5-0.19,0.76-0.57
			c0.38-0.25,0.63-0.31,0.76-0.19l0.38-0.38c0.25-0.25,0.7-0.31,1.33-0.19c0.63,0.13,1.11,0.35,1.43,0.67
			c0.32,0.32,0.41,0.6,0.29,0.86c0,0.26,0.06,0.38,0.19,0.38c0.25,0.13,0.38,0.35,0.38,0.67c0,0.32,0.12,1.05,0.38,2.19
			c0,1.02-0.13,1.65-0.38,1.9c-0.26,0.25-0.32,0.38-0.19,0.38c0.25,0,0.38,0.64,0.38,1.9c0,1.27-0.19,1.78-0.57,1.52
			c-0.26,0-0.41-0.12-0.48-0.38c-0.07-0.25-0.09-0.88-0.09-1.9v-1.71v-0.57c-0.13,0-0.19,0.13-0.19,0.38c0,0.26-0.13,0.38-0.38,0.38
			c-0.13,0-0.19,0.13-0.19,0.38c0.12,0.26,0.12,0.86,0,1.81c-0.13,0.95-0.32,1.49-0.57,1.62c-0.38,0-0.38,0.19,0,0.57
			c0.12,0.26,0.12,0.73,0,1.43c-0.13,0.7-0.32,1.3-0.57,1.81c-0.25,0.26-0.25,0.38,0,0.38c0.12,0,0.16,0.41,0.1,1.24
			c-0.07,0.83-0.16,1.49-0.29,2v2.09c0.12,1.14,0.5,2.03,1.14,2.66c0.63,0.76,1.08,1.02,1.33,0.76h0.38c0,0.26,0.12,0.51,0.38,0.76
			l0.38,0.38c-0.13-0.25,0.09-0.63,0.67-1.14c0.57-0.5,0.98-0.7,1.24-0.57h0.19c0-0.25,0.38-0.7,1.14-1.33
			c0.25-0.25,0.63-0.6,1.14-1.05c0.51-0.44,0.89-0.79,1.14-1.05c0.25-0.12,0.67-0.44,1.24-0.95c0.57-0.51,1.46-1.24,2.66-2.19
			c1.2-0.95,2.79-2.22,4.75-3.8c1.96-1.58,4.47-3.58,7.51-5.99c0.63-0.5,1.17-0.92,1.62-1.24
			C597.48,576.26,597.76,576.1,597.89,576.1z M568.98,574.39c0.25,0,0.19-0.19-0.19-0.57c-0.25-0.25-0.38-0.19-0.38,0.19
			c0,0.38-0.13,0.7-0.38,0.95c-0.26,0.25-0.64,0.73-1.14,1.43c-0.51,0.7-0.76,1.17-0.76,1.43c0,0.13-0.07,0.19-0.19,0.19
			c-0.26,0-0.51,0.38-0.76,1.14c-0.26,0.51-0.51,0.89-0.76,1.14c-0.26,0.26-0.38,0.51-0.38,0.76c0,0.13-0.07,0.35-0.19,0.67
			c-0.13,0.32-0.26,0.6-0.38,0.86l-0.76,1.52c-0.13,0.13-0.19,0.26-0.19,0.38c-0.13,0.13-0.19,0.26-0.19,0.38
			c0,0.13-0.07,0.32-0.19,0.57c-0.51,0.76-0.64,1.14-0.38,1.14v0.19c0,0.13-0.03,0.19-0.09,0.19c-0.07,0-0.09,0.07-0.09,0.19
			c-0.26,0.26-0.26,0.38,0,0.38c0.12,0,0.19-0.06,0.19-0.19c0-0.25,0.25-0.63,0.76-1.14c0.38-0.38,0.57-0.76,0.57-1.14
			c0-0.25,0.12-0.38,0.38-0.38c0.12,0,0.19-0.12,0.19-0.38v-0.38l0.19-0.19c0.12,0,0.44-0.44,0.95-1.33l0.76-1.52l0.76-1.33
			c1.14-2.15,1.84-3.11,2.09-2.85v-0.19c0-0.38,0.06-0.7,0.19-0.95l0.19-0.76L568.98,574.39z M572.97,582.19
			c0.25,0.13,0.31,0.29,0.19,0.48c-0.13,0.19-0.32,0.29-0.57,0.29c-0.38,0-0.45-0.12-0.19-0.38
			C572.4,582.32,572.59,582.19,572.97,582.19z"/>
		<path class="st2" d="M622.04,589.61c0.63-1.01,1.08-1.2,1.33-0.57c0.12,0.25,0.12,0.83,0,1.71l-0.76,1.14l-0.19,0.19
			c-0.26,0.25-0.38,0.45-0.38,0.57c-0.26,0.64-0.7,1.11-1.33,1.43c-0.64,0.32-1.27,0.35-1.9,0.09c-0.38,0-0.89-0.25-1.52-0.76
			c-0.64-0.5-1.24-1.08-1.81-1.71c-0.57-0.63-1.02-1.24-1.33-1.81c-0.32-0.57-0.41-0.98-0.29-1.24c0-0.12-0.07-0.19-0.19-0.19
			c-0.26,0.13-0.48-0.03-0.67-0.48c-0.19-0.44-0.22-0.79-0.09-1.05c0.12-0.12,0.12-0.19,0-0.19c-0.13,0.13-0.35-0.19-0.67-0.95
			c-0.32-0.76-0.64-1.62-0.95-2.57c-0.32-0.95-0.6-1.84-0.86-2.66c-0.26-0.82-0.32-1.36-0.19-1.62c0.12-0.12,0.06-0.19-0.19-0.19
			l-0.19-0.19c0.25-0.63,0.12-0.95-0.38-0.95c-0.26,0-0.38,0.19-0.38,0.57c0,0.25-0.1,0.64-0.29,1.14
			c-0.19,0.51-0.35,0.89-0.48,1.14c-0.13,0-0.19,0.13-0.19,0.38c0,0.89-0.26,1.84-0.76,2.85c-0.13,0.26-0.26,0.51-0.38,0.76
			c-0.13,0.26-0.19,0.45-0.19,0.57c0,0.25-0.03,0.45-0.1,0.57c-0.07,0.13-0.09,0.32-0.09,0.57c-0.13,0.13-0.22,0.38-0.29,0.76
			c-0.07,0.38-0.22,0.83-0.48,1.33c-0.38,1.02-0.79,2.06-1.24,3.14c-0.45,1.08-0.73,1.68-0.86,1.81c-0.13,0-0.32,0.45-0.57,1.33
			c-0.25,0.76-0.73,1.78-1.43,3.04c-0.7,1.27-1.36,2.28-2,3.04c-0.76,1.02-1.65,1.27-2.66,0.76c-0.51-0.38-0.89-1.2-1.14-2.47
			v-10.27c0.12-1.14,0.25-2.5,0.38-4.09c0.12-1.58,0.25-2.5,0.38-2.76c0-0.12,0.03-0.25,0.09-0.38c0.06-0.12,0.09-0.31,0.09-0.57
			c0.25-2.79,0.44-4.37,0.57-4.75c0-0.12,0.03-0.29,0.09-0.48c0.06-0.19,0.09-0.41,0.09-0.67c0.25-0.76,0.48-1.49,0.67-2.19
			c0.19-0.7,0.35-1.05,0.48-1.05c0.25-0.12,0.57,0,0.95,0.38c0.38,0.38,0.5,0.76,0.38,1.14c0,0.38,0.06,0.57,0.19,0.57
			c0.12,0,0.25,0.38,0.38,1.14c0.12,0.76,0.19,1.46,0.19,2.09c0,0.51,0.06,0.7,0.19,0.57c0.12,0,0.19,0.13,0.19,0.38
			c0,0.25,0.03,0.51,0.09,0.76c0.06,0.25,0.09,0.51,0.09,0.76c0,0.64-0.06,0.95-0.19,0.95c-0.13,0-0.16,0.03-0.1,0.09
			c0.06,0.07,0.22,0.09,0.48,0.09c0.25,0.26,0.32,0.45,0.19,0.57c-0.26,0.25-0.51,0.22-0.76-0.1c-0.26-0.31-0.32-0.67-0.19-1.05
			c0.38-0.38,0.38-0.57,0-0.57c-0.26,0-0.38-0.12-0.38-0.38c-0.13-0.63-0.19-1.14-0.19-1.52c0-0.38-0.13-0.82-0.38-1.33
			c-0.25-0.25-0.38-0.5-0.38-0.76v-0.38c0-0.25-0.07-0.5-0.19-0.76c-0.13-0.25-0.29,0.16-0.48,1.24c-0.19,1.08-0.29,2.06-0.29,2.95
			c0,0.64-0.07,0.95-0.19,0.95c0-0.12-0.03-0.06-0.09,0.19c-0.07,0.25-0.09,0.51-0.09,0.76c0,0.38,0,0.83,0,1.33
			c0,0.51-0.07,1.02-0.19,1.52c-0.26,1.4-0.45,3.27-0.57,5.61c-0.13,2.35-0.19,4.22-0.19,5.61c0,1.14,0.03,2.22,0.09,3.23
			c0.06,1.02,0.22,1.65,0.48,1.9c0.12,0.26,0.5-0.03,1.14-0.86c0.63-0.82,1.27-1.87,1.9-3.14c0.38-0.63,0.79-1.49,1.24-2.57
			c0.44-1.08,0.86-2.15,1.24-3.23c0.38-1.08,0.7-2.03,0.95-2.85c0.25-0.82,0.38-1.3,0.38-1.43c0-0.38,0.12-0.57,0.38-0.57
			c0.12,0,0.19-0.06,0.19-0.19c0-0.25,0.19-1.01,0.57-2.28c0.38-1.27,0.7-2.34,0.95-3.23c0.12-0.25,0.19-0.63,0.19-1.14
			c0.12-0.25,0.29-0.63,0.48-1.14c0.19-0.5,0.41-1.08,0.67-1.71c0.5-1.01,1.11-1.33,1.81-0.95c0.7,0.38,1.3,1.27,1.81,2.66
			c0.12,0.51,0.25,0.95,0.38,1.33c0.12,0.38,0.12,0.64,0,0.76c0,0.13,0.03,0.22,0.09,0.29c0.06,0.07,0.1,0.22,0.1,0.48
			c0,0.13,0.09,0.48,0.29,1.05c0.19,0.57,0.41,1.24,0.67,2c0.76,2.41,1.74,4.63,2.95,6.66c1.2,2.03,2.12,3.04,2.76,3.04
			c1.01,0,1.65-0.38,1.9-1.14c0.12-0.38,0.25-0.57,0.38-0.57L622.04,589.61z M597.7,581.81c0.12-0.12,0.19-0.32,0.19-0.57
			c-0.13-0.12-0.19-0.06-0.19,0.19V581.81z M599.79,580.29c0.12,0,0.19,0.13,0.19,0.38h-0.19c-0.13,0-0.26-0.06-0.38-0.19
			C599.41,580.1,599.53,580.03,599.79,580.29z M601.69,582.38V582c0-0.12,0.06-0.12,0.19,0c0.25,0.13,0.38,0.32,0.38,0.57
			c0,0.26-0.13,0.38-0.38,0.38c-0.13,0-0.26-0.06-0.38-0.19C601.25,582.51,601.31,582.38,601.69,582.38z"/>
		<path class="st2" d="M652.66,618.9c0.38,0.13,0.44,0.38,0.19,0.76c-0.26,0.64-0.83,1.14-1.71,1.52c-0.89,0.38-1.71,0.45-2.47,0.19
			c-0.51-0.25-1.08-0.6-1.71-1.05c-0.64-0.44-0.95-0.79-0.95-1.05c0-0.12-0.07-0.19-0.19-0.19c-0.13,0-0.22-0.03-0.29-0.09
			c-0.07-0.06-0.03-0.1,0.09-0.1c0-0.25-0.06-0.44-0.19-0.57c-0.26-0.25-0.57-0.89-0.95-1.9c-0.38-1.01-0.51-1.65-0.38-1.9
			c0-0.38-0.07-0.57-0.19-0.57l-0.38-0.76c0-0.38-0.07-0.63-0.19-0.76c-0.13,0-0.19-0.7-0.19-2.09l-0.38-2.09
			c-0.13-0.12-0.19-0.41-0.19-0.86c0-0.44,0-0.98,0-1.62l-0.38-1.9c-0.13-0.12-0.19-0.25-0.19-0.38v-0.95c0-0.38,0-0.76,0-1.14
			c0-0.38-0.07-0.63-0.19-0.76c0-0.25,0.06-0.32,0.19-0.19c0.25,0.13,0.32,0.07,0.19-0.19c-0.26-0.5-0.38-1.01-0.38-1.52
			c0-0.25,0-0.98,0-2.19c0-1.2-0.07-2.5-0.19-3.9c-0.13-6.09-0.19-10.9-0.19-14.45c0-3.55,0.12-5.26,0.38-5.14
			c0.25,0.26,0.25,0.13,0-0.38c-0.13-0.12-0.19-0.51-0.19-1.14c0.12-0.5,0.06-0.57-0.19-0.19c-0.13,0.26-0.22,0.48-0.29,0.67
			c-0.07,0.19-0.16,0.41-0.29,0.67c0,0.38-0.19,0.76-0.57,1.14c-0.13,0.13-0.19,0.22-0.19,0.29c0,0.07-0.07,0.16-0.19,0.29
			c0,0.38-0.1,0.76-0.29,1.14c-0.19,0.38-0.35,0.57-0.48,0.57c-0.26,0.13-0.26,0.19,0,0.19c0.38,0,0.25,0.32-0.38,0.95
			c-0.13,0.25-0.25,0.51-0.38,0.76c-0.13,0.25-0.19,0.51-0.19,0.76c-0.13,0.38-0.32,0.83-0.57,1.33c-0.26,0.26-0.51,0.76-0.76,1.52
			l-0.76,1.14c0,0.13-0.03,0.22-0.1,0.29c-0.07,0.07-0.09,0.22-0.09,0.48c0,0.13-0.03,0.19-0.09,0.19c-0.07,0-0.1,0.07-0.1,0.19
			v0.19c-0.38,0.38-0.64,0.76-0.76,1.14c-0.76,1.65-1.21,2.47-1.33,2.47c-0.13,0-0.32,0.26-0.57,0.76c0,0.76-0.19,1.21-0.57,1.33
			c-0.25,0.25-0.51,0.64-0.76,1.14c-0.25,0.76-0.57,1.33-0.95,1.71l-0.57,0.57c-0.13,0.13-0.19,0.26-0.19,0.38
			c0,0.25-0.19,0.57-0.57,0.95c-0.25,0.26-0.38,0.45-0.38,0.57l-0.19,0.19c-0.51,0.76-0.95,1.33-1.33,1.71
			c-0.38,0.38-0.73,0.7-1.05,0.95c-0.32,0.26-0.54,0.38-0.67,0.38c-0.12,0-0.19,0.07-0.19,0.19c0,0.13-0.06,0.26-0.19,0.38
			c-0.12,0-0.22,0.03-0.29,0.09c-0.06,0.07-0.16,0.1-0.29,0.1c-0.25,0.25-0.63,0.19-1.14-0.19c-0.51-0.38-0.89-0.76-1.14-1.14
			c-0.12-0.38-0.16-1.11-0.09-2.19c0.07-1.08,0.22-1.81,0.48-2.19v-0.57v-0.19l0.38-0.76c0-0.12,0.03-0.22,0.09-0.29
			c0.07-0.06,0.1-0.16,0.1-0.29v-0.19c-0.12,0,0.03-0.57,0.48-1.71c0.45-1.14,0.79-1.77,1.05-1.9l0.38-1.14
			c0.13-0.12,0.35-0.5,0.67-1.14c0.32-0.63,0.67-1.27,1.05-1.9c0.38-0.63,0.73-1.24,1.05-1.81c0.32-0.57,0.54-0.92,0.67-1.05
			c1.77-2.41,3.45-4.57,5.04-6.47c1.58-1.9,2.57-2.85,2.95-2.85c0.12,0,0.31-0.12,0.57-0.38c0.25-0.12,0.5-0.25,0.76-0.38
			c0.25-0.12,0.57-0.32,0.95-0.57c0.76-0.5,1.14-1.01,1.14-1.52c0.12-0.25,0.19-0.44,0.19-0.57c0-0.12,0.06-0.25,0.19-0.38
			c0.12-0.12,0.22-0.35,0.29-0.67c0.06-0.32,0.22-0.67,0.48-1.05c0-0.51,0.12-0.89,0.38-1.14c0.12-0.12,0.19-0.25,0.19-0.38
			c0.12,0,0.19-0.12,0.19-0.38c0.12-0.63,0.22-1.27,0.29-1.9c0.06-0.63,0.22-1.08,0.48-1.33c0.12-0.25,0.12-0.31,0-0.19
			c-0.26,0-0.32-0.19-0.19-0.57c0-0.25,0.03-0.6,0.1-1.05c0.06-0.44,0.09-0.86,0.09-1.24c0.12-0.38,0.19-0.76,0.19-1.14
			c0-0.38,0.06-0.7,0.19-0.95c0.12-0.38,0.19-0.76,0.19-1.14c0-0.38,0.12-1.33,0.38-2.85c0.12-0.63,0.25-1.39,0.38-2.28
			c0.12-0.89,0.25-1.65,0.38-2.28c0.25-1.01,0.44-1.77,0.57-2.28c0.12-0.5,0.25-1.2,0.38-2.09l0.38-0.76c0-0.12,0.03-0.29,0.09-0.48
			c0.06-0.19,0.1-0.41,0.1-0.67c0-0.76,0.12-1.14,0.38-1.14c0-0.12,0.03-0.22,0.1-0.29c0.06-0.06,0.09-0.22,0.09-0.48
			c0.12-0.38,0.19-0.7,0.19-0.95c0-0.25,0.12-0.51,0.38-0.76c0.12-0.25,0.19-0.57,0.19-0.95c-0.13-0.12-0.19-0.22-0.19-0.29
			c0-0.06,0.06-0.03,0.19,0.09c0.38,0,0.63-0.25,0.76-0.76c0.5-0.76,1.08-0.76,1.71,0c0.5,0.51,0.76,1.21,0.76,2.09
			c0,0.89-0.26,2.54-0.76,4.95c-0.26,1.02-0.38,1.84-0.38,2.47c0,0.51-0.13,0.89-0.38,1.14l-0.19,0.19v0.38
			c0,0.76-0.13,1.4-0.38,1.9c-0.13,0.26-0.32,0.98-0.57,2.19c-0.25,1.21-0.45,2.06-0.57,2.57c-0.13,0.38-0.35,1.21-0.67,2.47
			c-0.32,1.27-0.6,2.03-0.86,2.28c-0.26,0.51-0.38,0.95-0.38,1.33v0.76c-0.13,0-0.25,0.41-0.38,1.24c-0.13,0.83-0.26,1.81-0.38,2.95
			c-0.13,1.14-0.25,2.38-0.38,3.71c-0.13,1.33-0.19,2.5-0.19,3.52c0,0.89-0.03,1.81-0.09,2.76c-0.07,0.95-0.1,1.55-0.1,1.81
			c-0.13,0.76-0.19,2.41-0.19,4.94c0,2.54,0,5.26,0,8.18c0,2.92,0.03,5.71,0.09,8.37c0.06,2.66,0.16,4.5,0.29,5.52
			c0.12,0.26,0.19,0.73,0.19,1.43c0,0.7,0.06,1.49,0.19,2.38c0.38,3.93,1.08,7.29,2.09,10.08c0.89,2.28,2.03,3.17,3.42,2.66
			c0.88-0.25,1.39-0.57,1.52-0.95c0.38-0.38,0.5-0.44,0.38-0.19C651.96,618.52,652.15,618.77,652.66,618.9z M637.25,575.72
			c0.12,0,0.44-0.57,0.95-1.71c0.5-1.14,0.7-1.77,0.57-1.9c-0.13,0-0.25,0.07-0.38,0.19c-0.13,0.13-0.29,0.26-0.48,0.38
			c-0.19,0.13-0.35,0.25-0.48,0.38c-0.76,0.64-1.46,1.3-2.09,2c-0.64,0.7-0.89,1.05-0.76,1.05c-0.13,0-0.19,0.07-0.19,0.19
			c-0.13,0.13-0.19,0.22-0.19,0.29c0,0.07-0.07,0.16-0.19,0.29c-1.14,1.14-1.71,1.9-1.71,2.28c0,0.13-0.38,0.57-1.14,1.33
			c-0.38,0.38-0.57,0.7-0.57,0.95c0,0.13-0.07,0.26-0.19,0.38c-0.26,0-0.38,0.13-0.38,0.38c0,0.26-0.07,0.38-0.19,0.38
			c-0.13,0-0.19,0.07-0.19,0.19c0.12,0.13,0.06,0.32-0.19,0.57c-0.25,0-0.38,0.13-0.38,0.38c0.25,0.26,0.25,0.38,0,0.38
			c-0.13,0.13-0.32,0.41-0.57,0.86c-0.26,0.45-0.51,0.98-0.76,1.62c-0.63,1.4-1.08,2.09-1.33,2.09v0.19c0.13,0.13,0,0.64-0.38,1.52
			c-0.38,0.64-0.57,1.14-0.57,1.52c0.26,0.26,0.19,0.38-0.19,0.38c-0.12,0-0.19,0.07-0.19,0.19c0.13,0.26,0.09,0.79-0.09,1.62
			c-0.19,0.83-0.35,1.3-0.48,1.43c-0.25,0.13-0.32,0.19-0.19,0.19c0.26,0,0.32,0.19,0.19,0.57c0,0.38,0.07,0.57,0.19,0.57
			c0.26,0,0.57-0.19,0.95-0.57c0.13-0.38,0.38-0.57,0.76-0.57l0.19-0.38c0-0.12,0.32-0.63,0.95-1.52l0.76-1.14v-0.19l0.38-0.38
			c1.27-1.9,1.9-2.92,1.9-3.04c0-0.12,0.03-0.22,0.09-0.29c0.06-0.06,0.1-0.16,0.1-0.29c0.12,0,0.47-0.5,1.05-1.52
			c0.57-1.01,0.86-1.58,0.86-1.71c0-0.12,0.06-0.25,0.19-0.38c0.12-0.12,0.25-0.32,0.38-0.57c0.25-0.25,0.38-0.57,0.38-0.95
			l0.19-0.19c0.12,0,0.19-0.06,0.19-0.19c-0.25-0.25-0.25-0.38,0-0.38c0.12,0,0.19-0.06,0.19-0.19V582c0.12,0,0.44-0.44,0.95-1.33
			c0.12-0.38,0.32-0.86,0.57-1.43c0.25-0.57,0.51-1.05,0.76-1.43c0.51-1.14,0.7-1.77,0.57-1.9L637.25,575.72z"/>
	</g>
	<g>
		<g>
			<path class="st1" d="M216.27,666.54v-1.18h20.8v1.18h-8.77v22.42h-3.24v-22.42H216.27z"/>
			<path class="st1" d="M240.95,688.97v-23.6h3.27v7.52h12.41v-7.52h1.15v23.6h-1.15v-14.94h-12.41v14.94H240.95z"/>
			<path class="st1" d="M263.84,688.97v-23.6h16.82v1.18h-13.55v7.92h9.64v1.15h-9.64v12.21h13.55v1.15H263.84z"/>
			<path class="st1" d="M309.42,670.42l-1.01,0.1c0-0.81-0.18-1.51-0.54-2.11c-0.36-0.59-0.84-1.1-1.45-1.5
				c-0.61-0.4-1.3-0.71-2.07-0.91s-1.57-0.3-2.38-0.3c-0.99,0-1.89,0.12-2.7,0.35c-0.81,0.24-1.5,0.54-2.07,0.93
				c-0.57,0.38-1.01,0.83-1.31,1.35c-0.3,0.52-0.46,1.06-0.46,1.62c0.02,1.01,0.37,1.83,1.04,2.46c0.67,0.63,1.52,1.18,2.54,1.65
				c1.02,0.47,2.13,0.92,3.32,1.35c1.19,0.43,2.3,0.94,3.32,1.55c1.02,0.61,1.89,1.37,2.6,2.28s1.08,2.08,1.13,3.52
				c0.04,0.9-0.12,1.77-0.49,2.61s-0.92,1.58-1.65,2.23s-1.64,1.15-2.73,1.53s-2.34,0.57-3.76,0.57c-0.97,0-1.92-0.12-2.85-0.35
				s-1.76-0.59-2.48-1.06c-0.72-0.47-1.3-1.07-1.74-1.79c-0.44-0.72-0.66-1.57-0.66-2.56l0.94-0.1c0,0.81,0.19,1.52,0.56,2.12
				c0.37,0.61,0.86,1.11,1.47,1.52c0.61,0.4,1.29,0.71,2.06,0.91s1.55,0.3,2.36,0.3c0.99,0,1.89-0.12,2.7-0.35
				c0.81-0.24,1.5-0.56,2.07-0.96c0.57-0.4,1.02-0.87,1.33-1.4s0.47-1.07,0.47-1.64c0-0.79-0.2-1.46-0.59-2.01
				c-0.39-0.55-0.92-1.03-1.57-1.45c-0.65-0.42-1.39-0.79-2.21-1.11c-0.82-0.33-1.66-0.66-2.53-0.99c-0.87-0.34-1.71-0.71-2.55-1.11
				c-0.83-0.4-1.57-0.89-2.22-1.45s-1.19-1.22-1.6-1.99c-0.42-0.76-0.65-1.69-0.69-2.76c-0.02-0.88,0.15-1.72,0.51-2.55
				c0.36-0.82,0.9-1.54,1.63-2.17c0.73-0.63,1.64-1.13,2.73-1.52s2.34-0.57,3.76-0.57c0.99,0,1.94,0.12,2.87,0.35
				c0.92,0.24,1.75,0.59,2.48,1.06c0.73,0.47,1.32,1.07,1.75,1.79C309.2,668.58,309.42,669.43,309.42,670.42z"/>
			<path class="st1" d="M325.91,665.36c1.87,0,3.42,0.34,4.65,1.03c1.24,0.69,2.16,1.55,2.78,2.58c0.62,1.03,0.92,2.16,0.91,3.37
				c-0.01,1.21-0.33,2.34-0.94,3.37c-0.62,1.03-1.55,1.89-2.78,2.58c-1.24,0.69-2.78,1.03-4.62,1.03h-7.49v9.64h-3.27v-23.6H325.91z
				 M325.81,678.18c1.17,0,2.14-0.29,2.92-0.86s1.35-1.29,1.74-2.16c0.38-0.87,0.57-1.8,0.57-2.8s-0.2-1.93-0.59-2.8
				c-0.39-0.87-0.98-1.58-1.75-2.16c-0.78-0.57-1.74-0.86-2.88-0.86h-7.38v11.63H325.81z"/>
			<path class="st1" d="M334.64,688.97l8.56-21.17l-0.98-2.43h3.27l9.54,23.6h-3.24l-2.73-6.68h-10.45l-2.73,6.68H334.64z
				 M339.06,681.14h9.58l-4.79-11.8L339.06,681.14z"/>
			<path class="st1" d="M365.83,666.54v-1.18h20.8v1.18h-8.77v22.42h-3.24v-22.42H365.83z"/>
			<path class="st1" d="M401.3,665.36c1.66,0,3.08,0.28,4.25,0.84c1.17,0.56,2.08,1.28,2.75,2.16c0.66,0.88,1.08,1.85,1.25,2.92
				s0.08,2.11-0.25,3.12c-0.34,1.01-0.92,1.92-1.75,2.73c-0.83,0.81-1.91,1.41-3.24,1.79l4.69,10.05h-1.25l-4.59-9.78
				c-0.29,0.04-0.6,0.08-0.91,0.1c-0.31,0.02-0.63,0.03-0.94,0.03h-7.52v9.64h-3.27v-23.6H401.3z M401.16,678.18
				c1.17,0,2.14-0.29,2.92-0.86s1.35-1.29,1.74-2.16c0.38-0.87,0.57-1.8,0.57-2.8s-0.19-1.93-0.57-2.8
				c-0.38-0.87-0.96-1.58-1.74-2.16c-0.78-0.57-1.75-0.86-2.92-0.86h-7.38v11.63H401.16z"/>
			<path class="st1" d="M415.12,688.97v-23.6h16.82v1.18h-13.55v7.92h9.64v1.15h-9.64v12.21h13.55v1.15H415.12z"/>
			<path class="st1" d="M432.96,688.97l8.56-21.17l-0.98-2.43h3.27l9.54,23.6h-3.24l-2.73-6.68h-10.45l-2.73,6.68H432.96z
				 M437.37,681.14h9.58l-4.79-11.8L437.37,681.14z"/>
			<path class="st1" d="M453.39,666.54v-1.18h20.8v1.18h-8.77v22.42h-3.24v-22.42H453.39z"/>
			<path class="st1" d="M481.37,665.36l7.28,15.98l7.28-15.98h3.27v23.6h-3.24v-21.11l-8.36,18.31l-8.4-18.41v21.21h-1.15v-23.6
				H481.37z"/>
			<path class="st1" d="M505.27,688.97v-23.6h16.82v1.18h-13.55v7.92h9.64v1.15h-9.64v12.21h13.55v1.15H505.27z"/>
			<path class="st1" d="M528.13,665.36l14.16,19.12v-19.12h1.15v23.6h-1.15v-0.07l-14.4-19.42v19.49h-1.15v-21.07l-1.85-2.53H528.13
				z"/>
			<path class="st1" d="M547.32,666.54v-1.18h20.8v1.18h-8.77v22.42h-3.24v-22.42H547.32z"/>
			<path class="st1" d="M581.43,688.97v-23.6h16.82v1.18h-13.55v7.92h9.64v1.15h-9.64v13.35H581.43z"/>
			<path class="st1" d="M612.89,664.79c2.13,0,4,0.35,5.6,1.06c1.6,0.71,2.92,1.64,3.98,2.8c1.06,1.16,1.85,2.48,2.39,3.96
				s0.81,3,0.81,4.55c0,1.55-0.27,3.07-0.81,4.55s-1.34,2.8-2.39,3.96c-1.06,1.16-2.38,2.09-3.98,2.8c-1.6,0.71-3.46,1.06-5.6,1.06
				c-2.14,0-4.01-0.35-5.61-1.06c-1.61-0.71-2.94-1.64-4.01-2.8c-1.07-1.16-1.87-2.48-2.39-3.96c-0.53-1.48-0.79-3-0.79-4.55
				c0-1.55,0.26-3.07,0.79-4.55c0.53-1.48,1.33-2.8,2.39-3.96c1.07-1.16,2.41-2.09,4.01-2.8
				C608.89,665.15,610.76,664.79,612.89,664.79z M612.89,665.77c-1.57,0-2.95,0.33-4.13,0.98c-1.18,0.65-2.16,1.51-2.95,2.58
				c-0.79,1.07-1.38,2.29-1.77,3.66c-0.39,1.37-0.59,2.76-0.59,4.18s0.2,2.81,0.59,4.18c0.39,1.37,0.98,2.59,1.77,3.66
				c0.79,1.07,1.77,1.93,2.95,2.58c1.18,0.65,2.56,0.98,4.13,0.98c1.57,0,2.94-0.33,4.11-0.98c1.17-0.65,2.15-1.51,2.93-2.58
				c0.79-1.07,1.38-2.29,1.77-3.66c0.39-1.37,0.59-2.76,0.59-4.18s-0.2-2.81-0.59-4.18c-0.39-1.37-0.98-2.59-1.77-3.66
				c-0.79-1.07-1.76-1.93-2.93-2.58C615.84,666.1,614.47,665.77,612.89,665.77z"/>
			<path class="st1" d="M641.95,665.36c1.66,0,3.08,0.28,4.25,0.84c1.17,0.56,2.08,1.28,2.75,2.16c0.66,0.88,1.08,1.85,1.25,2.92
				c0.17,1.07,0.08,2.11-0.25,3.12c-0.34,1.01-0.92,1.92-1.75,2.73c-0.83,0.81-1.91,1.41-3.24,1.79l4.69,10.05h-1.25l-4.58-9.78
				c-0.29,0.04-0.6,0.08-0.91,0.1c-0.32,0.02-0.63,0.03-0.94,0.03h-7.52v9.64h-3.27v-23.6H641.95z M641.82,678.18
				c1.17,0,2.14-0.29,2.92-0.86c0.78-0.57,1.35-1.29,1.74-2.16c0.38-0.87,0.57-1.8,0.57-2.8s-0.19-1.93-0.57-2.8
				c-0.38-0.87-0.96-1.58-1.74-2.16c-0.78-0.57-1.75-0.86-2.92-0.86h-7.38v11.63H641.82z"/>
			<path class="st1" d="M666.77,665.36l5.63,13.86l5.6-13.86h1.25l-6.2,15.34v8.26h-3.27v-8.16l-6.24-15.44H666.77z"/>
			<path class="st1" d="M694.58,664.79c2.13,0,4,0.35,5.6,1.06c1.6,0.71,2.92,1.64,3.98,2.8c1.06,1.16,1.85,2.48,2.39,3.96
				s0.81,3,0.81,4.55c0,1.55-0.27,3.07-0.81,4.55s-1.34,2.8-2.39,3.96c-1.06,1.16-2.38,2.09-3.98,2.8c-1.6,0.71-3.46,1.06-5.6,1.06
				c-2.14,0-4.01-0.35-5.61-1.06c-1.61-0.71-2.94-1.64-4.01-2.8c-1.07-1.16-1.87-2.48-2.39-3.96c-0.53-1.48-0.79-3-0.79-4.55
				c0-1.55,0.26-3.07,0.79-4.55c0.53-1.48,1.33-2.8,2.39-3.96c1.07-1.16,2.41-2.09,4.01-2.8
				C690.58,665.15,692.45,664.79,694.58,664.79z M694.58,665.77c-1.57,0-2.95,0.33-4.13,0.98c-1.18,0.65-2.16,1.51-2.95,2.58
				c-0.79,1.07-1.38,2.29-1.77,3.66c-0.39,1.37-0.59,2.76-0.59,4.18s0.2,2.81,0.59,4.18c0.39,1.37,0.98,2.59,1.77,3.66
				c0.79,1.07,1.77,1.93,2.95,2.58c1.18,0.65,2.56,0.98,4.13,0.98c1.57,0,2.94-0.33,4.11-0.98c1.17-0.65,2.15-1.51,2.93-2.58
				c0.79-1.07,1.38-2.29,1.77-3.66c0.39-1.37,0.59-2.76,0.59-4.18s-0.2-2.81-0.59-4.18c-0.39-1.37-0.98-2.59-1.77-3.66
				c-0.79-1.07-1.76-1.93-2.93-2.58C697.53,666.1,696.16,665.77,694.58,665.77z"/>
			<path class="st1" d="M712.72,680.47v-15.1h3.27v15.85c0,1.12,0.19,2.12,0.57,2.98c0.38,0.87,0.91,1.6,1.58,2.19
				c0.67,0.6,1.47,1.04,2.38,1.35s1.9,0.46,2.98,0.46c0.85-0.04,1.67-0.22,2.46-0.54c0.79-0.32,1.48-0.76,2.09-1.35
				c0.61-0.58,1.09-1.3,1.45-2.16c0.36-0.85,0.54-1.83,0.54-2.93v-15.85h1.15v15.1c0,1.37-0.23,2.62-0.69,3.76
				c-0.46,1.14-1.1,2.1-1.92,2.9c-0.82,0.8-1.8,1.42-2.95,1.85s-2.39,0.66-3.74,0.66c-1.15,0-2.27-0.2-3.37-0.59
				c-1.1-0.39-2.08-0.97-2.95-1.74c-0.87-0.76-1.56-1.72-2.07-2.87C712.98,683.3,712.72,681.98,712.72,680.47z"/>
			<path class="st1" d="M747.89,665.36c1.66,0,3.08,0.28,4.25,0.84c1.17,0.56,2.08,1.28,2.75,2.16c0.66,0.88,1.08,1.85,1.25,2.92
				c0.17,1.07,0.08,2.11-0.25,3.12c-0.34,1.01-0.92,1.92-1.75,2.73c-0.83,0.81-1.91,1.41-3.24,1.79l4.69,10.05h-1.25l-4.58-9.78
				c-0.29,0.04-0.6,0.08-0.91,0.1c-0.32,0.02-0.63,0.03-0.94,0.03h-7.52v9.64h-3.27v-23.6H747.89z M747.75,678.18
				c1.17,0,2.14-0.29,2.92-0.86c0.78-0.57,1.35-1.29,1.74-2.16c0.38-0.87,0.57-1.8,0.57-2.8s-0.19-1.93-0.57-2.8
				c-0.38-0.87-0.96-1.58-1.74-2.16c-0.78-0.57-1.75-0.86-2.92-0.86h-7.38v11.63H747.75z"/>
			<path class="st1" d="M771.15,688.97v-23.6h3.27v7.52h12.41v-7.52h1.15v23.6h-1.15v-14.94h-12.41v14.94H771.15z"/>
			<path class="st1" d="M806.21,664.79c2.13,0,4,0.35,5.6,1.06c1.6,0.71,2.92,1.64,3.98,2.8c1.06,1.16,1.85,2.48,2.39,3.96
				s0.81,3,0.81,4.55c0,1.55-0.27,3.07-0.81,4.55s-1.34,2.8-2.39,3.96c-1.06,1.16-2.38,2.09-3.98,2.8c-1.6,0.71-3.46,1.06-5.6,1.06
				c-2.14,0-4.01-0.35-5.61-1.06c-1.61-0.71-2.94-1.64-4.01-2.8c-1.07-1.16-1.87-2.48-2.39-3.96c-0.53-1.48-0.79-3-0.79-4.55
				c0-1.55,0.26-3.07,0.79-4.55c0.53-1.48,1.33-2.8,2.39-3.96c1.07-1.16,2.41-2.09,4.01-2.8
				C802.21,665.15,804.08,664.79,806.21,664.79z M806.21,665.77c-1.57,0-2.95,0.33-4.13,0.98c-1.18,0.65-2.16,1.51-2.95,2.58
				c-0.79,1.07-1.38,2.29-1.77,3.66c-0.39,1.37-0.59,2.76-0.59,4.18s0.2,2.81,0.59,4.18c0.39,1.37,0.98,2.59,1.77,3.66
				c0.79,1.07,1.77,1.93,2.95,2.58c1.18,0.65,2.56,0.98,4.13,0.98c1.57,0,2.94-0.33,4.11-0.98c1.17-0.65,2.15-1.51,2.93-2.58
				c0.79-1.07,1.38-2.29,1.77-3.66c0.39-1.37,0.59-2.76,0.59-4.18s-0.2-2.81-0.59-4.18c-0.39-1.37-0.98-2.59-1.77-3.66
				c-0.79-1.07-1.76-1.93-2.93-2.58C809.16,666.1,807.79,665.77,806.21,665.77z"/>
			<path class="st1" d="M827.79,665.36l7.28,15.98l7.28-15.98h3.27v23.6h-3.24v-21.11l-8.36,18.31l-8.4-18.41v21.21h-1.15v-23.6
				H827.79z"/>
			<path class="st1" d="M851.69,688.97v-23.6h16.82v1.18h-13.55v7.92h9.64v1.15h-9.64v12.21h13.55v1.15H851.69z"/>
		</g>
	</g>
</g>
</svg>
