<?xml version="1.0" encoding="UTF-8"?> <svg xmlns="http://www.w3.org/2000/svg" width="525" height="60" viewBox="0 0 525 60" fill="none"><path d="M46.8367 46.8375C46.8367 47.039 46.6724 47.2034 46.4709 47.2034H35.145C34.9435 47.2034 34.7792 47.039 34.7792 46.8375V14.3969C34.7792 14.1953 34.9435 14.031 35.145 14.031H46.4709C46.6724 14.031 46.8367 14.1953 46.8367 14.3969V46.8375Z" fill="#5C0F8B"></path><path d="M50.2428 16.4523C50.0921 16.5757 49.9097 16.8454 49.9097 17.1767V24.8913C49.9097 25.0928 50.0767 25.0602 50.2165 24.8105C50.2891 24.6807 51.4874 22.5074 55.2476 22.5074C57.7731 22.5074 60.6019 23.6839 60.6019 29.3859C60.6019 33.9767 60.6001 46.8367 60.6001 46.8367C60.6001 47.0383 60.7644 47.2026 60.9659 47.2026H72.703C72.9045 47.2026 73.0688 47.0383 73.0688 46.8367C73.0688 46.8367 73.0698 32.329 73.0698 30.3209C73.0698 25.7955 75.0688 22.521 79.2919 22.521C83.515 22.521 84.8713 24.8622 84.8713 29.3859C84.8713 33.4801 84.8931 46.8367 84.8931 46.8367C84.8931 47.0383 85.0583 47.2026 85.2598 47.2026L96.9733 47.2017C97.1749 47.2017 97.3392 47.0374 97.3392 46.8358C97.3392 46.8358 97.3392 34.161 97.3392 30.4662C97.3392 23.329 97.0224 13.3367 83.3199 13.3367C73.9921 13.3367 71.1497 19.705 71.1497 19.705C71.1497 19.705 68.7749 13.3512 59.5897 13.3512C53.0725 13.3521 50.7176 16.0619 50.2428 16.4523Z" fill="#5C0F8B"></path><path d="M236.788 31.412C236.788 45.8726 249.114 48.1902 256.5 48.2102C268.351 48.242 272.595 45.8608 272.595 45.8608C272.856 45.7373 272.807 45.4813 272.758 45.2426L271.437 37.7377C271.364 37.4354 271.338 37.0632 270.76 37.2329C270.086 37.4317 267.054 39.0077 259.572 39.0077C257.396 39.0077 249.893 38.7671 249.893 31.0226C249.893 23.1755 256.021 22.2041 260.04 22.2087C265.792 22.2159 270.115 23.9417 270.467 24.0515C270.758 24.1423 270.906 24.0461 270.956 23.7892L272.33 15.834C272.365 15.6361 272.344 15.4763 272.105 15.3883C271.671 15.2276 266.048 13.0425 258.757 13.0425C247.942 13.0434 236.788 16.3968 236.788 31.412Z" fill="#5C0F8B"></path><path d="M123.274 13.0271C109.309 13.0271 103.52 19.97 103.52 30.5551C103.52 40.5855 107.614 48.2584 123.747 48.2584C131.32 48.2584 135.699 47.3024 141.289 45.7029C141.591 45.6166 141.768 45.4877 141.718 45.1473C141.713 45.1155 140.398 38.2597 140.391 38.2398C140.323 38.0246 140.147 37.8739 139.8 37.9756C134.339 39.5806 130.93 40.0127 126.093 40.0127C117.593 40.0127 116.257 37.0496 115.765 34.0765L141.971 34.0756C142.253 34.0756 142.471 33.9458 142.468 33.6145C142.407 26.2512 143.078 13.0271 123.274 13.0271ZM115.795 26.883C115.876 26.3846 115.46 20.8533 123.316 20.8533C131.112 20.8533 130.512 26.568 130.563 26.9566L115.795 26.883Z" fill="#5C0F8B"></path><path d="M187.56 1.89917H175.825C175.623 1.89917 175.459 2.06348 175.459 2.26502V32.3708C175.25 35.2268 174.018 38.9597 168.003 38.9597C162.252 38.9597 160.492 35.4592 160.492 31.1234C160.492 25.269 162.171 22.2568 168.04 22.2568C170.279 22.2568 171.591 22.8496 171.843 22.9123C172.098 22.9758 172.387 23.0022 172.387 22.5219C172.387 21.989 172.393 16.7019 172.393 15.9203C172.393 15.4864 172.387 15.1995 171.904 14.978C171.369 14.7329 168.846 13.3612 164.879 13.3612C149.403 13.3612 148.043 24.5173 148.043 31.2324C148.043 47.2035 159.634 47.9252 164.436 47.9252C173.277 47.9252 174.982 43.437 175.461 42.5183L175.774 46.8377C175.774 47.0392 175.938 47.2035 176.14 47.2035H187.562C187.764 47.2035 187.928 47.0392 187.928 46.8377V2.26502C187.926 2.06439 187.761 1.89917 187.56 1.89917Z" fill="#5C0F8B"></path><path d="M231.339 27.9796C231.339 13.5762 219.837 13.0288 213.338 13.0288C210.769 13.0288 203.765 13.155 197.187 15.9265C196.817 16.0827 196.691 16.2216 196.762 16.6719C196.848 17.2193 197.852 22.9848 197.914 23.3397C197.976 23.6947 198.139 23.9462 198.677 23.7346C199.068 23.5812 204.582 21.0493 210.981 21.0493C217.654 21.0493 219.28 23.3397 219.28 26.4907C218.045 26.3183 216.164 26.094 212.357 26.094C201.069 26.094 194.118 29.2269 194.118 37.0513C194.118 45.2434 199.769 47.9251 207.794 47.9251C210.28 47.9251 213.414 47.6019 215.679 46.3764C216.14 46.1267 216.215 45.9669 216.207 45.5149C216.198 45.021 216.215 41.1437 216.215 39.625C216.215 39.3454 216.106 39.2628 215.711 39.4498C213.296 40.3503 211.319 40.2241 211.123 40.2241C208.54 40.2241 205.916 39.7312 205.916 36.7881C205.916 33.7024 209.027 33.0415 213.382 33.0415C215.652 33.0415 217.766 33.1232 219.28 33.2222V46.8375C219.28 47.0391 219.418 47.2034 219.62 47.2034H230.975C231.177 47.2034 231.341 47.0391 231.341 46.8375C231.341 46.8375 231.339 28.34 231.339 27.9796Z" fill="#5C0F8B"></path><path d="M16.6919 22.4283C16.6919 27.4403 15.0597 31.4783 8.60148 31.4783C1.84464 31.4783 0.470215 27.4412 0.470215 22.4083C0.470215 17.4126 1.82467 13.3384 8.60148 13.3384C15.0197 13.3375 16.6919 17.419 16.6919 22.4283Z" fill="#0066C2"></path><path d="M0.620948 47.2425C0.729885 47.2425 16.376 47.2425 16.5022 47.2425C16.6012 47.2425 16.6692 47.1763 16.6692 47.0755C16.6692 41.8538 14.4387 38.3015 8.58427 38.3015C2.6835 38.3015 0.453003 41.8647 0.453003 47.0755C0.453911 47.1835 0.521997 47.2425 0.620948 47.2425Z" fill="#0066C2"></path><path d="M308.251 13.3494C303.91 13.3494 298.642 14.5776 295.94 19.4816L295.584 14.3952C295.584 14.1936 295.42 14.0293 295.218 14.0293H290.927C290.726 14.0293 290.561 14.1936 290.561 14.3952V59.1802C290.561 59.3817 290.726 59.5461 290.927 59.5461H295.908C296.11 59.5461 296.274 59.3817 296.274 59.1802V42.3176C298.199 45.4859 301.672 47.9261 307.95 47.9261C317.001 47.9261 323.505 43.072 323.505 30.5805C323.506 16.5975 315.852 13.3494 308.251 13.3494ZM306.938 43.3598C301.639 43.3598 297.126 41.339 296.274 33.4855V27.9397C297.076 20.3105 301.372 17.9692 306.938 17.9692C312.878 17.9692 317.602 20.7898 317.602 30.6441C317.602 40.8079 312.817 43.3598 306.938 43.3598Z" fill="#5C0F8B"></path><path d="M361.079 27.9279C361.079 18.0255 356.804 13.3493 348.091 13.3493C341.813 13.3493 338.315 15.804 336.591 19.2946V0.819706C336.591 0.618171 336.427 0.453857 336.225 0.453857H331.181C330.979 0.453857 330.815 0.618171 330.815 0.819706V46.8385C330.815 47.04 330.979 47.2043 331.181 47.2043H336.225C336.427 47.2043 336.591 47.04 336.591 46.8385V28.9364C336.591 23.8291 338.792 18.0881 347.023 18.0881C354.94 18.0881 355.239 24.1614 355.239 28.6051C355.239 29.5247 355.239 46.8385 355.239 46.8385C355.239 47.04 355.404 47.2043 355.605 47.2043H360.713C360.914 47.2043 361.078 47.04 361.078 46.8385C361.078 46.8385 361.079 31.0553 361.079 27.9279Z" fill="#5C0F8B"></path><path d="M427.946 14.0647C427.684 13.9685 426.115 13.3494 423.539 13.3494C417.513 13.3494 414.34 16.8417 413.258 20.1225L413.258 20.1017L412.823 14.3943C412.823 14.1927 412.658 14.0284 412.457 14.0284H408.145C407.943 14.0284 407.779 14.1927 407.779 14.3943V46.8385C407.779 47.0401 407.943 47.2044 408.145 47.2044H413.183C413.385 47.2044 413.549 47.0401 413.549 46.8385L413.548 30.3173C413.549 30.2946 413.549 30.2646 413.549 30.222C413.549 18.2634 421.845 18.3732 423.489 18.3732C424.962 18.3732 426.272 18.7454 426.768 18.8825C427.066 18.9651 427.676 18.9533 427.781 18.4449C427.862 18.05 428.345 15.3856 428.443 14.9008C428.535 14.4406 428.405 14.2327 427.946 14.0647Z" fill="#5C0F8B"></path><path d="M487.572 28.4627C487.572 16.5731 482.413 13.3503 475.312 13.3503C465.553 13.3503 463.938 18.5875 463.044 20.6265C462.732 19.7386 461.273 13.3503 452.204 13.3503C443.786 13.3503 441.76 17.0397 440.427 19.8612L440.02 14.3943C440.02 14.1928 439.856 14.0285 439.654 14.0285H435.358C435.157 14.0285 434.992 14.1928 434.992 14.3943V46.8422C434.992 47.0438 435.157 47.2035 435.358 47.2035H440.398C440.6 47.2035 440.764 47.0429 440.764 46.8422L440.77 29.1399C440.861 25.0575 441.852 18.0165 450.457 18.0165C456.709 18.0165 458.386 21.8111 458.386 27.908C458.386 28.3056 458.386 46.8377 458.386 46.8377C458.386 47.0392 458.55 47.2035 458.752 47.2035H463.792C463.993 47.2035 464.158 47.0392 464.158 46.8377C464.158 46.8377 464.158 31.3404 464.158 29.4549C464.158 23.3717 466.287 18.0192 474.083 18.0192C477.37 18.0192 481.797 18.9161 481.797 27.8399C481.796 27.8526 481.789 27.8635 481.789 27.8762V46.8377C481.789 47.0392 481.954 47.2035 482.155 47.2035H487.195C487.397 47.2035 487.561 47.0392 487.561 46.8377C487.561 46.8377 487.572 28.5453 487.572 28.4627Z" fill="#5C0F8B"></path><path d="M383.784 13.3347C377.287 13.3347 371.909 15.5852 371.112 16.0454C370.697 16.2842 370.641 16.4875 370.711 16.8489C370.77 17.1521 371.076 19.0158 371.284 19.7593C371.409 20.205 371.75 20.4311 372.26 20.2323C373.763 19.6467 377.698 17.8356 383.269 17.8356C391.902 17.8356 392.237 22.9875 392.218 27.0862C392.215 27.1062 392.207 27.6273 392.207 27.6273C390.665 27.4512 387.92 27.3114 384.661 27.3114C379.692 27.3114 368.227 27.3105 368.227 37.6604C368.227 47.4975 376.707 47.9178 382.184 47.9178C383.76 47.9178 390.422 47.3468 392.561 42.2122L392.824 46.8384C392.824 47.0399 392.988 47.2043 393.19 47.2043H397.628C397.829 47.2043 397.994 47.0399 397.994 46.8384C397.994 46.8384 397.994 26.2265 397.994 25.8217C397.995 17.0894 392.636 13.3347 383.784 13.3347ZM381.864 43.6157C380.181 43.6157 374.084 43.6347 374.084 37.8747C374.084 31.6317 379.587 31.3203 384.95 31.3203C388.386 31.3203 391.457 31.5627 392.208 31.6489L392.206 34.6138C392.207 43.356 384.5 43.6157 381.864 43.6157Z" fill="#5C0F8B"></path><path d="M510.456 13.3347C503.96 13.3347 498.581 15.5852 497.784 16.0454C497.369 16.2842 497.314 16.4875 497.384 16.8489C497.443 17.1521 497.749 19.0158 497.956 19.7593C498.082 20.205 498.422 20.4311 498.932 20.2323C500.436 19.6467 504.37 17.8356 509.941 17.8356C518.575 17.8356 518.91 22.9875 518.891 27.0862C518.888 27.1062 518.88 27.6273 518.88 27.6273C517.337 27.4512 514.592 27.3114 511.333 27.3114C506.365 27.3114 494.899 27.3105 494.899 37.6604C494.899 47.4975 503.38 47.9178 508.857 47.9178C510.432 47.9178 517.094 47.3468 519.234 42.2122L519.496 46.8384C519.496 47.0399 519.66 47.2043 519.862 47.2043H524.3C524.502 47.2043 524.666 47.0399 524.666 46.8384C524.666 46.8384 524.666 26.2265 524.666 25.8217C524.666 17.0894 519.308 13.3347 510.456 13.3347ZM508.536 43.6157C506.853 43.6157 500.756 43.6347 500.756 37.8747C500.756 31.6317 506.259 31.3203 511.623 31.3203C515.059 31.3203 518.129 31.5627 518.881 31.6489L518.879 34.6138C518.879 43.356 511.171 43.6157 508.536 43.6157Z" fill="#5C0F8B"></path></svg> 