<svg width="214" height="49" viewBox="0 0 214 49" fill="none" xmlns="http://www.w3.org/2000/svg">
<path d="M49.8818 11.0305L50.04 11.0324C53.3418 11.1169 56.0154 13.8433 56.0156 17.1633L54.1816 41.551L54.1797 41.7092C54.0966 44.9587 51.4545 47.5997 48.2061 47.6828L48.0488 47.6848H8.08887C4.71496 47.6845 1.95605 44.9237 1.95605 41.551L0 17.1633C0.000193788 13.8421 2.6749 11.1168 5.97559 11.0324L6.13379 11.0305H49.8818ZM6.13281 14.6213C4.77926 14.6215 3.65157 15.7147 3.59375 17.0558L5.54688 41.4074V41.551C5.54688 42.9408 6.69882 44.0937 8.08887 44.0939H48.0488C49.4386 44.0937 50.5908 42.941 50.5908 41.551V41.4172L52.4219 17.0637C52.3683 15.7189 51.2385 14.6213 49.8818 14.6213H6.13281Z" fill="#005EB8"/>
<path d="M37.5942 6.27289C37.5941 4.97553 36.525 3.90666 35.2277 3.90666H20.7877C19.4904 3.90671 18.4215 4.97556 18.4215 6.27289C18.4215 6.35921 18.4265 6.44775 18.4364 6.53752C18.4465 6.62658 18.4631 6.72024 18.4872 6.82079C18.7189 7.78503 18.1251 8.75457 17.1609 8.98629C16.1967 9.21795 15.2272 8.62412 14.9954 7.65994C14.9402 7.43027 14.8955 7.18819 14.8671 6.93394L14.8666 6.93074C14.843 6.71736 14.8301 6.49742 14.8301 6.27289C14.8301 2.99213 17.507 0.315292 20.7877 0.315247H35.2277C38.5084 0.315247 41.1853 2.99211 41.1853 6.27289C41.1853 6.75414 41.1258 7.2185 41.0202 7.65887C40.7891 8.62321 39.8199 9.21768 38.8555 8.98655C37.8912 8.7554 37.2968 7.7862 37.5279 6.82185C37.5713 6.64049 37.5942 6.45705 37.5942 6.27289Z" fill="#339CFF"/>
<path d="M28.0687 21.8386C29.0603 21.8386 29.8644 22.6426 29.8644 23.6343V29.1186H35.35C36.3417 29.1186 37.1457 29.9226 37.1457 30.9143C37.1457 31.906 36.3417 32.71 35.35 32.71H29.8644V38.1953C29.8643 39.1869 29.0603 39.991 28.0687 39.991C27.077 39.991 26.273 39.187 26.2729 38.1953V32.71H20.7889C19.7972 32.71 18.9932 31.906 18.9932 30.9143C18.9932 29.9226 19.7972 29.1186 20.7889 29.1186H26.2729V23.6343C26.2729 22.6426 27.0769 21.8386 28.0687 21.8386Z" fill="#339CFF"/>
<path d="M38.4901 25.4546C38.4901 23.7204 37.0841 22.315 35.3505 22.315C34.3588 22.315 33.5548 21.511 33.5548 20.5193C33.5548 19.5276 34.3588 18.7236 35.3505 18.7236C39.0669 18.7236 42.0816 21.7364 42.0816 25.4546C42.0815 26.4463 41.2775 27.2503 40.2859 27.2503C39.2942 27.2503 38.4902 26.4463 38.4901 25.4546Z" fill="#339CFF"/>
<path d="M212.167 24.0732V28.517H205.736V47.6594H201.015V28.517H194.583V24.0732H212.167Z" fill="#339CFF"/>
<path d="M186.567 47.6594V24.0732H191.288V47.6594H186.567Z" fill="#339CFF"/>
<path d="M182.726 43.2156H183.684V47.6594H182.213C178.998 47.6594 176.58 46.406 174.961 43.8993L171.198 38.7718L168.871 41.5407V47.6594H164.15V24.0732H168.871V34.6015L177.732 24.0732H183.547L174.379 34.9775L179.032 41.1305C180.035 42.5206 181.267 43.2156 182.726 43.2156Z" fill="#339CFF"/>
<path d="M150.964 43.2156H160.919V47.6594H146.243V24.0732H150.964V43.2156Z" fill="#339CFF"/>
<path d="M130.205 48.0695C126.647 48.0695 123.682 46.9073 121.31 44.5829C118.938 42.2356 117.752 39.3301 117.752 35.8662C117.752 32.4023 118.938 29.5082 121.31 27.1837C123.682 24.8365 126.647 23.6629 130.205 23.6629C133.74 23.6629 136.693 24.8365 139.065 27.1837C141.46 29.5082 142.657 32.4023 142.657 35.8662C142.657 39.3301 141.46 42.2356 139.065 44.5829C136.693 46.9073 133.74 48.0695 130.205 48.0695ZM124.765 41.3355C126.225 42.794 128.038 43.5232 130.205 43.5232C132.371 43.5232 134.173 42.794 135.61 41.3355C137.07 39.877 137.799 38.0539 137.799 35.8662C137.799 33.6785 137.07 31.8554 135.61 30.3969C134.173 28.9385 132.371 28.2092 130.205 28.2092C128.038 28.2092 126.225 28.9385 124.765 30.3969C123.306 31.8554 122.576 33.6785 122.576 35.8662C122.576 38.0539 123.306 39.877 124.765 41.3355Z" fill="#339CFF"/>
<path d="M102.877 48.0695C99.3187 48.0695 96.3538 46.9073 93.9819 44.5829C91.61 42.2356 90.4241 39.3301 90.4241 35.8662C90.4241 32.4023 91.61 29.5082 93.9819 27.1837C96.3538 24.8365 99.3187 23.6629 102.877 23.6629C106.412 23.6629 109.365 24.8365 111.737 27.1837C114.132 29.5082 115.329 32.4023 115.329 35.8662C115.329 39.3301 114.132 42.2356 111.737 44.5829C109.365 46.9073 106.412 48.0695 102.877 48.0695ZM97.4372 41.3355C98.8968 42.794 100.71 43.5232 102.877 43.5232C105.043 43.5232 106.845 42.794 108.282 41.3355C109.741 39.877 110.471 38.0539 110.471 35.8662C110.471 33.6785 109.741 31.8554 108.282 30.3969C106.845 28.9385 105.043 28.2092 102.877 28.2092C100.71 28.2092 98.8968 28.9385 97.4372 30.3969C95.9775 31.8554 95.2477 33.6785 95.2477 35.8662C95.2477 38.0539 95.9775 39.877 97.4372 41.3355Z" fill="#339CFF"/>
<path d="M89.8594 24.0732V28.517H83.4279V47.6594H78.7069V28.517H72.2754V24.0732H89.8594Z" fill="#339CFF"/>
<path d="M199.972 16.4565H209.196V20.1922H196.006V0.363987H209.053V4.09974H199.972V8.35275H208.104V12.0885H199.972V16.4565Z" fill="#005EB8"/>
<path d="M183.039 20.5371C180.05 20.5371 177.56 19.56 175.567 17.6059C173.575 15.6327 172.579 13.1901 172.579 10.2781C172.579 7.36615 173.575 4.93312 175.567 2.97903C177.56 1.00579 180.05 0.019165 183.039 0.019165C185.53 0.019165 187.704 0.737579 189.562 2.17441C191.42 3.61124 192.618 5.46953 193.154 7.7493H188.959C188.48 6.58068 187.704 5.64195 186.631 4.93312C185.577 4.20512 184.38 3.84113 183.039 3.84113C181.219 3.84113 179.696 4.45418 178.47 5.68027C177.244 6.90636 176.631 8.43898 176.631 10.2781C176.631 12.1173 177.244 13.6499 178.47 14.876C179.696 16.1021 181.219 16.7151 183.039 16.7151C184.38 16.7151 185.577 16.3607 186.631 15.6519C187.704 14.9239 188.48 13.9756 188.959 12.8069H193.154C192.618 15.0867 191.42 16.945 189.562 18.3818C187.704 19.8187 185.53 20.5371 183.039 20.5371Z" fill="#005EB8"/>
<path d="M165.558 20.1922V0.363987H169.524V20.1922H165.558Z" fill="#005EB8"/>
<path d="M162.787 0.363987V4.09974H157.385V20.1922H153.419V4.09974H148.017V0.363987H162.787Z" fill="#005EB8"/>
<path d="M137.633 20.5371C134.644 20.5371 132.154 19.56 130.161 17.6059C128.169 15.6327 127.173 13.1901 127.173 10.2781C127.173 7.36615 128.169 4.93312 130.161 2.97903C132.154 1.00579 134.644 0.019165 137.633 0.019165C140.124 0.019165 142.298 0.737579 144.156 2.17441C146.014 3.61124 147.212 5.46953 147.748 7.7493H143.553C143.074 6.58068 142.298 5.64195 141.225 4.93312C140.171 4.20512 138.974 3.84113 137.633 3.84113C135.813 3.84113 134.29 4.45418 133.064 5.68027C131.838 6.90636 131.225 8.43898 131.225 10.2781C131.225 12.1173 131.838 13.6499 133.064 14.876C134.29 16.1021 135.813 16.7151 137.633 16.7151C138.974 16.7151 140.171 16.3607 141.225 15.6519C142.298 14.9239 143.074 13.9756 143.553 12.8069H147.748C147.212 15.0867 146.014 16.945 144.156 18.3818C142.298 19.8187 140.124 20.5371 137.633 20.5371Z" fill="#005EB8"/>
<path d="M122.772 20.1922L121.364 16.3415H112.858L111.45 20.1922H107.168L114.812 0.363987H119.496L127.112 20.1922H122.772ZM114.18 12.692H120.014L117.111 4.73195L114.18 12.692Z" fill="#005EB8"/>
<path d="M105.431 16.4565H106.236V20.1922H105C102.107 20.1922 100.009 19.0428 98.7066 16.7438L96.379 13.123H94.5111V20.1922H90.5454V0.363987H99.1951C101.111 0.363987 102.711 0.986613 103.994 2.23187C105.278 3.45796 105.92 5.00015 105.92 6.85845C105.92 8.35275 105.469 9.65548 104.569 10.7666C103.668 11.8586 102.481 12.577 101.006 12.9219L102.5 14.9622C103.209 15.9584 104.186 16.4565 105.431 16.4565ZM94.5111 4.09974V9.67464H99.1089C99.8752 9.67464 100.517 9.40643 101.034 8.87001C101.571 8.3336 101.839 7.67265 101.839 6.88719C101.839 6.10172 101.571 5.44078 101.034 4.90437C100.517 4.36795 99.8752 4.09974 99.1089 4.09974H94.5111Z" fill="#005EB8"/>
<path d="M81.1272 0.363987C83.0622 0.363987 84.681 0.996192 85.9837 2.2606C87.2864 3.52501 87.9378 5.09594 87.9378 6.9734C87.9378 8.85085 87.2864 10.4218 85.9837 11.6862C84.681 12.9506 83.0622 13.5828 81.1272 13.5828H76.242V20.1922H72.2764V0.363987H81.1272ZM81.041 9.84706C81.8456 9.84706 82.5162 9.57885 83.0526 9.04243C83.589 8.48686 83.8572 7.79718 83.8572 6.9734C83.8572 6.14962 83.589 5.46952 83.0526 4.9331C82.5162 4.37753 81.8456 4.09974 81.041 4.09974H76.242V9.84706H81.041Z" fill="#005EB8"/>
</svg>
