<svg xmlns="http://www.w3.org/2000/svg" viewBox="0 0 173.23 95.68"><defs><style>.cls-1{fill:#1367f1;}.cls-2{fill:#ff3e4c;}.cls-3{fill:#ea91c0;}.cls-4{fill:#ff94bb;}.cls-5{fill:#ff8db2;}.cls-6{fill:#fd8cb1;}.cls-7{fill:#ea435c;}</style></defs><g id="Layer_4" data-name="Layer 4"><path class="cls-1" d="M153.8,24.31c0,3.32-2.72,5.87-7.16,6.15q-.4,0-.84,0a10.88,10.88,0,0,1-3.52-.55c-3.07-1-5.06-3.38-5.2-6.2h4.48c.15,1.71,1.78,3.11,4.17,3.11s3.83-1.06,3.83-2.5c0-4.1-12.14-1.75-12.14-9.4,0-3.34,3.11-6,8-6,4.74,0,7.85,2.54,8.08,6.71h-4.33c-.15-1.82-1.55-3.07-3.9-3.07s-3.53.94-3.53,2.35c0,4.21,11.79,1.86,12,9.4"/><path class="cls-1" d="M153.5,44.68h11.56c-.07-3.22-2.61-5.27-5.84-5.27a5.69,5.69,0,0,0-5.72,5.27m5.91,12.66c-6,0-10.42-4.24-10.42-10.8s4.24-10.77,10.42-10.77c6,0,10.17,4.13,10.17,10.28a12.61,12.61,0,0,1-.16,2.12h-16a5.75,5.75,0,0,0,5.95,5.53,5.06,5.06,0,0,0,4.93-2.91H169c-1.18,3.63-4.48,6.55-9.6,6.55"/><path class="cls-1" d="M74,30.49c-5,0-8.53-3-8.72-6.75h4.48c.15,1.71,1.78,3.11,4.17,3.11s3.83-1.06,3.83-2.5c0-4.1-12.14-1.75-12.14-9.41,0-3.33,3.11-6,8-6,4.74,0,7.85,2.54,8.08,6.71H77.45c-.16-1.82-1.56-3.07-3.91-3.07S70,13.5,70,14.91c0,4.21,11.8,1.86,12,9.4,0,3.53-3.07,6.18-8,6.18"/><path class="cls-1" d="M94.13,12.67c-3.23,0-6.33,2.43-6.33,6.94s3.1,7.13,6.33,7.13,6.33-2.54,6.33-7.06-3.07-7-6.33-7m-.91-3.75a8.91,8.91,0,0,1,7.24,3.37v-3h4.36V30.15h-4.36V27a9,9,0,0,1-7.32,3.45c-5.42,0-9.78-4.44-9.78-10.88S87.72,8.92,93.22,8.92"/><rect class="cls-1" x="108.61" y="2.09" width="4.32" height="28.06"/><path class="cls-1" d="M119.8,17.83h11.56c-.08-3.23-2.62-5.27-5.84-5.27a5.68,5.68,0,0,0-5.72,5.27m5.91,12.66c-6,0-10.43-4.25-10.43-10.81s4.25-10.76,10.43-10.76c6,0,10.16,4.13,10.16,10.27a13.74,13.74,0,0,1-.15,2.12h-16a5.74,5.74,0,0,0,5.95,5.54,5.07,5.07,0,0,0,4.93-2.92h4.66c-1.17,3.64-4.47,6.56-9.59,6.56"/><path class="cls-1" d="M94.92,45.33c0-3.83-2.08-5.81-5.23-5.81s-5.27,2-5.27,5.81V57H80.14V45.33c0-3.83-2.09-5.81-5.24-5.81s-5.27,2-5.27,5.81V57H65.31V36.11h4.32V38.5a8,8,0,0,1,6.18-2.73,8.06,8.06,0,0,1,7.51,4.13,8.18,8.18,0,0,1,7.28-4.13c4.89,0,8.61,3.07,8.61,8.91V57H94.92Z"/><path class="cls-1" d="M112.14,39.52c-3.23,0-6.34,2.43-6.34,6.94s3.11,7.13,6.34,7.13,6.33-2.54,6.33-7.05-3.07-7-6.33-7m-.91-3.75a8.89,8.89,0,0,1,7.24,3.38v-3h4.36V57h-4.36V53.89a9,9,0,0,1-7.32,3.45c-5.42,0-9.78-4.43-9.78-10.88s4.36-10.69,9.86-10.69"/><path class="cls-1" d="M136,53.59c-3.23,0-6.34-2.61-6.34-7.13s3.11-6.93,6.34-6.93,6.33,2.54,6.33,7-3.07,7.05-6.33,7.05m9.85-21.75a10.88,10.88,0,0,1-3.52-.55V39a9.65,9.65,0,0,0-7.21-3.26c-5.53,0-9.89,4.25-9.89,10.69s4.36,10.88,9.85,10.88a8.68,8.68,0,0,0,7.25-3.48V57h4.36V31.82c-.27,0-.55,0-.84,0"/><path class="cls-1" d="M69.82,71.45H81.39c-.08-3.23-2.62-5.27-5.84-5.27a5.7,5.7,0,0,0-5.73,5.27m5.92,12.66c-6,0-10.43-4.25-10.43-10.81s4.25-10.76,10.43-10.76c6,0,10.16,4.13,10.16,10.27a13.87,13.87,0,0,1-.15,2.13h-16a5.73,5.73,0,0,0,5.95,5.53,5.07,5.07,0,0,0,4.93-2.92h4.66c-1.17,3.64-4.47,6.56-9.59,6.56"/><path class="cls-1" d="M97.58,66.29c-3.23,0-6.33,2.43-6.33,6.94s3.1,7.13,6.33,7.13,6.33-2.54,6.33-7-3.07-7-6.33-7m-.91-3.75a8.91,8.91,0,0,1,7.24,3.37v-3h4.36V83.77h-4.36V80.66a9,9,0,0,1-7.32,3.45c-5.42,0-9.78-4.43-9.78-10.88s4.36-10.69,9.86-10.69"/><path class="cls-1" d="M119.64,84.11c-5,0-8.53-3-8.72-6.75h4.48c.15,1.71,1.78,3.11,4.17,3.11s3.83-1.06,3.83-2.5c0-4.1-12.14-1.74-12.14-9.4,0-3.34,3.11-6,8-6,4.74,0,7.85,2.54,8.08,6.71h-4.33c-.15-1.82-1.55-3.07-3.9-3.07s-3.53.94-3.53,2.35c0,4.21,11.8,1.86,12,9.4,0,3.53-3.07,6.18-8,6.18"/><polygon class="cls-1" points="144.74 62.88 149.22 62.88 136.4 93.59 131.93 93.59 136.17 83.43 127.95 62.88 132.76 62.88 138.64 78.8 144.74 62.88"/><path class="cls-2" d="M151.64,81.27a3.13,3.13,0,1,1-3.11-3.14,3.09,3.09,0,0,1,3.11,3.14"/><path class="cls-1" d="M33.06,51.25A16.34,16.34,0,1,1,15,25.91a13.06,13.06,0,0,0,9.37,8.71,15.21,15.21,0,0,0,8.74,16.63Z"/><path class="cls-3" d="M36.33,41.45a16.24,16.24,0,0,1-3.27,9.8,15.21,15.21,0,0,1-8.74-16.63,12.71,12.71,0,0,0,3,.36,13,13,0,0,0,6.69-1.84A16.18,16.18,0,0,1,36.33,41.45Z"/><path class="cls-4" d="M54.58,37.34A15.25,15.25,0,0,1,33.06,51.25a16.3,16.3,0,0,0,1-18.11,13,13,0,0,0,6.34-11A15.25,15.25,0,0,1,54.58,37.34Z"/><path class="cls-5" d="M40.39,22.13a13,13,0,0,1-6.34,11,16.3,16.3,0,0,0-6.1-6,15.22,15.22,0,0,1,11.38-5.09C39.69,22.09,40,22.1,40.39,22.13Z"/><path class="cls-6" d="M34.05,33.14A13,13,0,0,1,27.36,35a12.71,12.71,0,0,1-3-.36A15.14,15.14,0,0,1,28,27.18,16.3,16.3,0,0,1,34.05,33.14Z"/><path class="cls-7" d="M28,27.18a15.14,15.14,0,0,0-3.63,7.44A13.06,13.06,0,0,1,15,25.91a16.32,16.32,0,0,1,13,1.27Z"/><path class="cls-2" d="M40.4,21.94a1.15,1.15,0,0,1,0,.19c-.35,0-.7,0-1.06,0A15.22,15.22,0,0,0,28,27.18a16.32,16.32,0,0,0-13-1.27,13,13,0,1,1,25.45-4Z"/></g></svg>