<?xml version="1.0" encoding="UTF-8"?>
<svg id="Layer_1" data-name="Layer 1" xmlns="http://www.w3.org/2000/svg" viewBox="0 0 767.72 428.7">
  <defs>
    <style>
      .cls-1 {
        fill: #005662;
        stroke-width: 0px;
      }
    </style>
  </defs>
  <g>
    <path class="cls-1" d="M377.25,183.12h16.81v-103.11h-31.35v20.77h-16.43v-36.26h114.44v36.26h-16.43v-20.77h-31.35v103.11h16.81v14.73h-52.5v-14.73Z"/>
    <path class="cls-1" d="M472.24,183.69h15.11v-105h-16.05v-14.16h34.18v49.48c0,4.53-.57,7.93-.57,7.93h.38c4.15-9.25,16.62-21.91,35.69-21.91,22.47,0,32.86,12.28,32.86,36.64v47.02h14.92v14.16h-33.24v-57.03c0-13.41-2.83-23.98-18.13-23.98-18.7,0-31.92,15.86-31.92,36.26v30.59h15.11v14.16h-48.35v-14.16Z"/>
    <path class="cls-1" d="M649.01,100.03c27.19,0,41.36,20.02,41.36,44.76,0,2.46-.57,6.99-.57,6.99h-69.88c1.13,21.15,16.05,32.48,33.05,32.48s28.52-10.77,28.52-10.77l7.55,13.41s-14.35,13.22-37.2,13.22c-30.03,0-50.61-21.72-50.61-50.05,0-30.4,20.58-50.05,47.78-50.05ZM671.48,140.07c-.57-16.81-10.77-25.5-22.85-25.5-13.98,0-25.31,9.44-27.95,25.5h50.8Z"/>
    <path class="cls-1" d="M350.81,346.79h16.62v-104.06h-16.62v-14.54h35.32l65.53,95.56c2.27,3.78,4.53,9.63,4.53,9.63h.57s-.94-6.61-.94-10.77v-79.88h-17v-14.54h52.69v14.54h-16.81v118.79h-18.51l-65.53-95.56c-2.45-3.78-4.53-9.63-4.53-9.63h-.57s.94,6.61.76,10.76v79.7h17.19v14.73h-52.69v-14.73Z"/>
    <path class="cls-1" d="M550.81,263.7c27.19,0,41.36,20.02,41.36,44.76,0,2.46-.57,6.99-.57,6.99h-69.88c1.13,21.15,16.05,32.48,33.05,32.48s28.52-10.77,28.52-10.77l7.55,13.41s-14.35,13.22-37.2,13.22c-30.03,0-50.61-21.72-50.61-50.05,0-30.4,20.58-50.05,47.78-50.05ZM573.28,303.73c-.57-16.81-10.77-25.5-22.85-25.5-13.98,0-25.31,9.44-27.95,25.5h50.8Z"/>
    <path class="cls-1" d="M607.65,330.74h16.05v6.23c0,8.12,11.33,11.9,21.91,11.9s19.26-4.34,19.26-12.28c0-9.63-10.58-12.65-23.79-17.37-14.16-5.29-29.84-11.71-29.84-29.08,0-18.89,18.7-26.44,35.32-26.44,13.41,0,33.05,5.29,33.05,19.26v11.52h-16.05v-6.23c0-5.85-7.55-9.82-16.81-9.82s-17,3.78-17,11.52c0,9.06,10.57,12.84,22.1,16.81,14.73,4.91,31.54,11.14,31.54,28.9s-16.62,28.14-38.34,28.14c-17.37,0-37.39-7.74-37.39-22.85v-10.2Z"/>
    <path class="cls-1" d="M710.38,280.13h-16.05v-14.16h16.43v-26.25h17.94v26.25h22.85v14.16h-22.85v44.76c0,19.45,13.22,21.91,20.4,21.91,2.64,0,4.34-.19,4.34-.19v15.3s-2.64.38-6.61.38c-12.09,0-36.45-3.78-36.45-35.69v-46.46Z"/>
  </g>
  <g>
    <path class="cls-1" d="M173.83,157.8c.11-.3-.1-.63-.46-.77-.36-.13-.73,0-.84.3-.11.29.1.63.46.76.36.14.74,0,.84-.29Z"/>
    <path class="cls-1" d="M173.58,149.56c.23-.66-.23-1.42-1.04-1.71-.81-.29-1.65,0-1.88.66-.24.66.23,1.42,1.03,1.71.81.29,1.66,0,1.89-.66Z"/>
    <path class="cls-1" d="M166.39,158.58c-1.05-.61-2.66.22-3.6,1.84-.94,1.62-.84,3.43.2,4.03,1.05.61,2.66-.22,3.6-1.84.94-1.62.84-3.43-.2-4.03Z"/>
    <path class="cls-1" d="M176.82,162.33c-1.16-.36-2.55.79-3.11,2.58-.56,1.79-.08,3.53,1.08,3.89,1.16.36,2.55-.79,3.11-2.58.56-1.79.08-3.53-1.08-3.89Z"/>
    <path class="cls-1" d="M182.95,153.52c.36.13.73,0,.84-.3.11-.29-.1-.63-.46-.76-.36-.14-.74,0-.84.29-.11.3.1.63.46.77Z"/>
    <path class="cls-1" d="M168.41,147.11s-.03,0-.05,0c-.34-.11-.68.02-.79.31-.09.27.07.58.38.71.03.03.05.04.08.05.36.13.74,0,.84-.3.11-.29-.1-.63-.46-.76Z"/>
    <path class="cls-1" d="M144.49,34.38h0c-62.92,0-113.92,51.01-113.92,113.92v131.71c0,62.92,51.01,113.92,113.92,113.92h0c62.92,0,113.92-51.01,113.92-113.92v-131.71c0-62.92-51.01-113.92-113.92-113.92ZM199.77,309.81c-1.33,28.72-23.01,49.65-52.53,49.62-29.62-.04-51.17-20.91-51.73-50.11-.46-24.15,9.89-46.88,23.1-66.57.53-.79,1.16-1.65,2.1-1.85.71-.15,1.44.11,2.12.4,3.82,1.62,7.31,3.99,10.23,6.94.93.94,1.84,2.02,2.01,3.33.18,1.37-.46,2.69-1.09,3.92-6.39,12.47-13.97,24.66-16.91,38.5-1.04,4.89-1.5,9.9-1.28,14.9.75,17.34,12.94,29.71,30.42,30.58,16.6.84,30.86-11.42,33-28.07,2.36-18.35-4.86-33.25-17.23-45.73-8.6-8.67-18.64-15.87-27.69-24.11-18.45-16.79-36.68-33.83-54.75-50.56-.31-.28-.79-.06-.79.35v98.3c0,.26-.22.48-.48.48h-18.83c-.26,0-.48-.22-.48-.47v-128c0-7.95-.27-15.91-.41-23.86,6.65-.23,13.31-.45,19.96-.68.11,0,8.6,21.32,9.72,23.45,3.93,7.46,8.53,14.56,13.64,21.26,10.31,13.51,22.66,25.34,35.82,36.03,9.77,7.93,19.64,15.75,29.15,23.99,20.65,17.9,34.29,39.09,32.94,67.96ZM230.46,288.06s-.02.04-.04.05c-6.72.9-12.55,1.69-19.22,2.58-.02,0-.04,0-.05-.02-10.48-33.8-32.83-58.61-59.43-80.21-9.77-7.94-19.64-15.76-29.16-24-20.64-17.9-34.28-39.09-32.94-67.96,1.33-28.72,23.01-49.65,52.53-49.62,29.63.03,51.18,20.9,51.74,50.1.11,5.87-.3,11.31-1.16,16.45l.08.04c-3.33,16.54-3.47,28.39-10.65,35.28-3.33,3.21-6.54,7.92-9.99,10.89-.1.09-.2.18-.3.25-2.49,2.09-5.11,3.22-8,2.18-9.4-3.37-8.71-20.6-6.8-28.3,1.04-4.17,3.36-7.89,5.65-11.52,2.8-4.45,5.6-8.89,8.4-13.34,2.59-4.11,2.7-6.62,2.5-11.5-.75-17.34-12.94-29.71-30.41-30.58-16.6-.84-30.87,11.42-33.01,28.07-2.35,18.35,4.87,33.25,17.23,45.73,8.6,8.67,18.64,15.88,27.7,24.11,18.7,17.02,37.16,34.29,55.48,51.24.02.02.06,0,.06-.03v-99.74s.02-.04.04-.04h19.71s.04.02.04.04v149.85Z"/>
    <path class="cls-1" d="M172.83,153.98c-.23.65.23,1.41,1.04,1.7.8.29,1.65,0,1.88-.66.23-.66-.23-1.42-1.04-1.71-.8-.29-1.65,0-1.88.67Z"/>
    <path class="cls-1" d="M178.18,143.64c.36.13.73,0,.84-.3.11-.29-.1-.63-.46-.76-.36-.14-.74,0-.84.29-.11.3.1.63.46.77Z"/>
    <path class="cls-1" d="M176.87,147.28c.81.29,1.65,0,1.88-.67.24-.65-.23-1.41-1.04-1.7-.8-.3-1.65,0-1.88.66-.23.66.23,1.42,1.04,1.71Z"/>
    <path class="cls-1" d="M177.93,151.12c-.23.65.23,1.41,1.04,1.7.8.29,1.65,0,1.88-.66.23-.66-.23-1.42-1.04-1.71-.8-.29-1.65,0-1.88.67Z"/>
  </g>
</svg>