<?xml version="1.0" encoding="UTF-8"?> <svg xmlns="http://www.w3.org/2000/svg" viewBox="0 0 277.6 63.1"><path d="M55.6,28.9l-7.7,16V63.1h7.7Z" style="fill:#f05224"></path><path d="M20.2,63.1h10L55.6,8.6H46.2Z" style="fill:#f05224"></path><path d="M0,63.1H9.2L35.4,8.6H26Z" style="fill:#f05224"></path><path d="M0,42.8l7.6-16V8.6H0Z" style="fill:#f05224"></path><path d="M85.9,24.6,90.6,8.8h5.3L88.3,32H83.6L78.5,16.3,73.3,32H68.6L61.1,8.8h5.4l4.6,15.8L76.2,8.7h4.5Z" style="fill:#2e2f2f"></path><path d="M113.3,28.1a8.4,8.4,0,0,0,6.2-2.8l3.1,2.8a11.8,11.8,0,0,1-9.4,4.3c-6.7,0-11.8-4.9-11.8-12S106,8.3,112.6,8.3s11.1,5.8,11.1,12.5c0,.5-.1.9-.1,1.4h-17A6.6,6.6,0,0,0,113.3,28.1Zm5.1-9.4c-.3-3.4-2.3-6-5.8-6s-5.5,2.4-6,6Z" style="fill:#2e2f2f"></path><path d="M145.2,32.4a9.3,9.3,0,0,1-7.8-4.1v3.6h-5.3V0h5.3V12.7a9.2,9.2,0,0,1,7.8-4.4c5.4,0,10.7,4.4,10.7,12S150.7,32.4,145.2,32.4ZM144,12.9c-3.6,0-6.8,2.9-6.8,7.4s3.2,7.5,6.8,7.5,6.6-2.9,6.6-7.5S147.5,12.9,144,12.9Z" style="fill:#2e2f2f"></path><path d="M90,39c5,0,8.1,3.2,8.1,8.9V62.6H92.8V49.5c0-3.7-1.7-5.7-4.7-5.7s-4.9,2-4.9,5.8v13H77.9V49.4c0-3.6-1.7-5.6-4.7-5.6s-4.9,2.2-4.9,5.8v13H63V39.5h5.3V43c1.5-2,3.5-4,7-4a7.4,7.4,0,0,1,6.9,4.1A9.5,9.5,0,0,1,90,39Z" style="fill:#2e2f2f"></path><path d="M121.7,62.6V59.7a9.3,9.3,0,0,1-7.5,3.3c-4.3,0-8.2-2.4-8.2-7.1h0c0-4.9,4-7.4,9.4-7.4a19.3,19.3,0,0,1,6.3,1v-.6c0-3.2-2-4.9-5.6-4.9a16.3,16.3,0,0,0-6.6,1.4L108,41.1a19.4,19.4,0,0,1,8.8-1.9c6.8,0,10.1,3.5,10.1,9.7V62.6Zm.1-9.8a16,16,0,0,0-5.3-.9c-3.3,0-5.2,1.3-5.2,3.7h0c0,2.1,1.9,3.4,4.4,3.4s6.1-2,6.1-4.9Z" style="fill:#2e2f2f"></path><path d="M141.6,62.6h-5.3V39.5h5.3v5.2c1.4-3.4,4.1-5.8,8.2-5.6v5.6h-.3c-4.7,0-7.9,3-7.9,9.1Z" style="fill:#2e2f2f"></path><path d="M179,62.6h-6.1l-6.9-10L162.7,56v6.6h-5.2V30.7h5.2v19l9.6-10.2h6.4l-9.2,9.4Z" style="fill:#2e2f2f"></path><path d="M195.5,58.8a8.4,8.4,0,0,0,6.3-2.8l3.1,2.8a11.9,11.9,0,0,1-9.5,4.3,11.6,11.6,0,0,1-11.8-12c0-6.7,4.7-12.1,11.3-12.1s11,5.8,11,12.5a6.6,6.6,0,0,1-.1,1.4H188.9A6.5,6.5,0,0,0,195.5,58.8Zm5.2-9.4c-.4-3.4-2.4-6-5.9-6s-5.5,2.4-6,6Z" style="fill:#2e2f2f"></path><path d="M220.7,55.4c0,2,1.1,2.8,2.9,2.8a7.1,7.1,0,0,0,3.2-.7v4.3a9.7,9.7,0,0,1-4.7,1.2c-3.9,0-6.7-1.7-6.7-6.8V44.1h-2.9V39.5h2.9V33.2h5.3v6.3h6.2v4.6h-6.2Z" style="fill:#2e2f2f"></path><path d="M245.3,58.8a8.4,8.4,0,0,0,6.3-2.8l3.1,2.8a11.8,11.8,0,0,1-9.4,4.3,11.6,11.6,0,0,1-11.9-12c0-6.7,4.7-12.1,11.3-12.1s11,5.8,11,12.5a6.6,6.6,0,0,1-.1,1.4H238.7A6.5,6.5,0,0,0,245.3,58.8Zm5.2-9.4c-.4-3.4-2.4-6-5.9-6s-5.5,2.4-5.9,6Z" style="fill:#2e2f2f"></path><path d="M269.4,62.6h-5.2V39.5h5.2v5.2c1.5-3.4,4.1-5.8,8.2-5.6v5.6h-.3c-4.6,0-7.9,3-7.9,9.1Z" style="fill:#2e2f2f"></path></svg> 