<?xml version="1.0" encoding="UTF-8"?><svg id="Layer_1" xmlns="http://www.w3.org/2000/svg" viewBox="0 0 1080 1080.01"><defs><style>.cls-1{fill:#262626;}</style></defs><path class="cls-1" d="m540,1080.01C242.25,1080.01,0,837.76,0,540S242.25,0,540,0s540,242.25,540,540-242.24,540-540,540Zm0-1059.42C253.6,20.59,20.59,253.6,20.59,540s233.01,519.41,519.41,519.41,519.41-233.01,519.41-519.41S826.41,20.59,540,20.59Z"/><path class="cls-1" d="m272.85,348.44l-114.31-76.6,10.76-12.33,83.67,58.51-67.05-77.56,9.64-11.04,86.07,55.77-70.26-73.88,10.76-12.33,92.38,101.73-11.78,13.5-81.66-53.26,63.41,74.18-11.63,13.32Z"/><path class="cls-1" d="m342.04,278.87l-75.81-113.5,35.66-23.82,8.49,12.71-20.7,13.83,24.29,36.37,19.61-13.1,8.4,12.58-19.6,13.09,26.14,39.15,21.15-14.13,8.48,12.71-36.11,24.12Z"/><path class="cls-1" d="m398.81,244.47l-52.33-126.06,16.62-6.89,46.53,112.09,23.7-9.84,5.8,13.97-40.32,16.74Z"/><path class="cls-1" d="m481.47,219.86c-6.51,1.2-12.08.64-16.72-1.71-4.64-2.35-8.46-6.34-11.45-11.99-2.99-5.65-5.28-12.75-6.85-21.29l-10.56-56.96c-1.12-6.05-1.71-11.6-1.74-16.67-.05-5.07.65-9.57,2.1-13.53,1.46-3.95,3.82-7.21,7.1-9.79,3.28-2.58,7.7-4.38,13.24-5.41,5.13-.95,9.58-.87,13.33.25,3.76,1.12,6.94,3.15,9.56,6.08,2.62,2.93,4.78,6.61,6.46,11.03,1.69,4.42,3.04,9.43,4.08,15.02l3.04,16.39-17.23,3.2-2.94-15.86c-1.41-7.63-3.04-13.19-4.9-16.68-1.86-3.49-4.72-4.88-8.58-4.17-4.12.76-6.52,3.21-7.2,7.33-.68,4.12-.35,9.82,1,17.09l11.12,60.01c1.06,5.74,2.21,10.36,3.43,13.83,1.22,3.48,2.7,5.91,4.42,7.3,1.73,1.39,3.91,1.84,6.56,1.35,3.91-.72,6.17-3.12,6.76-7.2.58-4.08.08-10.44-1.52-19.08l-3.1-16.7,17.47-3.23,3.04,16.47c1.63,8.8,2.12,16.31,1.5,22.55-.64,6.24-2.67,11.22-6.11,14.93-3.45,3.71-8.54,6.2-15.31,7.44Z"/><path class="cls-1" d="m532.15,211.83l8.76-136.21,17.96,1.15-3.66,56.96,20.51,1.31,3.66-56.95,17.95,1.15-8.76,136.21-17.96-1.16,4.13-64.23-20.5-1.32-4.14,64.23-17.95-1.15Z"/><path class="cls-1" d="m655.76,233.71l55.46-124.7,39.75,17.68-6.24,14.03-23.31-10.37-16.35,36.77,21.75,9.68-6.3,14.17-21.75-9.68-26.57,59.73-16.44-7.31Z"/><path class="cls-1" d="m715.08,263.79l76.3-113.17,14.98,10.1-76.3,113.17-14.98-10.1Z"/><path class="cls-1" d="m757.63,295.99l83.14-88.2-11.29-10.64,10.48-11.12,34.93,32.93-10.47,11.12-10.61-10-83.13,88.2-13.04-12.28Z"/><path class="cls-1" d="m793.7,331.96l112.94-76.65,7.79,11.48-55.97,74.82,31.02-22.93,41.19-27.95,9.02,13.27-112.93,76.66-7.31-10.79,57.44-75.54-28.36,20.48-45.5,30.88-9.32-13.73Z"/><path class="cls-1" d="m838.25,405.18l127.41-48.91,15.37,40.04-14.27,5.47-8.92-23.24-40.83,15.67,8.45,22.01-14.12,5.42-8.44-22.02-43.95,16.87,9.11,23.75-14.26,5.47-15.56-40.54Z"/><path class="cls-1" d="m861.52,490.82c-.87-5.51-.63-10.2.69-14.04,1.34-3.85,3.61-7.04,6.82-9.59,3.21-2.54,7.21-4.58,12-6.12,4.78-1.53,10.2-2.78,16.29-3.73l12.64-1.98,2.68,17.09-13.64,2.14c-8.52,1.33-14.53,2.95-18,4.82-3.47,1.88-4.88,4.89-4.24,9.03.44,2.81,1.43,4.8,2.98,5.97,1.55,1.17,3.81,1.73,6.78,1.68,2.98-.04,6.86-.44,11.66-1.2,5.62-.88,10.39-2.71,14.33-5.51,3.93-2.79,7.7-6.56,11.3-11.3l7.87-10.82c2.36-3.04,4.91-5.99,7.69-8.86,2.77-2.87,6-5.35,9.69-7.45,3.71-2.1,8.05-3.54,13.07-4.32,6.89-1.08,12.94-1.22,18.14-.41,5.2.8,9.43,2.96,12.67,6.45,3.24,3.5,5.41,8.77,6.52,15.82.85,5.46.64,10.02-.64,13.68-1.29,3.66-3.47,6.64-6.57,8.95-3.09,2.32-6.93,4.17-11.53,5.58-4.59,1.4-9.79,2.56-15.62,3.47l-8.12,1.27-2.62-16.7,9.27-1.45c4.91-.77,8.94-1.63,12.12-2.57,3.18-.95,5.48-2.18,6.92-3.72,1.43-1.53,1.95-3.58,1.55-6.13-.38-2.4-1.25-4.26-2.59-5.56-1.36-1.3-3.25-2.11-5.68-2.4-2.43-.3-5.48-.16-9.16.41-3.27.52-5.94,1.34-8.01,2.48-2.07,1.14-3.96,2.68-5.67,4.66-1.7,1.97-3.65,4.35-5.82,7.15l-9.08,11.63c-4.58,5.9-9.74,10.86-15.49,14.87-5.75,4.01-12.61,6.65-20.58,7.9-7.72,1.2-14.41,1.45-20.07.71-5.66-.74-10.23-2.82-13.7-6.25-3.46-3.44-5.75-8.65-6.84-15.65Z"/><path class="cls-1" d="m864.52,561.65c.36-5.57,1.61-10.09,3.75-13.55s5.05-6.09,8.74-7.87c3.7-1.78,8.04-2.9,13.04-3.35,5-.46,10.57-.49,16.71-.09l12.77.82-1.11,17.26-13.77-.88c-8.62-.56-14.83-.29-18.63.78-3.8,1.07-5.84,3.71-6.11,7.88-.18,2.84.35,5,1.61,6.48,1.25,1.48,3.34,2.52,6.25,3.12,2.92.6,6.79,1.05,11.64,1.37,5.68.36,10.74-.38,15.19-2.25,4.44-1.87,8.93-4.72,13.48-8.57l10.05-8.83c2.95-2.45,6.09-4.78,9.42-6.97,3.33-2.2,7.03-3.91,11.1-5.16,4.07-1.24,8.63-1.7,13.68-1.38,6.97.45,12.9,1.64,17.8,3.55,4.9,1.92,8.56,4.94,10.96,9.06,2.4,4.12,3.38,9.74,2.92,16.86-.36,5.52-1.56,9.92-3.61,13.21-2.05,3.29-4.83,5.72-8.36,7.31-3.52,1.59-7.68,2.56-12.46,2.93-4.79.37-10.13.36-16.01-.02l-8.21-.52,1.1-16.88,9.35.61c4.96.32,9.08.36,12.4.13,3.3-.23,5.82-.94,7.55-2.12,1.73-1.18,2.68-3.07,2.85-5.65.15-2.43-.28-4.42-1.32-5.99-1.05-1.57-2.72-2.77-5.02-3.59-2.31-.82-5.32-1.36-9.03-1.59-3.3-.22-6.08,0-8.36.66-2.27.66-4.45,1.76-6.55,3.31-2.09,1.55-4.5,3.45-7.24,5.71l-11.4,9.37c-5.75,4.76-11.86,8.47-18.35,11.13-6.49,2.67-13.77,3.74-21.81,3.22-7.79-.5-14.37-1.73-19.73-3.67-5.37-1.96-9.38-4.99-12-9.09-2.64-4.11-3.73-9.69-3.28-16.76Z"/><path class="cls-1" d="m902.21,673.08l16.19,6.29-5.97,15.4-16.19-6.29,5.98-15.39Z"/><path class="cls-1" d="m803.25,736.27l112.94,78.58-10.97,12.15-82.64-59.96,65.69,78.72-9.83,10.87-85.08-57.26,68.96,75.09-10.97,12.14-90.59-103.32,12.01-13.29,80.72,54.68-62.1-75.27,11.86-13.12Z"/><path class="cls-1" d="m732.79,804.67l73.81,114.81-36.07,23.19-8.26-12.85,20.94-13.46-23.65-36.79-19.83,12.75-8.17-12.71,19.82-12.76-25.45-39.59-21.4,13.75-8.26-12.85,36.53-23.49Z"/><path class="cls-1" d="m675.41,838.07l50.09,126.96-16.73,6.6-44.55-112.89-23.88,9.42-5.55-14.07,40.62-16.03Z"/><path class="cls-1" d="m592.39,861.21c6.53-1.09,12.09-.42,16.69,2.01,4.61,2.43,8.35,6.49,11.24,12.19,2.89,5.7,5.05,12.84,6.48,21.4l9.55,57.14c1.01,6.07,1.49,11.63,1.46,16.7-.05,5.06-.83,9.56-2.35,13.48-1.52,3.91-3.95,7.14-7.27,9.66-3.33,2.53-7.77,4.25-13.33,5.18-5.14.86-9.59.7-13.32-.49-3.74-1.19-6.89-3.26-9.46-6.24-2.57-2.99-4.66-6.69-6.26-11.14-1.61-4.45-2.88-9.48-3.81-15.09l-2.75-16.44,17.29-2.89,2.66,15.91c1.28,7.65,2.81,13.23,4.61,16.76,1.8,3.52,4.63,4.97,8.5,4.32,4.14-.69,6.58-3.09,7.34-7.19.75-4.12.52-9.81-.69-17.11l-10.06-60.2c-.96-5.76-2.02-10.39-3.19-13.89-1.15-3.5-2.59-5.96-4.3-7.38-1.7-1.42-3.87-1.91-6.53-1.46-3.92.65-6.21,3.01-6.88,7.08-.66,4.07-.26,10.43,1.19,19.1l2.8,16.75-17.52,2.93-2.76-16.52c-1.47-8.82-1.83-16.34-1.1-22.58.74-6.23,2.87-11.17,6.37-14.83,3.51-3.65,8.65-6.04,15.43-7.18Z"/><path class="cls-1" d="m541.54,868.35l-11.17,136.03-17.92-1.47,4.67-56.89-20.48-1.68-4.67,56.89-17.93-1.47,11.17-136.03,17.93,1.47-5.27,64.15,20.48,1.68,5.26-64.15,17.93,1.47Z"/><path class="cls-1" d="m418.23,844.27l-57.71,123.68-39.43-18.4,6.49-13.91,23.13,10.79,17.02-36.48-21.58-10.06,6.56-14.06,21.57,10.07,27.64-59.24,16.3,7.61Z"/><path class="cls-1" d="m359.56,813.19l-78.29,111.8-14.8-10.36,78.29-111.8,14.8,10.36Z"/><path class="cls-1" d="m317.54,780.2l-84.7,86.71,11.1,10.84-10.67,10.92-34.34-33.53,10.68-10.93,10.42,10.19,84.7-86.71,12.81,12.52Z"/><path class="cls-1" d="m282.22,743.73l-114.23,74.71-7.59-11.62,57.24-73.86-31.4,22.4-41.67,27.26-8.79-13.44,114.23-74.7,7.13,10.9-58.73,74.55,28.71-19.98,46.01-30.1,9.09,13.88Z"/><path class="cls-1" d="m238.92,669.73l-128.25,46.7-14.67-40.3,14.35-5.23,8.52,23.4,41.09-14.96-8.07-22.16,14.21-5.17,8.07,22.15,44.23-16.1-8.71-23.91,14.35-5.23,14.86,40.81Z"/><path class="cls-1" d="m217.12,583.63c.77,5.53.45,10.2-.95,14.03-1.41,3.82-3.73,6.98-6.98,9.46-3.26,2.49-7.29,4.45-12.1,5.91-4.8,1.45-10.25,2.59-16.35,3.44l-12.67,1.76-2.38-17.13,13.68-1.9c8.55-1.19,14.58-2.68,18.08-4.51,3.51-1.82,4.98-4.8,4.39-8.95-.38-2.81-1.35-4.82-2.86-6.01-1.53-1.2-3.78-1.8-6.75-1.81-2.98,0-6.88.33-11.69,1-5.64.79-10.44,2.53-14.42,5.25-3.98,2.72-7.81,6.42-11.5,11.11l-8.07,10.67c-2.39,2.99-5,5.91-7.83,8.72-2.82,2.81-6.09,5.24-9.83,7.27-3.74,2.03-8.11,3.39-13.14,4.09-6.91.96-12.96.99-18.14.09-5.19-.89-9.38-3.12-12.55-6.67-3.18-3.55-5.26-8.86-6.25-15.93-.75-5.48-.46-10.04.89-13.67,1.35-3.63,3.59-6.58,6.72-8.84,3.14-2.26,7.01-4.05,11.63-5.37,4.62-1.32,9.84-2.38,15.68-3.2l8.14-1.13,2.33,16.74-9.3,1.29c-4.91.68-8.97,1.46-12.15,2.35-3.2.89-5.52,2.09-6.98,3.6-1.46,1.51-2.02,3.54-1.66,6.1.33,2.41,1.17,4.27,2.5,5.6,1.34,1.33,3.21,2.17,5.64,2.51,2.42.34,5.47.25,9.16-.26,3.28-.45,5.96-1.23,8.05-2.33,2.1-1.1,4.01-2.62,5.75-4.56,1.74-1.94,3.72-4.29,5.95-7.05l9.29-11.47c4.68-5.81,9.92-10.68,15.74-14.6,5.83-3.91,12.74-6.42,20.72-7.54,7.74-1.07,14.43-1.2,20.07-.36,5.65.84,10.18,3,13.59,6.49,3.4,3.49,5.6,8.74,6.57,15.76Z"/><path class="cls-1" d="m215.37,512.73c-.45,5.56-1.78,10.06-3.98,13.48-2.2,3.42-5.16,6-8.88,7.71-3.72,1.72-8.08,2.76-13.09,3.13-5.01.37-10.58.3-16.71-.2l-12.76-1.05,1.41-17.24,13.76,1.13c8.61.7,14.81.55,18.64-.45,3.81-1.01,5.9-3.61,6.24-7.78.23-2.83-.27-5-1.49-6.5-1.23-1.51-3.3-2.58-6.2-3.24-2.9-.65-6.78-1.18-11.62-1.57-5.67-.46-10.74.19-15.21,1.98-4.48,1.78-9.03,4.56-13.64,8.33l-10.2,8.66c-2.99,2.4-6.17,4.67-9.54,6.8-3.36,2.14-7.09,3.79-11.18,4.96-4.09,1.17-8.67,1.55-13.71,1.13-6.95-.57-12.86-1.86-17.73-3.86-4.87-2.01-8.46-5.09-10.8-9.25-2.33-4.16-3.2-9.79-2.62-16.9.45-5.51,1.73-9.9,3.84-13.15,2.11-3.25,4.93-5.64,8.48-7.16,3.55-1.52,7.73-2.43,12.52-2.71,4.8-.28,10.13-.18,16,.3l8.2.68-1.39,16.85-9.35-.77c-4.94-.4-9.08-.52-12.38-.35-3.3.17-5.84.83-7.59,1.98-1.76,1.15-2.74,3.02-2.96,5.6-.19,2.42.22,4.42,1.22,6.01,1.01,1.58,2.66,2.81,4.95,3.67,2.29.86,5.29,1.44,9,1.75,3.3.27,6.09.1,8.36-.52,2.28-.62,4.49-1.68,6.61-3.2,2.12-1.51,4.57-3.37,7.34-5.58l11.57-9.17c5.83-4.66,12.01-8.26,18.55-10.81,6.53-2.55,13.83-3.49,21.86-2.83,7.79.64,14.34,1.97,19.66,4.02,5.34,2.05,9.28,5.14,11.85,9.29,2.56,4.16,3.55,9.76,2.97,16.82Z"/><path class="cls-1" d="m179.6,400.75l-16.07-6.57,6.24-15.29,16.08,6.57-6.25,15.29Z"/><path class="cls-1" d="m540,806.33c-146.86,0-266.32-119.47-266.32-266.32s119.47-266.32,266.32-266.32,266.32,119.47,266.32,266.32-119.47,266.32-266.32,266.32Zm0-512.06c-135.5,0-245.74,110.24-245.74,245.74s110.24,245.74,245.74,245.74,245.74-110.24,245.74-245.74-110.24-245.74-245.74-245.74Z"/><polygon class="cls-1" points="668.56 454.96 668.56 624.52 641.07 624.52 641.03 454.96 668.56 454.96"/><rect class="cls-1" x="678.85" y="482.75" width="27.56" height="113.98"/><rect class="cls-1" x="716.7" y="517.98" width="27.56" height="43.52"/><rect class="cls-1" x="373.59" y="482.75" width="27.56" height="113.98"/><rect class="cls-1" x="335.74" y="517.98" width="27.56" height="43.52"/><polygon class="cls-1" points="438.9 624.52 411.45 624.52 411.45 454.96 438.96 454.96 438.9 624.52"/><polygon class="cls-1" points="539.32 487.55 628.03 584.27 628.03 625.04 539.35 528.36 451.36 624.67 451.36 583.81 539.32 487.55"/><path class="cls-1" d="m504.17,416.84v-44.16h12.52v3.69h-7.98v16.06h7.53v3.76h-7.53v16.94h7.98v3.71h-12.52Z"/><path class="cls-1" d="m533.27,417.34c-1.77,0-3.2-.34-4.28-1.02-1.08-.68-1.89-1.62-2.45-2.84-.55-1.21-.92-2.63-1.12-4.25s-.29-3.4-.29-5.32v-4.42h4.42v4.49c0,3.4.24,5.83.73,7.31.49,1.48,1.53,2.22,3.14,2.22,1.1,0,1.91-.27,2.41-.8.5-.54.82-1.38.95-2.55.13-1.16.2-2.68.2-4.55,0-2.11-.32-3.87-.95-5.28-.64-1.41-1.64-2.77-3.01-4.08l-2.76-2.68c-.82-.8-1.65-1.7-2.48-2.68-.84-.99-1.53-2.13-2.1-3.43-.56-1.3-.84-2.78-.84-4.45,0-2.17.21-4.08.64-5.71.43-1.63,1.23-2.9,2.42-3.81,1.19-.91,2.9-1.37,5.14-1.37,1.81,0,3.23.33,4.28.98s1.82,1.57,2.31,2.75.81,2.57.95,4.18c.14,1.61.21,3.36.21,5.27v2.56h-4.24v-2.89c0-2.19-.09-3.94-.28-5.26-.18-1.31-.52-2.27-1.02-2.86-.49-.59-1.23-.89-2.2-.89-.89,0-1.61.2-2.18.6s-.98,1.07-1.23,1.99c-.25.93-.38,2.2-.38,3.83,0,1.29.15,2.33.45,3.14s.76,1.54,1.37,2.22c.61.68,1.36,1.48,2.25,2.4l2.76,2.84c1.62,1.66,2.93,3.49,3.91,5.51.99,2.02,1.48,4.43,1.48,7.24,0,2.34-.22,4.39-.65,6.14s-1.24,3.1-2.42,4.05c-1.18.95-2.9,1.43-5.16,1.43Z"/><path class="cls-1" d="m552.38,416.84v-40.48h-4.74v-3.69h13.63v3.69h-4.37v40.48h-4.52Z"/><path class="cls-1" d="m569.36,416.84v-4.59h4.17v4.59h-4.17Z"/><path class="cls-1" d="m495.6,707.36v-2.71c.17-1.32.41-2.56.74-3.7.33-1.15.76-2.33,1.3-3.54.54-1.21,1.22-2.56,2.02-4.05l3.79-7.38c.54-1.07.96-2.07,1.28-3.01.32-.94.56-1.85.73-2.75.17-.89.28-1.81.33-2.74.05-.93.08-1.91.08-2.95,0-2.28-.09-3.99-.26-5.13-.18-1.15-.48-1.92-.9-2.31s-1.02-.58-1.77-.56c-.72,0-1.31.22-1.78.66-.47.44-.81,1.25-1.03,2.41-.22,1.16-.33,2.83-.33,5.01v6.02h-4.39v-4.62c0-3.01.21-5.5.63-7.48.42-1.97,1.19-3.45,2.32-4.43,1.13-.98,2.79-1.46,4.98-1.44,1.74.02,3.1.5,4.09,1.46.99.95,1.69,2.32,2.11,4.1.42,1.78.63,3.94.63,6.49,0,1.81-.11,3.45-.34,4.93-.23,1.48-.57,2.89-1.03,4.24s-1.06,2.76-1.79,4.23l-3.64,7.08c-.67,1.25-1.22,2.35-1.66,3.27-.43.93-.78,1.81-1.04,2.63-.26.83-.46,1.74-.61,2.75h9.46v3.51h-13.9Z"/><path class="cls-1" d="m526.91,707.89c-2.14,0-3.74-.46-4.81-1.39-1.06-.93-1.76-2.32-2.11-4.17-.34-1.85-.51-4.14-.51-6.89v-21.1c0-2.63.18-4.8.54-6.52.36-1.72,1.07-3.01,2.13-3.86,1.06-.85,2.65-1.28,4.76-1.28s3.73.43,4.77,1.28c1.04.85,1.71,2.14,2.02,3.86s.46,3.9.46,6.52v21.1c0,2.06-.08,3.86-.24,5.42-.16,1.56-.48,2.85-.95,3.89-.48,1.04-1.2,1.82-2.17,2.35-.97.53-2.27.79-3.89.79Zm-.05-3.81c.6,0,1.1-.11,1.48-.34s.68-.64.89-1.25c.21-.61.35-1.47.43-2.58.08-1.11.11-2.56.11-4.33v-21.5c0-2.11-.08-3.7-.25-4.78-.17-1.08-.46-1.81-.88-2.2-.42-.38-1.01-.58-1.78-.58s-1.32.19-1.76.58-.75,1.11-.94,2.18c-.19,1.07-.29,2.66-.29,4.77v21.53c0,1.77.04,3.22.13,4.33.08,1.11.23,1.97.45,2.58.22.61.52,1.03.92,1.25.39.23.89.34,1.49.34Z"/><path class="cls-1" d="m551.34,707.36v-37.79c-.4.47-1.01.91-1.82,1.32-.81.41-1.66.74-2.53.98-.88.24-1.63.36-2.25.36v-3.31c.89-.13,1.87-.44,2.95-.93,1.08-.49,2.09-1.13,3.04-1.93.95-.8,1.65-1.76,2.12-2.86h3.04v44.16h-4.54Z"/><path class="cls-1" d="m576.97,707.86c-1.82,0-3.25-.4-4.29-1.2-1.04-.8-1.77-2.07-2.21-3.8-.43-1.73-.65-3.99-.65-6.76v-1.53h4.17v1c0,2.48.08,4.32.25,5.53s.49,2.01.98,2.4,1.2.58,2.13.58c1,0,1.7-.33,2.08-1,.38-.67.6-1.71.65-3.14.05-1.42.08-3.26.08-5.52v-4.97c-.42.38-.98.7-1.68.94-.7.24-1.46.36-2.26.36-2.04,0-3.58-.51-4.6-1.54-1.03-1.03-1.72-2.56-2.07-4.6-.35-2.04-.53-4.56-.53-7.55v-1.08c0-1.92.07-3.7.21-5.32.14-1.62.46-3.03.97-4.22.5-1.19,1.27-2.11,2.3-2.77s2.41-.99,4.15-.99,3.19.32,4.24.95c1.05.64,1.85,1.53,2.38,2.68.54,1.15.89,2.53,1.07,4.13.18,1.6.26,3.37.26,5.31v18.27c0,3.08-.18,5.64-.55,7.69s-1.1,3.59-2.18,4.62c-1.09,1.03-2.72,1.54-4.89,1.54Zm-.25-20.68c.62,0,1.17-.07,1.66-.21s.89-.29,1.2-.45l.58-.29v-10.97c0-2.96-.2-5.14-.59-6.55-.39-1.41-1.33-2.11-2.8-2.11-1.04,0-1.8.3-2.3.9-.49.6-.82,1.53-.97,2.79-.15,1.25-.23,2.86-.23,4.82v2.38c0,2.39.07,4.3.21,5.72.14,1.42.46,2.44.94,3.05s1.25.92,2.28.92Z"/></svg>